<svg viewBox="0 0 500 500">
  <defs>
    <style>
      .outline {
        stroke: black;
        fill: none;
        stroke-width: 6px;
        stroke-miterlimit: 10;
      }
    </style>
  </defs>
  <g>
    <g>
      <path class="outline" d="M138.8 247.3L244.2 41.6c1.4-2.8-2-5.5-4.4-3.5L27 220.2c-.8.7-1.3 1.7-1.3 2.7v61.4c0 2.5 2.5 4.2 4.8 3.4L136.8 249c.9-.3 1.6-.9 2-1.7zm224.2 0L257.9 42.1c-1.5-2.9 2.1-5.8 4.6-3.6l212.3 181.7c.8.7 1.3 1.7 1.3 2.7v61.4c0 2.5-2.5 4.2-4.8 3.4L365 249c-.9-.3-1.6-.9-2-1.7z"/>
      <path class="outline" d="M140.8 243.4L245.4 39.3c2.3-4.4 8.6-4.4 10.9 0l104.6 204.1c1.5 2.9.4 6.5-2.4 8.1l-104.6 60.3a6.05 6.05 0 01-6.1 0l-104.6-60.3c-2.9-1.7-3.9-5.2-2.4-8.1z"/>
      <path class="outline" d="M246.4 471.9L26.7 291c-1.6-1.4-1.2-4 .9-4.7l109.2-37.1c.7-.2 1.5-.2 2.2.2l110.4 62.9c.8.5 1.4 1.4 1.4 2.4v155.1c0 2.3-2.7 3.6-4.4 2.1zm9.2 0L475.3 291c1.6-1.4 1.2-4-.9-4.7l-109.2-37.1c-.7-.2-1.5-.2-2.2.2l-110.4 62.9c-.8.5-1.4 1.4-1.4 2.4v155.1c0 2.3 2.7 3.6 4.4 2.1z"/>
    </g>
    <g>
      <path class="outline" d="M138.8 247.3L244.2 41.6c1.4-2.8-2-5.5-4.4-3.5L27 220.2c-.8.7-1.3 1.7-1.3 2.7v61.4c0 2.5 2.5 4.2 4.8 3.4L136.8 249c.9-.3 1.6-.9 2-1.7zm224.2 0L257.9 42.1c-1.5-2.9 2.1-5.8 4.6-3.6l212.3 181.7c.8.7 1.3 1.7 1.3 2.7v61.4c0 2.5-2.5 4.2-4.8 3.4L365 249c-.9-.3-1.6-.9-2-1.7z"/>
      <path class="outline" d="M140.8 243.4L245.4 39.3c2.3-4.4 8.6-4.4 10.9 0l104.6 204.1c1.5 2.9.4 6.5-2.4 8.1l-104.6 60.3a6.05 6.05 0 01-6.1 0l-104.6-60.3c-2.9-1.7-3.9-5.2-2.4-8.1z"/>
      <path class="outline" d="M246.4 471.9L26.7 291c-1.6-1.4-1.2-4 .9-4.7l109.2-37.1c.7-.2 1.5-.2 2.2.2l110.4 62.9c.8.5 1.4 1.4 1.4 2.4v155.1c0 2.3-2.7 3.6-4.4 2.1zm9.2 0L475.3 291c1.6-1.4 1.2-4-.9-4.7l-109.2-37.1c-.7-.2-1.5-.2-2.2.2l-110.4 62.9c-.8.5-1.4 1.4-1.4 2.4v155.1c0 2.3 2.7 3.6 4.4 2.1z"/>
    </g>
  </g>
</svg>
