<svg viewBox="0 0 500 500">
  <defs>
    <style>
      .outline {
        stroke: black;
        fill: none;
        stroke-width: 6px;
        stroke-linejoin: miter;
        stroke-miterlimit: 10;
      }
    </style>
  </defs>
  <g>
    <g>
      <path class="outline" d="M167.9 360.5l-48.8-150.1c-.7-2.1.1-4.4 1.9-5.7L248.6 112c1.8-1.3 4.2-1.3 6 0l127.7 92.8c1.8 1.3 2.6 3.6 1.9 5.7l-48.8 150.1c-.7 2.1-2.7 3.5-4.9 3.5H172.8c-2.3 0-4.2-1.4-4.9-3.6z"/>
      <path class="outline" d="M50.9 189.4l-1.1 124.3c0 .8.2 1.6.7 2.2l71.8 100.7c1.5 2.1 4.5 2.1 6.1.1l39.6-51.6c.8-1 1-2.3.6-3.5l-49.9-153.5c-.4-1.1-1.3-2-2.4-2.4l-60.5-19.9c-2.4-.7-4.9 1.1-4.9 3.6zm401.9 0l1.1 124.3c0 .8-.2 1.6-.7 2.2l-71.8 100.7c-1.5 2.1-4.5 2.1-6.1.1l-39.6-51.6c-.8-1-1-2.3-.6-3.5L385 208.2c.4-1.1 1.3-2 2.4-2.4l60.5-19.9c2.4-.8 4.9 1 4.9 3.5z"/>
      <path class="outline" d="M372.1 422.9l-117.9 39.4c-.8.3-1.6.3-2.3 0l-118-37.2c-2.4-.8-3.4-3.7-2-5.7l36.9-53.6c.7-1 1.9-1.6 3.1-1.6l161.4.1c1.2 0 2.3.6 3 1.5l37.6 51.4c1.6 1.9.6 4.9-1.8 5.7zm76.1-243.3L376 78.4c-.5-.6-1.1-1.1-1.9-1.4L256.8 37.8c-2.4-.8-6.6.9-6.7 3.5v65.1c0 1.2.5 2.4 1.6 3.2l130.6 94.9c1 .7 2.2.9 3.4.5l60.6-19.4c2.4-1 3.4-3.9 1.9-6z"/>
      <path class="outline" d="M53.6 179.6l72.2-101.2c.5-.6 1.1-1.1 1.9-1.4L245 37.8c2.4-.8 6.6.9 6.7 3.5v65.1c0 1.2-.5 2.4-1.6 3.2l-130.6 94.9c-1 .7-2.2.9-3.4.5l-60.6-19.4c-2.4-1-3.3-3.9-1.9-6z"/>
    </g>
    <g>
      <path class="outline" d="M167.9 360.5l-48.8-150.1c-.7-2.1.1-4.4 1.9-5.7L248.6 112c1.8-1.3 4.2-1.3 6 0l127.7 92.8c1.8 1.3 2.6 3.6 1.9 5.7l-48.8 150.1c-.7 2.1-2.7 3.5-4.9 3.5H172.8c-2.3 0-4.2-1.4-4.9-3.6z"/>
      <path class="outline" d="M50.9 189.4l-1.1 124.3c0 .8.2 1.6.7 2.2l71.8 100.7c1.5 2.1 4.5 2.1 6.1.1l39.6-51.6c.8-1 1-2.3.6-3.5l-49.9-153.5c-.4-1.1-1.3-2-2.4-2.4l-60.5-19.9c-2.4-.7-4.9 1.1-4.9 3.6zm401.9 0l1.1 124.3c0 .8-.2 1.6-.7 2.2l-71.8 100.7c-1.5 2.1-4.5 2.1-6.1.1l-39.6-51.6c-.8-1-1-2.3-.6-3.5L385 208.2c.4-1.1 1.3-2 2.4-2.4l60.5-19.9c2.4-.8 4.9 1 4.9 3.5z"/>
      <path class="outline" d="M372.1 422.9l-117.9 39.4c-.8.3-1.6.3-2.3 0l-118-37.2c-2.4-.8-3.4-3.7-2-5.7l36.9-53.6c.7-1 1.9-1.6 3.1-1.6l161.4.1c1.2 0 2.3.6 3 1.5l37.6 51.4c1.6 1.9.6 4.9-1.8 5.7zm76.1-243.3L376 78.4c-.5-.6-1.1-1.1-1.9-1.4L256.8 37.8c-2.4-.8-6.6.9-6.7 3.5v65.1c0 1.2.5 2.4 1.6 3.2l130.6 94.9c1 .7 2.2.9 3.4.5l60.6-19.4c2.4-1 3.4-3.9 1.9-6z"/>
      <path class="outline" d="M53.6 179.6l72.2-101.2c.5-.6 1.1-1.1 1.9-1.4L245 37.8c2.4-.8 6.6.9 6.7 3.5v65.1c0 1.2-.5 2.4-1.6 3.2l-130.6 94.9c-1 .7-2.2.9-3.4.5l-60.6-19.4c-2.4-1-3.3-3.9-1.9-6z"/>
    </g>
  </g>
</svg>
