<?xml version="1.0" encoding="utf-8"?>
<!-- Generator: Adobe Illustrator 17.1.0, SVG Export Plug-In . SVG Version: 6.00 Build 0)  -->
<!DOCTYPE svg PUBLIC "-//W3C//DTD SVG 1.1//EN" "http://www.w3.org/Graphics/SVG/1.1/DTD/svg11.dtd">
<svg version="1.1" xmlns="http://www.w3.org/2000/svg" xmlns:xlink="http://www.w3.org/1999/xlink" x="0px" y="0px"
	 viewBox="0 0 300 300" enable-background="new 0 0 300 300" xml:space="preserve">
<g id="Layer_1">
	<path id="red" fill="#FF0000" d="M38.4,233.6L143.2,52.1c3.2-5.5,11.1-5.5,14.3,0l104.8,181.5c3.2,5.5-0.8,12.4-7.1,12.4H45.6
		C39.2,246,35.3,239.1,38.4,233.6z"/>
	<path id="orange" fill="#FFA500" d="M38.4,233.6L143.2,52.1c3.2-5.5,11.1-5.5,14.3,0l104.8,181.5c3.2,5.5-0.8,12.4-7.1,12.4H45.6
		C39.2,246,35.3,239.1,38.4,233.6z"/>
	<path id="yellow" fill="#FFFF00" d="M38.4,233.6L143.2,52.1c3.2-5.5,11.1-5.5,14.3,0l104.8,181.5c3.2,5.5-0.8,12.4-7.1,12.4H45.6
		C39.2,246,35.3,239.1,38.4,233.6z"/>
	<path id="green" display="none" fill="#00FF00" d="M38.4,233.6L143.2,52.1c3.2-5.5,11.1-5.5,14.3,0l104.8,181.5
		c3.2,5.5-0.8,12.4-7.1,12.4H45.6C39.2,246,35.3,239.1,38.4,233.6z"/>
	<path id="blue" display="none" fill="#0000FF" d="M38.4,233.6L143.2,52.1c3.2-5.5,11.1-5.5,14.3,0l104.8,181.5
		c3.2,5.5-0.8,12.4-7.1,12.4H45.6C39.2,246,35.3,239.1,38.4,233.6z"/>
	<path id="indigo" display="none" fill="#4B0082" d="M38.4,233.6L143.2,52.1c3.2-5.5,11.1-5.5,14.3,0l104.8,181.5
		c3.2,5.5-0.8,12.4-7.1,12.4H45.6C39.2,246,35.3,239.1,38.4,233.6z"/>
	<path id="purple" display="none" fill="#800080" d="M38.4,233.6L143.2,52.1c3.2-5.5,11.1-5.5,14.3,0l104.8,181.5
		c3.2,5.5-0.8,12.4-7.1,12.4H45.6C39.2,246,35.3,239.1,38.4,233.6z"/>
	<path fill="none" stroke="#FFFFFF" stroke-width="12" stroke-miterlimit="10" d="M38.4,233.6L143.2,52.1c3.2-5.5,11.1-5.5,14.3,0
		l104.8,181.5c3.2,5.5-0.8,12.4-7.1,12.4H45.6C39.2,246,35.3,239.1,38.4,233.6z"/>
</g>
<g id="face_4">
	<g>
		<path fill="#FFFFFF" d="M125.4,123.6v-9.7l22-30.2h12.5v29.8h5.8v10.1h-5.8v8.9h-11.8v-8.9H125.4z M149.1,97.1l-11.8,16.3h11.8
			V97.1z"/>
	</g>
	<g>
		<path fill="#FFFFFF" d="M79.3,211.6c-3.2,1.9-4,4.2-2.4,7c0.9,1.6,2.1,2.4,3.6,2.5c1.5,0.1,3.5-0.5,5.8-1.8l5.7,9.8
			c-5.2,2.7-9.9,3.4-14.1,2c-4.2-1.4-7.5-4.2-10-8.5c-2.6-4.5-3.4-8.6-2.5-12.2c1-3.6,3.3-6.5,6.9-8.6c4-2.3,8.9-3.1,14.6-2.2
			c5.7,0.9,11.1,2.7,16.3,5.5l-9.5-16.5l8.1-4.7l17.2,29.7l-7.5,4.4C95.3,210.7,84.6,208.6,79.3,211.6z"/>
	</g>
	<g>
		<path fill="#FFFFFF" d="M222.1,229.6c-2.2,1.5-4.5,2.3-6.9,2.4c-2.4,0.1-4.7-0.5-6.9-1.8c-2.7-1.6-4.5-3.5-5.3-5.9
			c-0.8-2.3-0.9-4.7-0.1-7l-0.3-0.2c-4.8,4.4-9.8,5.1-14.7,2.3c-2.4-1.4-4.2-3.2-5.4-5.3c-1.2-2.2-1.8-4.6-1.6-7.3
			c0.2-2.7,1.1-5.5,2.8-8.5c2.8-4.8,6.1-7.9,10.1-9.4c4-1.4,8.5-0.9,13.4,1.7l-5.7,9.8c-1.9-1-3.6-1.3-5.3-1c-1.6,0.3-2.9,1.4-4,3.2
			c-0.8,1.5-1.1,2.9-0.7,4.2c0.4,1.3,1.3,2.4,2.6,3.2c3.4,2,6.6,0.5,9.4-4.5l1.1-1.9l8.2,4.7l-1.1,1.8c-2.6,4.4-2.3,7.5,0.9,9.4
			c1.4,0.8,2.7,1.1,3.9,0.7c1.2-0.3,2.2-1.1,2.9-2.4c0.8-1.4,1-2.8,0.5-4.2c-0.5-1.4-1.5-2.6-3-3.6l5.7-9.8c4.3,2.7,6.9,6.1,7.8,10
			c0.9,3.9,0,8.2-2.7,12.8C226.3,225.8,224.3,228,222.1,229.6z"/>
	</g>
</g>
<g id="face_3" display="none">
	<g display="inline">
		<path fill="#FFFFFF" d="M158.9,83.9c2.4,1.2,4.2,2.7,5.5,4.8c1.2,2,1.9,4.3,1.9,6.8c0,3.1-0.8,5.7-2.4,7.6s-3.6,3.1-6,3.6v0.3
			c6.2,2,9.3,5.9,9.3,11.6c0,2.8-0.6,5.2-1.9,7.4c-1.3,2.2-3.1,3.8-5.6,5c-2.4,1.2-5.3,1.8-8.7,1.8c-5.5,0-9.9-1.4-13.2-4.1
			c-3.2-2.7-5-6.9-5.3-12.5h11.4c0.1,2.1,0.7,3.8,1.8,5s2.7,1.8,4.8,1.8c1.7,0,3-0.5,4-1.5c1-1,1.5-2.3,1.5-3.9
			c0-3.9-2.9-5.9-8.6-5.9h-2.2v-9.5h2.1c5.1,0.1,7.7-1.7,7.7-5.5c0-1.6-0.4-2.9-1.3-3.8c-0.9-0.9-2.1-1.3-3.6-1.3
			c-1.6,0-2.9,0.6-3.9,1.7c-1,1.1-1.5,2.6-1.6,4.5h-11.4c0.2-5.1,1.8-9,4.8-11.7c3-2.7,7.1-4.1,12.4-4.1
			C153.6,82.2,156.5,82.7,158.9,83.9z"/>
	</g>
	<g display="inline">
		<path fill="#FFFFFF" d="M80.3,211.6c-3.2,1.9-4,4.2-2.4,7c0.9,1.6,2.1,2.4,3.6,2.5c1.5,0.1,3.5-0.5,5.8-1.8l5.7,9.8
			c-5.2,2.7-9.9,3.4-14.1,2c-4.2-1.4-7.5-4.2-10-8.5c-2.6-4.5-3.4-8.6-2.5-12.2c1-3.6,3.3-6.5,6.9-8.6c4-2.3,8.9-3.1,14.6-2.2
			c5.7,0.9,11.1,2.7,16.3,5.5l-9.5-16.5l8.1-4.7l17.2,29.7l-7.5,4.4C96.3,210.7,85.6,208.6,80.3,211.6z"/>
	</g>
	<g display="inline">
		<path fill="#FFFFFF" d="M222.3,206.6l9.4,5.4l-9.7,16.9l-41.7-24.1l6.1-10.6l32.3,18.6L222.3,206.6z"/>
	</g>
</g>
<g id="face_2" display="none">
	<g display="inline">
		<path fill="#FFFFFF" d="M154,98.6c0-3.7-1.6-5.6-4.8-5.6c-1.8,0-3.1,0.6-4,1.9c-0.8,1.3-1.3,3.2-1.4,5.9h-11.4
			c0.3-5.9,2-10.3,5.3-13.2c3.3-3,7.4-4.4,12.4-4.4c5.2,0,9.2,1.3,11.8,3.9c2.7,2.6,4,6.1,4,10.3c0,4.7-1.8,9.3-5.4,13.7
			c-3.6,4.5-7.9,8.3-12.9,11.3h19v9.4h-34.3v-8.7C146.8,112.8,154,104.7,154,98.6z"/>
	</g>
	<g display="inline">
		<path fill="#FFFFFF" d="M65.7,215.6c-0.2-2.7,0.3-5,1.4-7.1c1.1-2.1,2.8-3.8,5-5c2.7-1.6,5.3-2.1,7.8-1.7c2.5,0.4,4.5,1.6,6.1,3.4
			l0.3-0.2c-1.4-6.4,0.4-11,5.4-13.9c2.4-1.4,4.9-2.1,7.4-2c2.5,0,4.9,0.8,7.1,2.3c2.3,1.5,4.2,3.7,5.9,6.7c2.8,4.8,3.8,9.3,3,13.5
			c-0.7,4.2-3.5,7.8-8.2,10.8l-5.7-9.8c1.8-1.1,3-2.5,3.5-4.1c0.5-1.6,0.3-3.2-0.8-5c-0.8-1.5-1.9-2.4-3.3-2.7
			c-1.4-0.3-2.7-0.1-4.1,0.7c-3.4,2-3.7,5.4-0.8,10.4l1.1,1.9l-8.2,4.7l-1.1-1.8c-2.5-4.5-5.4-5.8-8.6-3.9c-1.4,0.8-2.3,1.8-2.6,3
			c-0.3,1.2-0.1,2.5,0.6,3.8c0.8,1.4,1.9,2.3,3.4,2.5c1.4,0.3,3,0,4.7-0.8l5.7,9.8c-4.5,2.3-8.7,2.9-12.5,1.7
			c-3.8-1.2-7.1-4.1-9.7-8.7C66.8,221,65.9,218.2,65.7,215.6z"/>
	</g>
	<g display="inline">
		<path fill="#FFFFFF" d="M203,184l8.4,4.9l15.1,34.1l-6.3,10.9L194.5,219l-2.9,5l-8.8-5.1l2.9-5l-7.7-4.4l5.9-10.2l7.7,4.4L203,184
			z M214,217.8l-8.2-18.4l-5.9,10.3L214,217.8z"/>
	</g>
</g>
<g id="face_1" display="none">
	<g display="inline">
		<path fill="#FFFFFF" d="M139.9,95.2V84.3h19.5v48.1h-12.3V95.2H139.9z"/>
	</g>
	<g display="inline">
		<path fill="#FFFFFF" d="M115.3,225.4l-8.4,4.9l-37.1-4l-6.3-10.9l25.8-14.9l-2.9-5l8.8-5.1l2.9,5l7.7-4.4l5.9,10.2l-7.7,4.4
			L115.3,225.4z M80.5,218.1l20,2.1L94.6,210L80.5,218.1z"/>
	</g>
	<g display="inline">
		<path fill="#FFFFFF" d="M222.1,229.6c-2.2,1.5-4.5,2.3-6.9,2.4c-2.4,0.1-4.7-0.5-6.9-1.8c-2.7-1.6-4.5-3.5-5.3-5.9
			c-0.8-2.3-0.9-4.7-0.1-7l-0.3-0.2c-4.8,4.4-9.8,5.1-14.7,2.3c-2.4-1.4-4.2-3.2-5.4-5.3c-1.2-2.2-1.8-4.6-1.6-7.3
			c0.2-2.7,1.1-5.5,2.8-8.5c2.8-4.8,6.1-7.9,10.1-9.4c4-1.4,8.5-0.9,13.4,1.7l-5.7,9.8c-1.9-1-3.6-1.3-5.3-1c-1.6,0.3-2.9,1.4-4,3.2
			c-0.8,1.5-1.1,2.9-0.7,4.2c0.4,1.3,1.3,2.4,2.6,3.2c3.4,2,6.6,0.5,9.4-4.5l1.1-1.9l8.2,4.7l-1.1,1.8c-2.6,4.4-2.3,7.5,0.9,9.4
			c1.4,0.8,2.7,1.1,3.9,0.7c1.2-0.3,2.2-1.1,2.9-2.4c0.8-1.4,1-2.8,0.5-4.2c-0.5-1.4-1.5-2.6-3-3.6l5.7-9.8c4.3,2.7,6.9,6.1,7.8,10
			c0.9,3.9,0,8.2-2.7,12.8C226.3,225.8,224.3,228,222.1,229.6z"/>
	</g>
</g>
</svg>
