<?xml version="1.0" encoding="utf-8"?>
<!-- Generator: Adobe Illustrator 17.1.0, SVG Export Plug-In . SVG Version: 6.00 Build 0)  -->
<!DOCTYPE svg PUBLIC "-//W3C//DTD SVG 1.1//EN" "http://www.w3.org/Graphics/SVG/1.1/DTD/svg11.dtd">
<svg version="1.1" xmlns="http://www.w3.org/2000/svg" xmlns:xlink="http://www.w3.org/1999/xlink" x="0px" y="0px"
	 viewBox="0 0 500 500" enable-background="new 0 0 500 500" xml:space="preserve">
<g id="Layer_1">
	<g>
		<path fill="#FF0000" d="M138.8,247.3L244.2,41.6c1.4-2.8-2-5.5-4.4-3.5L27,220.2c-0.8,0.7-1.3,1.7-1.3,2.7v61.4
			c0,2.5,2.5,4.2,4.8,3.4L136.8,249C137.7,248.7,138.4,248.1,138.8,247.3z"/>
		<path fill="#FF0000" d="M363,247.3L257.9,42.1c-1.5-2.9,2.1-5.8,4.6-3.6l212.3,181.7c0.8,0.7,1.3,1.7,1.3,2.7v61.4
			c0,2.5-2.5,4.2-4.8,3.4L365,249C364.1,248.7,363.4,248.1,363,247.3z"/>
		<path fill="#FF0000" d="M140.8,243.4L245.4,39.3c2.3-4.4,8.6-4.4,10.9,0l104.6,204.1c1.5,2.9,0.4,6.5-2.4,8.1l-104.6,60.3
			c-1.9,1.1-4.2,1.1-6.1,0l-104.6-60.3C140.3,249.8,139.3,246.3,140.8,243.4z"/>
		<path fill="#FF0000" d="M246.4,471.9L26.7,291c-1.6-1.4-1.2-4,0.9-4.7l109.2-37.1c0.7-0.2,1.5-0.2,2.2,0.2l110.4,62.9
			c0.8,0.5,1.4,1.4,1.4,2.4v155.1C250.8,472.1,248.1,473.4,246.4,471.9z"/>
		<path fill="#FF0000" d="M255.6,471.9L475.3,291c1.6-1.4,1.2-4-0.9-4.7l-109.2-37.1c-0.7-0.2-1.5-0.2-2.2,0.2l-110.4,62.9
			c-0.8,0.5-1.4,1.4-1.4,2.4v155.1C251.2,472.1,253.9,473.4,255.6,471.9z"/>
	</g>
	<g>
		<path fill="#FFA500" d="M138.8,247.3L244.2,41.6c1.4-2.8-2-5.5-4.4-3.5L27,220.2c-0.8,0.7-1.3,1.7-1.3,2.7v61.4
			c0,2.5,2.5,4.2,4.8,3.4L136.8,249C137.7,248.7,138.4,248.1,138.8,247.3z"/>
		<path fill="#FFA500" d="M363,247.3L257.9,42.1c-1.5-2.9,2.1-5.8,4.6-3.6l212.3,181.7c0.8,0.7,1.3,1.7,1.3,2.7v61.4
			c0,2.5-2.5,4.2-4.8,3.4L365,249C364.1,248.7,363.4,248.1,363,247.3z"/>
		<path fill="#FFA500" d="M140.8,243.4L245.4,39.3c2.3-4.4,8.6-4.4,10.9,0l104.6,204.1c1.5,2.9,0.4,6.5-2.4,8.1l-104.6,60.3
			c-1.9,1.1-4.2,1.1-6.1,0l-104.6-60.3C140.3,249.8,139.3,246.3,140.8,243.4z"/>
		<path fill="#FFA500" d="M246.4,471.9L26.7,291c-1.6-1.4-1.2-4,0.9-4.7l109.2-37.1c0.7-0.2,1.5-0.2,2.2,0.2l110.4,62.9
			c0.8,0.5,1.4,1.4,1.4,2.4v155.1C250.8,472.1,248.1,473.4,246.4,471.9z"/>
		<path fill="#FFA500" d="M255.6,471.9L475.3,291c1.6-1.4,1.2-4-0.9-4.7l-109.2-37.1c-0.7-0.2-1.5-0.2-2.2,0.2l-110.4,62.9
			c-0.8,0.5-1.4,1.4-1.4,2.4v155.1C251.2,472.1,253.9,473.4,255.6,471.9z"/>
	</g>
	<g>
		<path fill="#FFFF00" d="M138.8,247.3L244.2,41.6c1.4-2.8-2-5.5-4.4-3.5L27,220.2c-0.8,0.7-1.3,1.7-1.3,2.7v61.4
			c0,2.5,2.5,4.2,4.8,3.4L136.8,249C137.7,248.7,138.4,248.1,138.8,247.3z"/>
		<path fill="#FFFF00" d="M363,247.3L257.9,42.1c-1.5-2.9,2.1-5.8,4.6-3.6l212.3,181.7c0.8,0.7,1.3,1.7,1.3,2.7v61.4
			c0,2.5-2.5,4.2-4.8,3.4L365,249C364.1,248.7,363.4,248.1,363,247.3z"/>
		<path fill="#FFFF00" d="M140.8,243.4L245.4,39.3c2.3-4.4,8.6-4.4,10.9,0l104.6,204.1c1.5,2.9,0.4,6.5-2.4,8.1l-104.6,60.3
			c-1.9,1.1-4.2,1.1-6.1,0l-104.6-60.3C140.3,249.8,139.3,246.3,140.8,243.4z"/>
		<path fill="#FFFF00" d="M246.4,471.9L26.7,291c-1.6-1.4-1.2-4,0.9-4.7l109.2-37.1c0.7-0.2,1.5-0.2,2.2,0.2l110.4,62.9
			c0.8,0.5,1.4,1.4,1.4,2.4v155.1C250.8,472.1,248.1,473.4,246.4,471.9z"/>
		<path fill="#FFFF00" d="M255.6,471.9L475.3,291c1.6-1.4,1.2-4-0.9-4.7l-109.2-37.1c-0.7-0.2-1.5-0.2-2.2,0.2l-110.4,62.9
			c-0.8,0.5-1.4,1.4-1.4,2.4v155.1C251.2,472.1,253.9,473.4,255.6,471.9z"/>
	</g>
	<g>
		<path fill="#00FF00" d="M138.8,247.3L244.2,41.6c1.4-2.8-2-5.5-4.4-3.5L27,220.2c-0.8,0.7-1.3,1.7-1.3,2.7v61.4
			c0,2.5,2.5,4.2,4.8,3.4L136.8,249C137.7,248.7,138.4,248.1,138.8,247.3z"/>
		<path fill="#00FF00" d="M363,247.3L257.9,42.1c-1.5-2.9,2.1-5.8,4.6-3.6l212.3,181.7c0.8,0.7,1.3,1.7,1.3,2.7v61.4
			c0,2.5-2.5,4.2-4.8,3.4L365,249C364.1,248.7,363.4,248.1,363,247.3z"/>
		<path fill="#00FF00" d="M140.8,243.4L245.4,39.3c2.3-4.4,8.6-4.4,10.9,0l104.6,204.1c1.5,2.9,0.4,6.5-2.4,8.1l-104.6,60.3
			c-1.9,1.1-4.2,1.1-6.1,0l-104.6-60.3C140.3,249.8,139.3,246.3,140.8,243.4z"/>
		<path fill="#00FF00" d="M246.4,471.9L26.7,291c-1.6-1.4-1.2-4,0.9-4.7l109.2-37.1c0.7-0.2,1.5-0.2,2.2,0.2l110.4,62.9
			c0.8,0.5,1.4,1.4,1.4,2.4v155.1C250.8,472.1,248.1,473.4,246.4,471.9z"/>
		<path fill="#00FF00" d="M255.6,471.9L475.3,291c1.6-1.4,1.2-4-0.9-4.7l-109.2-37.1c-0.7-0.2-1.5-0.2-2.2,0.2l-110.4,62.9
			c-0.8,0.5-1.4,1.4-1.4,2.4v155.1C251.2,472.1,253.9,473.4,255.6,471.9z"/>
	</g>
	<g>
		<path fill="#0000FF" d="M138.8,247.3L244.2,41.6c1.4-2.8-2-5.5-4.4-3.5L27,220.2c-0.8,0.7-1.3,1.7-1.3,2.7v61.4
			c0,2.5,2.5,4.2,4.8,3.4L136.8,249C137.7,248.7,138.4,248.1,138.8,247.3z"/>
		<path fill="#0000FF" d="M363,247.3L257.9,42.1c-1.5-2.9,2.1-5.8,4.6-3.6l212.3,181.7c0.8,0.7,1.3,1.7,1.3,2.7v61.4
			c0,2.5-2.5,4.2-4.8,3.4L365,249C364.1,248.7,363.4,248.1,363,247.3z"/>
		<path fill="#0000FF" d="M140.8,243.4L245.4,39.3c2.3-4.4,8.6-4.4,10.9,0l104.6,204.1c1.5,2.9,0.4,6.5-2.4,8.1l-104.6,60.3
			c-1.9,1.1-4.2,1.1-6.1,0l-104.6-60.3C140.3,249.8,139.3,246.3,140.8,243.4z"/>
		<path fill="#0000FF" d="M246.4,471.9L26.7,291c-1.6-1.4-1.2-4,0.9-4.7l109.2-37.1c0.7-0.2,1.5-0.2,2.2,0.2l110.4,62.9
			c0.8,0.5,1.4,1.4,1.4,2.4v155.1C250.8,472.1,248.1,473.4,246.4,471.9z"/>
		<path fill="#0000FF" d="M255.6,471.9L475.3,291c1.6-1.4,1.2-4-0.9-4.7l-109.2-37.1c-0.7-0.2-1.5-0.2-2.2,0.2l-110.4,62.9
			c-0.8,0.5-1.4,1.4-1.4,2.4v155.1C251.2,472.1,253.9,473.4,255.6,471.9z"/>
	</g>
	<g display="none">
		<path display="inline" fill="#4B0082" d="M138.8,247.3L244.2,41.6c1.4-2.8-2-5.5-4.4-3.5L27,220.2c-0.8,0.7-1.3,1.7-1.3,2.7v61.4
			c0,2.5,2.5,4.2,4.8,3.4L136.8,249C137.7,248.7,138.4,248.1,138.8,247.3z"/>
		<path display="inline" fill="#4B0082" d="M363,247.3L257.9,42.1c-1.5-2.9,2.1-5.8,4.6-3.6l212.3,181.7c0.8,0.7,1.3,1.7,1.3,2.7
			v61.4c0,2.5-2.5,4.2-4.8,3.4L365,249C364.1,248.7,363.4,248.1,363,247.3z"/>
		<path display="inline" fill="#4B0082" d="M140.8,243.4L245.4,39.3c2.3-4.4,8.6-4.4,10.9,0l104.6,204.1c1.5,2.9,0.4,6.5-2.4,8.1
			l-104.6,60.3c-1.9,1.1-4.2,1.1-6.1,0l-104.6-60.3C140.3,249.8,139.3,246.3,140.8,243.4z"/>
		<path display="inline" fill="#4B0082" d="M246.4,471.9L26.7,291c-1.6-1.4-1.2-4,0.9-4.7l109.2-37.1c0.7-0.2,1.5-0.2,2.2,0.2
			l110.4,62.9c0.8,0.5,1.4,1.4,1.4,2.4v155.1C250.8,472.1,248.1,473.4,246.4,471.9z"/>
		<path display="inline" fill="#4B0082" d="M255.6,471.9L475.3,291c1.6-1.4,1.2-4-0.9-4.7l-109.2-37.1c-0.7-0.2-1.5-0.2-2.2,0.2
			l-110.4,62.9c-0.8,0.5-1.4,1.4-1.4,2.4v155.1C251.2,472.1,253.9,473.4,255.6,471.9z"/>
	</g>
	<g display="none">
		<path display="inline" fill="#800080" d="M138.8,247.3L244.2,41.6c1.4-2.8-2-5.5-4.4-3.5L27,220.2c-0.8,0.7-1.3,1.7-1.3,2.7v61.4
			c0,2.5,2.5,4.2,4.8,3.4L136.8,249C137.7,248.7,138.4,248.1,138.8,247.3z"/>
		<path display="inline" fill="#800080" d="M363,247.3L257.9,42.1c-1.5-2.9,2.1-5.8,4.6-3.6l212.3,181.7c0.8,0.7,1.3,1.7,1.3,2.7
			v61.4c0,2.5-2.5,4.2-4.8,3.4L365,249C364.1,248.7,363.4,248.1,363,247.3z"/>
		<path display="inline" fill="#800080" d="M140.8,243.4L245.4,39.3c2.3-4.4,8.6-4.4,10.9,0l104.6,204.1c1.5,2.9,0.4,6.5-2.4,8.1
			l-104.6,60.3c-1.9,1.1-4.2,1.1-6.1,0l-104.6-60.3C140.3,249.8,139.3,246.3,140.8,243.4z"/>
		<path display="inline" fill="#800080" d="M246.4,471.9L26.7,291c-1.6-1.4-1.2-4,0.9-4.7l109.2-37.1c0.7-0.2,1.5-0.2,2.2,0.2
			l110.4,62.9c0.8,0.5,1.4,1.4,1.4,2.4v155.1C250.8,472.1,248.1,473.4,246.4,471.9z"/>
		<path display="inline" fill="#800080" d="M255.6,471.9L475.3,291c1.6-1.4,1.2-4-0.9-4.7l-109.2-37.1c-0.7-0.2-1.5-0.2-2.2,0.2
			l-110.4,62.9c-0.8,0.5-1.4,1.4-1.4,2.4v155.1C251.2,472.1,253.9,473.4,255.6,471.9z"/>
	</g>
	<g>
		<path fill="none" stroke="#FFFFFF" stroke-width="12" stroke-miterlimit="10" d="M138.8,247.3L244.2,41.6c1.4-2.8-2-5.5-4.4-3.5
			L27,220.2c-0.8,0.7-1.3,1.7-1.3,2.7v61.4c0,2.5,2.5,4.2,4.8,3.4L136.8,249C137.7,248.7,138.4,248.1,138.8,247.3z"/>
		<path fill="none" stroke="#FFFFFF" stroke-width="12" stroke-miterlimit="10" d="M363,247.3L257.9,42.1c-1.5-2.9,2.1-5.8,4.6-3.6
			l212.3,181.7c0.8,0.7,1.3,1.7,1.3,2.7v61.4c0,2.5-2.5,4.2-4.8,3.4L365,249C364.1,248.7,363.4,248.1,363,247.3z"/>
		<path fill="none" stroke="#FFFFFF" stroke-width="12" stroke-miterlimit="10" d="M140.8,243.4L245.4,39.3c2.3-4.4,8.6-4.4,10.9,0
			l104.6,204.1c1.5,2.9,0.4,6.5-2.4,8.1l-104.6,60.3c-1.9,1.1-4.2,1.1-6.1,0l-104.6-60.3C140.3,249.8,139.3,246.3,140.8,243.4z"/>
		<path fill="none" stroke="#FFFFFF" stroke-width="12" stroke-miterlimit="10" d="M246.4,471.9L26.7,291c-1.6-1.4-1.2-4,0.9-4.7
			l109.2-37.1c0.7-0.2,1.5-0.2,2.2,0.2l110.4,62.9c0.8,0.5,1.4,1.4,1.4,2.4v155.1C250.8,472.1,248.1,473.4,246.4,471.9z"/>
		<path fill="none" stroke="#FFFFFF" stroke-width="12" stroke-miterlimit="10" d="M255.6,471.9L475.3,291c1.6-1.4,1.2-4-0.9-4.7
			l-109.2-37.1c-0.7-0.2-1.5-0.2-2.2,0.2l-110.4,62.9c-0.8,0.5-1.4,1.4-1.4,2.4v155.1C251.2,472.1,253.9,473.4,255.6,471.9z"/>
	</g>
</g>
<g id="face_10" display="none">
	<g display="inline">
		<path fill="#FFFFFF" d="M201.7,178.6v-17.7h31.6v78.2h-19.9v-60.5H201.7z"/>
		<path fill="#FFFFFF" d="M244.5,199.1c0-12.2,2.5-21.8,7.4-28.9c4.9-7.1,12.8-10.7,23.7-10.7c10.8,0,18.6,3.6,23.6,10.7
			c5,7.1,7.5,16.8,7.5,28.9c0,12.2-2.5,21.9-7.5,29.1c-5,7.2-12.8,10.7-23.6,10.7c-10.8,0-18.7-3.6-23.7-10.7
			C247,221.1,244.5,211.4,244.5,199.1z M287.9,199.1c0-7-0.8-12.4-2.5-16.1c-1.7-3.7-4.9-5.6-9.8-5.6c-4.9,0-8.3,1.9-10,5.6
			c-1.7,3.8-2.5,9.1-2.5,16c0,7,0.8,12.4,2.5,16.2c1.7,3.8,5,5.7,10,5.7c4.9,0,8.1-1.9,9.8-5.7C287.1,211.5,287.9,206.1,287.9,199.1
			z"/>
	</g>
	<g display="inline">
		<path fill="#FFFFFF" d="M151.7,362.1h24.8l-5.4-13.8c-0.5,1.5-1.5,2.7-3.1,3.6c-1.6,0.9-3.6,1.3-5.8,1.3c-3.7,0-7.2-1-10.5-3
			c-3.3-2-6.2-4.7-8.7-8.1c-2.5-3.4-4.6-7.2-6.2-11.3c-2.9-7.5-3.6-13.4-1.9-17.7c1.7-4.3,5.6-6.5,11.7-6.5c4.2,0,8.1,0.9,11.9,2.7
			c3.8,1.8,7.2,4.4,10.1,7.7c3,3.3,5.3,7.1,7.1,11.4h-13c-1.1-2.2-2.5-4-4.3-5.4c-1.7-1.4-3.6-2.1-5.6-2.1c-2.3,0-3.7,0.9-4.2,2.8
			c-0.4,1.9,0,4.3,1.2,7.4c1.2,3,2.7,5.2,4.6,6.8c1.9,1.6,3.9,2.4,6.2,2.4c1.7,0,3-0.5,3.7-1.4c0.8-0.9,1.1-2.1,0.9-3.6H178
			l16.2,41.3h-36.9L151.7,362.1z"/>
	</g>
	<g display="inline">
		<path fill="#FFFFFF" d="M329.3,354c-1.3,5.3-0.1,7.9,3.6,7.9c2.1,0,3.8-0.9,5.2-2.7c1.4-1.8,2.6-4.6,3.7-8.4h13
			c-2.4,8.3-6,14.5-10.8,18.7c-4.8,4.2-10,6.3-15.8,6.3c-6,0-10-1.9-12.1-5.6c-2.1-3.7-2.4-8.6-0.9-14.6c1.7-6.6,5.3-13.1,11-19.4
			c5.7-6.3,11.9-11.7,18.7-16.1h-21.8l3.3-13.3h39.3l-3.1,12.3C342.6,333.8,331.4,345.4,329.3,354z"/>
	</g>
	<g display="inline">
		<path fill="#FFFFFF" d="M98.8,187.2l7.2-11.2l40.1-19.3l10.1,8.9l-22.1,34.3l4.7,4.1l-7.5,11.7l-4.7-4.1l-6.6,10.2l-9.5-8.3
			l6.6-10.2L98.8,187.2z M137.5,173.4l-21.6,10.4l9.5,8.4L137.5,173.4z"/>
	</g>
	<g display="inline">
		<path fill="#FFFFFF" d="M345.8,173.4c-0.6-2.8-0.3-5.7,1-8.6c1.3-2.9,3.6-5.5,7-7.9c3.4-2.4,6.9-3.8,10.4-4.3
			c3.5-0.4,6.8-0.1,9.8,1.1c3,1.2,5.5,2.8,7.6,5.1c2.3,2.5,3.6,4.9,4.2,7.4c0.5,2.5,0.2,4.9-1.1,7.3c7.1-1.1,13.2,1.1,18.2,6.6
			c2.9,3.2,4.6,6.4,5.2,9.7c0.6,3.3,0.1,6.4-1.4,9.4c-1.5,2.9-3.8,5.5-7,7.8c-3.2,2.2-6.6,3.6-10.2,4.3c-3.6,0.6-7.3,0.3-10.8-0.9
			c-3.6-1.2-6.8-3.4-9.7-6.6c-5.1-5.5-6.2-11.2-3.4-17c-2.9,0.5-5.7,0.3-8.4-0.7c-2.7-1-5.1-2.7-7.4-5.2
			C347.7,178.8,346.4,176.2,345.8,173.4z M367.2,178.7c1.8,0.3,3.6-0.2,5.3-1.3c1.7-1.2,2.5-2.6,2.7-4.2c0.1-1.6-0.7-3.3-2.3-5.1
			c-1.6-1.8-3.4-2.8-5.3-3.1c-1.9-0.3-3.7,0.1-5.3,1.2s-2.5,2.6-2.5,4.3c-0.1,1.7,0.7,3.4,2.3,5.2
			C363.6,177.4,365.4,178.4,367.2,178.7z M384.8,199.4c2.2,0.3,4.4-0.2,6.4-1.7c2-1.4,3.1-3.1,3.3-5.1c0.1-2-0.7-3.9-2.5-5.9
			s-3.9-3.1-6.1-3.4c-2.3-0.3-4.4,0.3-6.3,1.6c-2,1.4-3,3-3.2,5c-0.2,2,0.6,4,2.4,5.9S382.5,199.1,384.8,199.4z"/>
	</g>
</g>
<g id="face_9">
	<g>
		<path fill="#FFFFFF" d="M251.4,224.7c4.3,0,7.3-2,9-5.9c1.7-3.9,2.5-10,2.4-18.2c-1.3,3-3.4,5.4-6.5,7.1
			c-3.1,1.7-6.6,2.6-10.7,2.6c-7.4,0-13.2-2.2-17.5-6.7c-4.3-4.5-6.4-10.9-6.4-19.2c0-5.2,1.1-9.9,3.2-13.9c2.1-4.1,5.3-7.2,9.5-9.5
			c4.2-2.2,9.2-3.4,15-3.4c7.9,0,14,1.7,18.5,5s7.5,7.8,9.2,13.5c1.7,5.7,2.5,12.6,2.5,20.6c0,14.2-2.2,24.9-6.5,32.1
			c-4.3,7.3-11.6,10.9-21.7,10.9c-5.6,0-10.4-1.1-14.4-3.4c-4-2.2-7.1-5.3-9.3-9c-2.2-3.8-3.4-7.9-3.7-12.4h17.7
			C242.7,221.5,246,224.7,251.4,224.7z M258.5,177.1c-1.9-2.1-4.7-3.2-8.4-3.2c-3.3,0-5.9,0.9-7.8,2.8c-1.9,1.8-2.8,4.5-2.8,8.1
			s1,6.2,2.9,8.1c1.9,1.9,4.5,2.8,7.9,2.8c3.2,0,5.8-0.9,8-2.7c2.1-1.8,3.2-4.4,3.2-7.7C261.4,181.9,260.4,179.2,258.5,177.1z"/>
	</g>
	<g>
		<path fill="#FFFFFF" d="M190.9,368.8c-0.4,2.9-1.7,5.2-4,7c-2.3,1.8-5.6,2.7-9.8,2.7c-4.3,0-8.3-0.9-12-2.7
			c-3.7-1.8-6.9-4.1-9.5-7c-2.6-2.9-4.6-6-5.9-9.3c-1.4-3.6-1.9-6.7-1.6-9.2c0.4-2.5,1.6-4.5,3.6-5.8c-7.5-3.4-12.9-9.2-16.1-17.3
			c-1.8-4.6-2.4-8.6-1.9-11.9c0.6-3.3,2.1-5.8,4.6-7.5s5.8-2.6,9.8-2.6c4,0,7.9,0.9,11.8,2.6c3.9,1.7,7.4,4.2,10.6,7.5
			c3.2,3.3,5.7,7.3,7.5,11.9c3.2,8.1,2.4,13.8-2.5,17.3c3.1,1.3,5.9,3.3,8.2,5.8c2.4,2.5,4.2,5.6,5.6,9.2
			C190.8,362.9,191.3,366,190.9,368.8z M160.7,321.4c-2.1-1.7-4.5-2.5-7-2.5c-2.5,0-4.2,0.8-5.1,2.5c-0.8,1.7-0.7,4,0.5,6.8
			c1.1,2.9,2.8,5.2,5,6.8c2.2,1.6,4.5,2.5,6.9,2.5c2.4,0,4.1-0.8,5-2.5c0.9-1.6,0.8-3.9-0.4-6.8
			C164.4,325.4,162.8,323.1,160.7,321.4z M171.1,350.8c-1.8-1.4-3.7-2.1-5.8-2.1c-2.1,0-3.5,0.7-4.1,2.1c-0.7,1.4-0.5,3.4,0.5,6
			c1,2.6,2.4,4.6,4.3,6.1c1.8,1.5,3.8,2.2,5.8,2.2c2,0,3.4-0.7,4-2.2c0.7-1.5,0.5-3.5-0.5-6.1C174.3,354.2,172.9,352.2,171.1,350.8z
			"/>
	</g>
	<g>
		<path fill="#FFFFFF" d="M366.6,358.8l-3.8,15.4h-22.3l17-68.2h14l-13.2,52.7H366.6z"/>
		<path fill="#FFFFFF" d="M340.9,340.9c-2.6,10.6-6.5,19-11.5,25.2c-5,6.2-11.4,9.3-19,9.3c-7.6,0-12.4-3.1-14.3-9.3
			c-2-6.2-1.6-14.6,1-25.2c2.7-10.7,6.5-19.1,11.6-25.4c5.1-6.2,11.4-9.4,19-9.4c7.6,0,12.4,3.1,14.4,9.4
			C343.9,321.8,343.6,330.2,340.9,340.9z M310.3,340.9c-1.5,6.1-2.1,10.8-1.7,14c0.4,3.2,2.3,4.9,5.7,4.9c3.5,0,6.2-1.6,8.2-4.9
			c2-3.3,3.8-7.9,5.3-14c1.5-6.1,2.1-10.8,1.7-14.1c-0.4-3.3-2.3-5-5.8-5c-3.4,0-6.1,1.7-8.1,5C313.6,330.1,311.8,334.8,310.3,340.9
			z"/>
	</g>
	<g>
		<path fill="#FFFFFF" d="M154.9,161.6c0.5,3,0.3,6.2-0.8,9.4c-1.1,3.2-2.8,6.3-5.2,9.2c-3,3.6-5.9,6-8.8,7c-2.9,1.1-5.4,1-7.5-0.1
			l-0.3,0.4c2.3,6.7,0.8,13.4-4.7,20c-2.6,3.2-5.4,5.6-8.3,7.2c-2.9,1.6-5.8,2.2-8.5,1.9c-2.8-0.3-5.3-1.7-7.7-4.1
			c-3.8-3.9-5.5-8.6-5.1-14c0.4-5.4,3.1-11.5,8.2-18.1l7.7,8c-2,2.5-3.1,4.9-3.6,7.1c-0.4,2.2,0.1,4,1.5,5.5
			c1.1,1.2,2.5,1.5,4.1,1.1c1.6-0.5,3.2-1.6,4.7-3.4c3.7-4.6,3.7-8.9-0.2-12.9l-1.5-1.5l9-10.9l1.4,1.5c3.4,3.7,6.9,3.4,10.5-0.9
			c1.5-1.9,2.4-3.7,2.7-5.3c0.2-1.6-0.2-3-1.2-4.1c-1.1-1.2-2.5-1.4-4.2-0.8c-1.7,0.6-3.5,1.9-5.3,4l-7.7-8c5-5.7,9.8-9.1,14.3-10.1
			c4.6-1.1,8.7,0.3,12.3,4C153,155.8,154.4,158.5,154.9,161.6z"/>
	</g>
	<g>
		<path fill="#FFFFFF" d="M379.2,157.6l-19.8,13.8l8.7,9.4c-0.1-1.7,0.4-3.3,1.4-5c1-1.7,2.4-3.2,4.3-4.4c2.9-2.1,6.1-3.1,9.3-3.1
			c3.3,0,6.4,0.8,9.5,2.5c3.1,1.7,5.9,3.9,8.5,6.7c4.7,5.1,7,10.1,7.1,14.9c0,4.9-2.4,9-7.3,12.4c-3.3,2.3-6.8,3.7-10.4,4.2
			c-3.6,0.5-7.1,0-10.5-1.3c-3.4-1.3-6.5-3.4-9.3-6.3l10.4-7.3c1.6,1.4,3.3,2.2,5.1,2.5c1.8,0.3,3.5-0.1,5.2-1.2
			c1.9-1.3,2.7-2.9,2.5-4.9c-0.2-1.9-1.3-3.9-3.3-6.1c-1.9-2-3.8-3.2-5.8-3.6c-2-0.4-3.9,0-5.7,1.3c-1.4,1-2.2,2.1-2.5,3.4
			c-0.3,1.3-0.2,2.5,0.4,3.8l-10.3,7.2l-25.9-28.2l29.5-20.6L379.2,157.6z"/>
	</g>
	<path fill="#FFFFFF" d="M277.7,261h-53.1c-2.1,0-3.9-1.7-3.9-3.7v-4.5c0-2,1.7-3.7,3.9-3.7h53.1c2.1,0,3.9,1.7,3.9,3.7v4.5
		C281.6,259.4,279.9,261,277.7,261z"/>
</g>
<g id="fface_8" display="none">
	<g display="inline">
		<path fill="#FFFFFF" d="M225.8,167.8c2.1-3.3,5.3-6,9.6-8.1c4.2-2.1,9.4-3.1,15.4-3.1c6.1,0,11.3,1,15.5,3.1
			c4.2,2.1,7.4,4.8,9.5,8.1c2.1,3.3,3.2,6.9,3.2,10.6c0,4.1-1,7.7-2.9,10.6c-1.9,2.9-4.7,5.1-8.4,6.7c8.8,3.9,13.2,10.5,13.2,19.8
			c0,5.3-1.3,9.9-4,13.7c-2.7,3.8-6.2,6.7-10.8,8.6s-9.6,2.9-15.3,2.9c-5.6,0-10.7-1-15.3-2.9c-4.6-2-8.2-4.8-10.8-8.6
			c-2.7-3.8-4-8.4-4-13.7c0-9.3,4.4-15.9,13.2-19.8c-3.7-1.5-6.5-3.8-8.4-6.7c-1.9-2.9-2.9-6.4-2.9-10.6
			C222.6,174.7,223.6,171.2,225.8,167.8z M242.2,222.3c2.1,1.9,5,2.9,8.6,2.9c3.6,0,6.5-1,8.6-2.9c2.1-1.9,3.2-4.5,3.2-7.9
			s-1.1-5.9-3.3-7.8c-2.2-1.9-5-2.8-8.5-2.8c-3.5,0-6.3,0.9-8.5,2.8c-2.2,1.9-3.3,4.5-3.3,7.8S240.1,220.3,242.2,222.3z
			 M243.7,188.6c1.7,1.6,4.1,2.4,7,2.4c2.9,0,5.3-0.8,7-2.4c1.7-1.6,2.6-3.9,2.6-6.9c0-2.9-0.9-5.3-2.7-7c-1.8-1.7-4.1-2.5-7-2.5
			c-2.9,0-5.2,0.8-7,2.5c-1.8,1.7-2.7,4-2.7,7C241.1,184.7,242,187,243.7,188.6z"/>
	</g>
	<g display="inline">
		<path fill="#FFFFFF" d="M153.3,319.3c-3,0-4.5,1.7-4.3,5.1c0.1,3.4,1.6,8.7,4.6,15.9c-0.2-2.6,0.6-4.7,2.1-6.2
			c1.6-1.5,3.8-2.3,6.6-2.3c5.2,0,10.1,1.9,14.6,5.8c4.5,3.9,8.2,9.5,11.1,16.7c1.8,4.6,2.6,8.6,2.5,12.1c-0.1,3.5-1.3,6.3-3.4,8.2
			c-2.2,2-5.3,2.9-9.4,2.9c-5.6,0-10.5-1.4-14.7-4.3s-8-6.8-11.1-11.8c-3.2-5-6.1-11-8.9-18c-4.9-12.3-7-21.7-6.4-28
			c0.6-6.3,4.4-9.5,11.6-9.5c4,0,7.7,1,11.3,2.9c3.6,2,6.8,4.6,9.6,7.9c2.8,3.3,5.1,6.9,6.9,10.8h-12.5
			C160.6,322.1,157.2,319.3,153.3,319.3z M164.6,360.8c2.1,1.8,4.4,2.7,7,2.7c2.3,0,3.9-0.8,4.6-2.4c0.7-1.6,0.4-4-0.8-7
			c-1.2-3.1-2.8-5.4-4.8-7.1c-2-1.6-4.2-2.5-6.5-2.5c-2.2,0-3.8,0.8-4.7,2.4c-0.9,1.6-0.8,3.8,0.4,6.7
			C161,356.6,162.6,359,164.6,360.8z"/>
	</g>
	<g display="inline">
		<path fill="#FFFFFF" d="M319.6,374.8c-2.3-1.6-3.9-3.9-4.6-6.7c-0.7-2.9-0.6-6.1,0.3-9.7c1.1-4.4,2.9-8,5.4-10.7
			c2.5-2.7,5.2-4.4,8.2-5.1l0.1-0.5c-6.4-2.8-8.6-8.3-6.6-16.5c1-3.9,2.6-7.4,4.8-10.5c2.2-3.1,4.9-5.4,8.1-7.1
			c3.2-1.7,6.8-2.6,10.7-2.6c6.3,0,10.9,1.9,13.6,5.8c2.8,3.9,3.3,9.7,1.6,17.6h-13c0.7-3,0.6-5.4-0.2-7.1c-0.8-1.7-2.4-2.6-4.8-2.6
			c-1.9,0-3.6,0.7-5.1,2.1c-1.5,1.4-2.5,3.2-3,5.5c-1.4,5.6,1.2,8.4,7.7,8.4h2.5l-3.3,13.4h-2.4c-5.8-0.1-9.4,2.5-10.8,7.8
			c-0.6,2.3-0.5,4.1,0.2,5.4c0.7,1.3,1.9,1.9,3.6,1.9c1.9,0,3.6-0.8,5-2.4c1.5-1.6,2.6-3.7,3.4-6.3h13c-2.1,7.2-5.3,12.7-9.6,16.6
			c-4.3,3.9-9.6,5.8-15.6,5.8C325.1,377.2,322,376.4,319.6,374.8z"/>
	</g>
	<g display="inline">
		<path fill="#FFFFFF" d="M125.2,147.2l10.2-12.6l8.9,10.9l-45.2,55.9l-5.6-6.9l34.9-43.2L125.2,147.2z"/>
		<path fill="#FFFFFF" d="M125.4,176.6c7-8.7,13.3-14.7,18.8-18.1c5.5-3.4,9.8-3.2,12.9,0.5c3,3.7,3.2,9,0.5,15.8
			c-2.7,6.8-7.6,14.5-14.6,23.2c-7.1,8.7-13.4,14.8-18.9,18.2c-5.5,3.4-9.8,3.2-12.9-0.5c-3.1-3.7-3.2-9-0.5-15.8
			C113.4,193.1,118.3,185.3,125.4,176.6z M137.7,191.5c4-5,6.9-9.1,8.6-12.4c1.7-3.2,1.8-5.7,0.5-7.4c-1.4-1.7-3.4-1.5-6.1,0.6
			c-2.7,2.1-6,5.6-10,10.6c-4,5-6.9,9.2-8.6,12.5c-1.7,3.3-1.9,5.8-0.5,7.5c1.4,1.7,3.4,1.4,6.1-0.7
			C130.3,200.1,133.6,196.5,137.7,191.5z"/>
	</g>
	<g display="inline">
		<path fill="#FFFFFF" d="M373.1,170.2c-3.3-3.6-6.4-4.4-9.4-2.3c-1.7,1.2-2.3,2.6-2,4.4c0.4,1.8,1.7,4,4,6.6l-10.4,7.3
			c-5-5.8-7.2-11.2-6.9-16.2c0.4-4.9,2.8-9,7.4-12.2c4.8-3.3,9.6-4.6,14.3-3.7s9,3.3,12.8,7.4c4.2,4.5,6.6,10.1,7.3,16.7
			c0.7,6.6,0.1,13-1.7,19.2l17.4-12.1l8.3,9.1l-31.4,21.9l-7.7-8.4C379.1,188.7,378.5,176.1,373.1,170.2z"/>
	</g>
	<path display="inline" fill="#FFFFFF" d="M167.6,301.8h-44.3c-1.5,0-3.1-1.4-3.5-3.2l-0.8-3.2c-0.4-1.7,0.4-3.2,1.9-3.2h44.3
		c1.5,0,3.1,1.4,3.5,3.2l0.8,3.2C169.9,300.4,169.1,301.8,167.6,301.8z"/>
</g>
<g id="face_7" display="none">
	<g display="inline">
		<path fill="#FFFFFF" d="M277,174.1l-28,64.9h-19.6l28.3-62.7h-33.2v-16.3H277V174.1z"/>
	</g>
	<g display="inline">
		<path fill="#FFFFFF" d="M176.5,319.3l5.4,13.8l-8.4,42.7h-14.4l-16.6-42.1H136l-5.6-14.4h6.6l-4.9-12.5h13.5l4.9,12.5H176.5z
			 M164.1,356.7l4.5-23H155L164.1,356.7z"/>
	</g>
	<g display="inline">
		<path fill="#FFFFFF" d="M328.2,361.7c0.7,1.4,2.1,2.1,4,2.1c3,0,5.6-1.7,7.7-5.2c2.1-3.4,4-8.7,5.7-15.9c-1.5,2.6-3.6,4.7-6.1,6.2
			c-2.5,1.5-5.2,2.3-8.1,2.3c-5.2,0-8.8-1.9-10.9-5.8c-2-3.9-2.2-9.5-0.4-16.7c1.1-4.6,2.9-8.6,5.3-12.1c2.4-3.5,5.3-6.3,8.7-8.2
			c3.4-2,7.2-2.9,11.3-2.9c8.1,0,12.9,3.1,14.4,9.3c1.5,6.2,0.9,14.7-1.8,25.6c-3.1,12.6-7.1,21.9-11.9,27.8
			c-4.8,5.9-10.8,8.9-18.2,8.9c-5.8,0-9.7-2-11.7-6.1s-2.4-9.2-1.2-15.5h12.5C327.3,358.2,327.5,360.3,328.2,361.7z M347.7,322.3
			c-0.9-1.8-2.6-2.7-5.2-2.7c-2.3,0-4.4,0.8-6.1,2.4s-3,4-3.7,7c-0.8,3.1-0.7,5.4,0.3,7.1c0.9,1.6,2.6,2.5,4.9,2.5
			c2.2,0,4.3-0.8,6.2-2.4c1.9-1.6,3.2-3.8,3.9-6.7C348.7,326.5,348.6,324.1,347.7,322.3z"/>
	</g>
	<g display="inline">
		<path fill="#FFFFFF" d="M150.9,178l-14.7-15.3L127,174c1.7-0.6,3.4-0.6,5.1-0.1c1.7,0.5,3.3,1.5,4.6,2.9c2.2,2.3,3.4,5,3.5,8.2
			c0.1,3.2-0.6,6.5-2.2,10.1c-1.6,3.5-3.7,6.9-6.5,10.3c-5,6.1-9.9,9.8-14.8,11.3c-4.9,1.4-9.2,0.3-12.8-3.5c-2.5-2.6-4-5.5-4.6-8.9
			c-0.6-3.4-0.3-6.9,0.9-10.6c1.2-3.7,3.2-7.3,6-10.9l7.7,8c-1.3,1.9-2.1,3.9-2.3,5.7c-0.3,1.9,0.2,3.4,1.4,4.7c1.4,1.4,3.1,1.8,5,1
			c1.9-0.8,3.9-2.5,6-5c2-2.4,3.1-4.7,3.5-6.7c0.3-2.1-0.2-3.8-1.5-5.2c-1-1.1-2.2-1.6-3.5-1.5c-1.3,0.1-2.6,0.6-3.8,1.5l-7.7-8
			l27.6-33.6l21.9,22.8L150.9,178z"/>
	</g>
	<g display="inline">
		<path fill="#FFFFFF" d="M355.3,177.2l-9.7-10.6l17.8-12.4l42.8,46.6l-11.2,7.8l-33.1-36.1L355.3,177.2z"/>
	</g>
	<path display="inline" fill="#FFFFFF" d="M323.3,301.8h44.3c1.5,0,3.1-1.4,3.5-3.2l0.8-3.2c0.4-1.7-0.4-3.2-1.9-3.2h-44.3
		c-1.5,0-3.1,1.4-3.5,3.2l-0.8,3.2C320.9,300.4,321.8,301.8,323.3,301.8z"/>
</g>
<g id="face_6" display="none">
	<g display="inline">
		<path fill="#FFFFFF" d="M257.3,175.3c-1.5-1.6-3.7-2.4-6.5-2.4c-4.3,0-7.3,2-9.1,5.9c-1.8,3.9-2.6,10-2.5,18.2
			c1.3-3,3.4-5.4,6.5-7.1c3.1-1.7,6.6-2.6,10.7-2.6c7.4,0,13.2,2.2,17.5,6.7c4.3,4.5,6.4,10.9,6.4,19.2c0,5.2-1.1,9.9-3.2,13.9
			c-2.1,4.1-5.3,7.2-9.5,9.5c-4.2,2.3-9.2,3.4-15,3.4c-11.4,0-19.3-3.5-23.7-10.6c-4.4-7.1-6.5-16.9-6.5-29.4
			c0-14.5,2.3-25.1,7-31.9c4.6-6.8,12.2-10.2,22.7-10.2c8.3,0,14.5,2.3,18.8,7c4.3,4.7,6.7,10.6,7.2,17.8h-17.7
			C259.8,179.3,258.8,176.9,257.3,175.3z M243.5,220.4c1.9,2.1,4.7,3.2,8.4,3.2c3.3,0,5.9-0.9,7.8-2.8c1.9-1.8,2.8-4.5,2.8-8.1
			c0-3.5-1-6.2-2.9-8.1c-1.9-1.9-4.5-2.8-7.9-2.8c-3.2,0-5.8,0.9-8,2.7c-2.1,1.8-3.2,4.4-3.2,7.7
			C240.6,215.6,241.6,218.3,243.5,220.4z"/>
	</g>
	<g display="inline">
		<path fill="#FFFFFF" d="M182.6,359.5l6.1,15.4h-22.3l-26.8-68.2h14l20.7,52.7H182.6z"/>
	</g>
	<g display="inline">
		<path fill="#FFFFFF" d="M314,362.7l33.9-56.6h13.8l-33.6,54.7h23.4l-3.5,14.2h-37L314,362.7z"/>
	</g>
	<g display="inline">
		<path fill="#FFFFFF" d="M139.1,175.7c3.5-4.3,4.2-7.6,2-9.9c-1.2-1.3-2.7-1.5-4.5-0.6c-1.8,0.9-4,2.8-6.6,5.9l-7.7-8
			c5.7-6.6,11.1-10.4,16.1-11.5c5-1.1,9.2,0.1,12.6,3.7c3.5,3.7,5,8,4.3,12.9c-0.7,4.9-3,9.8-7,14.7c-4.4,5.4-10,9.4-16.7,12
			c-6.7,2.6-13.2,4-19.5,4l12.9,13.4l-8.9,10.8l-23.3-24.3l8.3-10.1C120.7,187.1,133.4,182.7,139.1,175.7z"/>
	</g>
	<g display="inline">
		<path fill="#FFFFFF" d="M372.8,210.2l-8.7-9.4l-6.7-43.3l11.5-8l26.4,28.8l5.3-3.7l9,9.8l-5.3,3.7l7.9,8.6l-10.8,7.5l-7.9-8.6
			L372.8,210.2z M371,169.4l3.6,23.3l10.8-7.6L371,169.4z"/>
	</g>
	<path display="inline" fill="#FFFFFF" d="M277.7,261h-53.1c-2.1,0-3.9-1.7-3.9-3.7v-4.5c0-2,1.7-3.7,3.9-3.7h53.1
		c2.1,0,3.9,1.7,3.9,3.7v4.5C281.6,259.4,279.9,261,277.7,261z"/>
</g>
<g id="face_5" display="none">
	<g display="inline">
		<path fill="#FFFFFF" d="M277.6,175.6h-35.2v15.8c1.5-1.8,3.7-3.2,6.5-4.1c2.8-1,5.8-1.5,9-1.5c5.2,0,9.6,1.2,13.2,3.5
			c3.5,2.3,6.2,5.4,7.9,9.3c1.7,3.9,2.5,8.2,2.5,12.9c0,8.6-2.4,15.3-7.2,20.3s-11.5,7.5-20.2,7.5c-5.9,0-11-1.1-15.4-3.2
			c-4.4-2.1-7.7-5-10.1-8.8c-2.4-3.8-3.6-8.1-3.8-13.1h18.5c0.4,2.5,1.4,4.6,3,6.2c1.7,1.6,3.9,2.4,6.8,2.4c3.3,0,5.8-1.1,7.5-3.2
			c1.7-2.1,2.5-5,2.5-8.5c0-3.4-0.9-6-2.7-7.9c-1.8-1.8-4.2-2.8-7.4-2.8c-2.4,0-4.5,0.5-6.1,1.6c-1.6,1.1-2.7,2.5-3.3,4.1h-18.4V159
			h52.3V175.6z"/>
	</g>
	<g display="inline">
		<path fill="#FFFFFF" d="M207.7,359.5l6.1,15.4h-22.3l-26.8-68.2h14l20.7,52.7H207.7z"/>
		<path fill="#FFFFFF" d="M170.5,341.6c4.2,10.6,5.7,19,4.7,25.2c-1,6.2-5.4,9.3-13,9.3c-7.6,0-14.4-3.1-20.3-9.3
			c-5.9-6.2-11-14.6-15.2-25.2c-4.2-10.7-5.8-19.1-4.7-25.4c1.1-6.2,5.4-9.4,13-9.4c7.6,0,14.4,3.1,20.4,9.4
			C161.2,322.4,166.3,330.9,170.5,341.6z M139.9,341.6c2.4,6.1,4.8,10.8,7.3,14c2.4,3.2,5.4,4.9,8.8,4.9c3.5,0,5.2-1.6,5.1-4.9
			c-0.1-3.3-1.3-7.9-3.7-14c-2.4-6.1-4.8-10.8-7.3-14.1c-2.5-3.3-5.5-5-9-5c-3.4,0-5.1,1.7-5,5C136.2,330.8,137.5,335.5,139.9,341.6
			z"/>
	</g>
	<g display="inline">
		<path fill="#FFFFFF" d="M366.3,318.6l-3.4,13.8L327,375.1h-14.4l10.5-42.1h-6.6l3.6-14.4h6.6l3.1-12.5h13.5l-3.1,12.5H366.3z
			 M329.8,356l19.3-23h-13.6L329.8,356z"/>
	</g>
	<g display="inline">
		<path fill="#FFFFFF" d="M111.7,201.5c1.8,1.9,4.2,1.8,7.2-0.2c3-2,6.9-6,11.6-11.9c-2.3,1.6-4.6,2.4-6.9,2.3c-2.3-0.1-4.3-1-6-2.8
			c-3.1-3.2-4.2-7.3-3.4-12.4c0.8-5,3.6-10.5,8.5-16.4c3.1-3.7,6.2-6.6,9.5-8.5c3.3-2,6.4-2.8,9.5-2.6c3.1,0.2,5.8,1.6,8.2,4.1
			c3.3,3.4,4.9,7.3,4.8,11.6s-1.4,8.8-4.1,13.6c-2.6,4.8-6.3,10.1-11,15.8c-8.3,10.1-15.4,16.7-21.5,20c-6,3.3-11.2,2.7-15.5-1.7
			c-2.3-2.4-3.7-5.3-4.1-8.7c-0.4-3.3,0.1-6.8,1.4-10.4c1.3-3.6,3.2-7.1,5.7-10.4l7.4,7.7C109.9,195.4,109.4,199.1,111.7,201.5z
			 M142.4,170.8c0.4-2.3-0.1-4.3-1.7-5.9c-1.4-1.4-3-1.9-4.9-1.4c-1.9,0.5-3.8,2-5.9,4.5c-2.1,2.5-3.2,4.9-3.5,7
			c-0.3,2.2,0.3,4,1.6,5.4c1.3,1.4,3,1.9,4.9,1.5c1.9-0.4,3.9-1.7,5.8-4.1C140.8,175.5,142,173.1,142.4,170.8z"/>
	</g>
	<g display="inline">
		<path fill="#FFFFFF" d="M378.1,157l19.8,49.7l-11,7.7l-18.4-48.5l-18.7,13.1l-8.9-9.7l29.5-20.6L378.1,157z"/>
	</g>
	<path display="inline" fill="#FFFFFF" d="M119.5,241.9l-34.9-27.3c-1.2-0.9-1.5-3-0.8-4.7l1.3-3.1c0.7-1.7,2.3-2.2,3.4-1.3
		l34.9,27.3c1.2,0.9,1.5,3,0.8,4.7l-1.3,3.1C122.2,242.2,120.7,242.8,119.5,241.9z"/>
</g>
<g id="face_4" display="none">
	<g display="inline">
		<path fill="#FFFFFF" d="M212.5,224.7v-15.8l35.7-49h20.4v48.3h9.4v16.5h-9.4v14.4h-19.1v-14.4H212.5z M251,181.8l-19.2,26.4H251
			V181.8z"/>
	</g>
	<g display="inline">
		<path fill="#FFFFFF" d="M152.6,363.4l-2.5-56.6h13.8l1.5,54.7h23.4l5.6,14.2h-37L152.6,363.4z"/>
	</g>
	<g display="inline">
		<path fill="#FFFFFF" d="M313.9,361.4h24.8l3.4-13.8c-1.5,1.5-3.3,2.7-5.5,3.6c-2.2,0.9-4.4,1.3-6.7,1.3c-3.7,0-6.5-1-8.5-3
			c-2-2-3.2-4.7-3.5-8.1c-0.3-3.4,0-7.2,1-11.3c1.9-7.5,5-13.4,9.5-17.7c4.5-4.3,9.8-6.5,15.9-6.5c4.2,0,7.5,0.9,10.2,2.7
			c2.6,1.8,4.3,4.4,5.2,7.7c0.8,3.3,0.8,7.1-0.2,11.4h-13c0.3-2.2,0-4-0.8-5.4c-0.8-1.4-2.2-2.1-4.3-2.1c-2.3,0-4.3,0.9-6,2.8
			c-1.6,1.9-2.8,4.3-3.6,7.4c-0.7,3-0.7,5.2,0.2,6.8s2.4,2.4,4.6,2.4c1.7,0,3.3-0.5,4.6-1.4c1.4-0.9,2.5-2.1,3.2-3.6h12.9
			l-10.3,41.3h-36.9L313.9,361.4z"/>
	</g>
	<g display="inline">
		<path fill="#FFFFFF" d="M143.2,168.9c0.3-1.8-0.1-3.3-1.3-4.5c-1.8-1.9-4.2-1.8-7.3,0.2c-3.1,2-6.9,6-11.7,11.8
			c2.3-1.6,4.6-2.4,6.9-2.3c2.3,0.1,4.3,1,6,2.8c3.1,3.2,4.2,7.3,3.4,12.4c-0.8,5-3.6,10.5-8.5,16.4c-3.1,3.7-6.2,6.6-9.5,8.5
			c-3.3,1.9-6.4,2.8-9.5,2.6c-3.1-0.2-5.8-1.6-8.2-4.1c-4.8-5-6-10.9-3.7-17.8c2.3-6.9,7.1-14.8,14.4-23.7
			c8.4-10.3,15.6-16.8,21.5-19.6c5.9-2.8,11.1-2,15.5,2.6c3.5,3.6,4.7,8,3.8,13.2c-0.9,5.2-3.4,10.4-7.3,15.7l-7.4-7.7
			C141.9,172.9,142.8,170.7,143.2,168.9z M111,195c-0.4,2.3,0.1,4.3,1.7,5.9c1.4,1.4,3,1.9,4.9,1.4c1.9-0.5,3.8-2,5.9-4.5
			c2.1-2.5,3.2-4.9,3.5-7c0.3-2.2-0.3-4-1.6-5.4c-1.3-1.4-3-1.9-4.9-1.5c-2,0.4-3.9,1.7-5.8,4.1C112.7,190.3,111.5,192.7,111,195z"
			/>
	</g>
	<g display="inline">
		<path fill="#FFFFFF" d="M343.6,184.4l-9.9-10.3l13.8-8.1l43.7,45.6l-8.7,5.1l-33.8-35.3L343.6,184.4z"/>
		<path fill="#FFFFFF" d="M373.8,185.4c-6.8-7.1-11.1-13.4-12.9-18.8c-1.8-5.4-0.4-9.5,4.4-12.3c4.7-2.8,10.1-2.7,16.3,0.2
			c6.1,2.9,12.6,7.9,19.4,15c6.8,7.1,11.2,13.4,13,18.9s0.4,9.6-4.3,12.3c-4.7,2.8-10.2,2.7-16.3-0.2
			C387.1,197.6,380.6,192.6,373.8,185.4z M392.7,174.3c-3.9-4.1-7.3-7-10.1-8.7c-2.8-1.7-5.3-2-7.4-0.7c-2.2,1.3-2.5,3.2-1.2,5.8
			c1.4,2.6,4,6,7.9,10c3.9,4.1,7.3,7,10.2,8.8c2.9,1.8,5.4,2,7.5,0.8c2.1-1.3,2.5-3.2,1.1-5.8C399.2,181.8,396.6,178.4,392.7,174.3z
			"/>
	</g>
	<path display="inline" fill="#FFFFFF" d="M119.5,241.9l-34.9-27.3c-1.2-0.9-1.5-3-0.8-4.7l1.3-3.1c0.7-1.7,2.3-2.2,3.4-1.3
		l34.9,27.3c1.2,0.9,1.5,3,0.8,4.7l-1.3,3.1C122.2,242.2,120.7,242.8,119.5,241.9z"/>
</g>
<g id="face_3" display="none">
	<g display="inline">
		<path fill="#FFFFFF" d="M264.8,160.3c3.9,1.9,6.9,4.5,8.9,7.7c2,3.3,3,7,3,11.1c0,5.1-1.3,9.2-3.9,12.3c-2.6,3.1-5.9,5.1-9.8,5.9
			v0.6c10.1,3.2,15.2,9.5,15.2,18.9c0,4.5-1,8.5-3.1,12c-2.1,3.5-5.1,6.2-9,8.2c-3.9,2-8.7,2.9-14.2,2.9c-9,0-16.1-2.2-21.4-6.6
			c-5.3-4.4-8.1-11.2-8.6-20.2h18.5c0.1,3.5,1.1,6.2,2.9,8.2c1.8,2,4.3,3,7.7,3c2.7,0,4.9-0.8,6.5-2.4c1.6-1.6,2.4-3.7,2.4-6.3
			c0-6.4-4.6-9.6-13.9-9.6h-3.5v-15.4h3.4c8.3,0.1,12.5-2.8,12.5-9c0-2.7-0.7-4.7-2.2-6.1c-1.4-1.4-3.4-2.2-5.8-2.2
			c-2.7,0-4.8,0.9-6.3,2.7c-1.5,1.8-2.4,4.2-2.7,7.2h-18.5c0.4-8.3,2.9-14.6,7.7-19c4.8-4.4,11.5-6.6,20.1-6.6
			C256.2,157.4,260.9,158.4,264.8,160.3z"/>
	</g>
	<g display="inline">
		<path fill="#FFFFFF" d="M162.3,354.7c2.1,5.3,5,7.9,8.6,7.9c2.1,0,3.2-0.9,3.5-2.7c0.3-1.8-0.3-4.6-1.7-8.4h13
			c2.9,8.3,3.4,14.5,1.3,18.7c-2.1,4.2-6,6.3-11.7,6.3c-6,0-11.2-1.9-15.7-5.6c-4.5-3.7-7.9-8.6-10.3-14.6
			c-2.6-6.6-3.1-13.1-1.5-19.4c1.6-6.3,4.4-11.7,8.4-16.1h-21.8l-5.2-13.3h39.3l4.9,12.3C162.6,334.5,158.9,346.1,162.3,354.7z"/>
	</g>
	<g display="inline">
		<path fill="#FFFFFF" d="M348.8,368.2c-2.2,2.9-5.1,5.2-8.5,7c-3.4,1.8-7.3,2.7-11.6,2.7c-4.3,0-7.7-0.9-10.3-2.7
			c-2.5-1.8-4.2-4.1-5-7c-0.8-2.9-0.7-6,0.1-9.3c0.9-3.6,2.3-6.7,4.3-9.2c2-2.5,4.4-4.5,7.4-5.8c-5.3-3.4-7-9.2-5-17.3
			c1.2-4.6,3.1-8.6,5.8-11.9c2.7-3.3,5.9-5.8,9.5-7.5c3.6-1.7,7.4-2.6,11.4-2.6c4,0,7.3,0.9,10.1,2.6c2.8,1.7,4.7,4.2,5.8,7.5
			c1,3.3,1,7.3-0.2,11.9c-2,8.1-6.5,13.8-13.6,17.3c2.3,1.3,3.8,3.3,4.5,5.8c0.7,2.5,0.6,5.6-0.3,9.2
			C352.5,362.2,351,365.3,348.8,368.2z M340.6,350.1c-0.9-1.4-2.4-2.1-4.4-2.1c-2.1,0-3.9,0.7-5.5,2.1c-1.6,1.4-2.7,3.4-3.3,6
			c-0.6,2.6-0.5,4.6,0.4,6.1c0.9,1.5,2.3,2.2,4.4,2.2c2,0,3.9-0.7,5.5-2.2c1.6-1.5,2.7-3.5,3.4-6.1
			C341.6,353.5,341.5,351.5,340.6,350.1z M349,320.7c-1.1-1.7-2.9-2.5-5.4-2.5c-2.5,0-4.8,0.8-6.7,2.5c-1.9,1.7-3.2,4-3.9,6.8
			c-0.7,2.9-0.5,5.2,0.6,6.8c1.1,1.6,2.9,2.5,5.4,2.5c2.4,0,4.6-0.8,6.6-2.5c1.9-1.6,3.3-3.9,4-6.8
			C350.3,324.7,350.1,322.4,349,320.7z"/>
	</g>
	<g display="inline">
		<path fill="#FFFFFF" d="M130.6,160.4l10.3-12.6l13.2,13.8l-45.6,55.6l-8.3-8.7l35.3-43L130.6,160.4z"/>
	</g>
	<g display="inline">
		<path fill="#FFFFFF" d="M391.3,197.2c2.4-1.7,3-4,1.9-7c-1.2-3-4-7-8.6-11.8c0.9,2.3,1,4.6,0.3,6.8c-0.8,2.2-2.3,4.2-4.6,5.8
			c-4.2,2.9-8.7,3.9-13.5,2.9c-4.8-1-9.6-3.9-14.1-8.9c-2.9-3.1-4.8-6.3-5.8-9.6c-1-3.3-1-6.4,0.2-9.4c1.1-3,3.3-5.6,6.6-7.9
			c4.4-3.1,8.8-4.5,13.1-4.3s8.5,1.7,12.6,4.5c4.1,2.7,8.3,6.5,12.7,11.3c7.7,8.4,12.4,15.7,13.9,21.7c1.5,6-0.6,11-6.3,15
			c-3.2,2.2-6.5,3.4-10,3.7c-3.5,0.2-6.9-0.3-10.2-1.7c-3.3-1.4-6.2-3.4-8.9-5.9l10-7C384.7,198.7,388.2,199.4,391.3,197.2z
			 M369.2,166c-2.2-0.5-4.4,0-6.5,1.4c-1.9,1.3-2.8,2.9-2.9,4.7c-0.1,1.8,0.9,3.8,2.8,5.9c1.9,2.1,4,3.4,6.1,3.7
			c2.1,0.4,4.1-0.1,6-1.4c1.8-1.2,2.8-2.8,3-4.8c0.2-1.9-0.6-3.9-2.4-5.8C373.5,167.8,371.5,166.5,369.2,166z"/>
	</g>
	<path display="inline" fill="#FFFFFF" d="M394.9,236.8l30.1-27.3c1-0.9,1-3,0-4.7l-1.9-3.1c-1-1.7-2.7-2.2-3.7-1.3l-30.1,27.3
		c-1,0.9-1,3,0,4.7l1.9,3.1C392.2,237.1,393.9,237.7,394.9,236.8z"/>
</g>
<g id="face_2" display="none">
	<g display="inline">
		<path fill="#FFFFFF" d="M258.4,184.1c0-6-2.6-9.1-7.9-9.1c-2.9,0-5.1,1-6.5,3.1c-1.4,2.1-2.1,5.3-2.3,9.6h-18.5
			c0.4-9.5,3.3-16.7,8.6-21.5c5.3-4.8,12-7.2,20.1-7.2c8.5,0,14.9,2.1,19.2,6.4c4.3,4.3,6.5,9.8,6.5,16.7c0,7.6-2.9,15-8.7,22.3
			c-5.8,7.3-12.8,13.4-20.9,18.4H279v15.3h-55.7V224C246.7,207.3,258.4,194,258.4,184.1z"/>
	</g>
	<g display="inline">
		<path fill="#FFFFFF" d="M166,375.5c-3.4-1.6-6.4-3.9-8.9-6.7c-2.6-2.9-4.5-6.1-6-9.7c-1.7-4.4-2.2-8-1.4-10.7
			c0.8-2.7,2.4-4.4,4.9-5.1l-0.2-0.5c-8.2-2.8-14-8.3-17.2-16.5c-1.5-3.9-2.2-7.4-1.9-10.5c0.3-3.1,1.4-5.4,3.6-7.1
			c2.1-1.7,5.1-2.6,9-2.6c6.3,0,12.1,1.9,17.4,5.8c5.2,3.9,9.6,9.7,13,17.6h-13c-1.3-3-2.9-5.4-4.8-7.1c-1.9-1.7-4.1-2.6-6.5-2.6
			c-1.9,0-3.2,0.7-3.7,2.1c-0.6,1.4-0.4,3.2,0.5,5.5c2.2,5.6,6.6,8.4,13.1,8.4h2.5l5.3,13.4H169c-5.9-0.1-7.8,2.5-5.7,7.8
			c0.9,2.3,2.1,4.1,3.6,5.4c1.5,1.3,3.1,1.9,4.8,1.9c1.9,0,3-0.8,3.5-2.4c0.5-1.6,0.3-3.7-0.6-6.3h13c2.6,7.2,2.9,12.7,1.1,16.6
			c-1.9,3.9-5.8,5.8-11.9,5.8C173,377.9,169.4,377.1,166,375.5z"/>
	</g>
	<g display="inline">
		<path fill="#FFFFFF" d="M346.5,358.8l-3.8,15.4h-22.3l17-68.2h14l-13.2,52.7H346.5z"/>
	</g>
	<g display="inline">
		<path fill="#FFFFFF" d="M134.2,149.9c2.8-1.4,5.7-2,8.7-1.6c3,0.4,5.7,1.9,8.3,4.5c2.6,2.7,4.1,5.7,4.7,9c0.6,3.3,0.3,6.6-0.7,9.9
			c-1.1,3.3-2.7,6.2-4.9,8.9c-2.4,2.9-4.9,5-7.4,6.3c-2.5,1.2-5,1.6-7.4,1.1c1.4,6.6-0.6,13.2-6,19.8c-3.1,3.8-6.3,6.4-9.6,8
			c-3.3,1.5-6.5,2-9.5,1.4c-3-0.6-5.7-2.1-8.1-4.6c-2.3-2.4-3.9-5.3-4.7-8.7c-0.8-3.4-0.6-7,0.5-10.8c1.1-3.9,3.2-7.7,6.3-11.4
			c5.4-6.6,11.1-9.4,17.1-8.3c-0.6-2.7-0.5-5.5,0.4-8.4c0.9-2.9,2.5-5.8,5-8.8C128.8,153.4,131.4,151.4,134.2,149.9z M109.3,195.8
			c-0.2,2.3,0.4,4.2,1.9,5.8c1.5,1.6,3.3,2.1,5.3,1.7c2-0.4,4-1.9,5.9-4.2c1.9-2.4,3-4.7,3.2-7c0.2-2.3-0.4-4.2-1.9-5.7
			s-3.2-2.1-5.2-1.7c-2,0.4-4,1.8-5.9,4.1C110.6,191.2,109.6,193.5,109.3,195.8z M129.6,172.5c-0.2,1.9,0.3,3.5,1.6,4.7
			c1.2,1.3,2.7,1.7,4.3,1.4c1.7-0.4,3.4-1.6,5.1-3.8c1.7-2.1,2.7-4.1,3-6.1c0.2-2-0.2-3.6-1.4-4.8c-1.2-1.3-2.7-1.7-4.4-1.2
			c-1.7,0.4-3.5,1.7-5.2,3.8C130.8,168.6,129.8,170.6,129.6,172.5z"/>
	</g>
	<g display="inline">
		<path fill="#FFFFFF" d="M367.6,165.4c-1.7-0.4-3.4,0-5,1.1c-2.4,1.7-3,4.1-1.9,7.1c1.1,3.1,4,7,8.6,11.8c-0.9-2.3-1-4.6-0.3-6.8
			c0.8-2.2,2.3-4.2,4.6-5.8c4.2-2.9,8.7-3.9,13.5-2.9c4.8,1,9.6,4,14.1,8.9c2.9,3.1,4.8,6.3,5.8,9.6c1,3.3,1,6.4-0.2,9.4
			c-1.1,3-3.3,5.6-6.6,7.9c-6.4,4.5-12.8,5.5-19.1,3c-6.3-2.5-12.9-7.5-19.8-15c-7.9-8.6-12.4-15.9-13.5-21.8
			c-1.1-5.9,1.3-10.9,7.2-15c4.7-3.2,9.5-4.3,14.4-3.2c5,1.1,9.6,3.7,13.8,7.8l-10,7C371.2,166.8,369.3,165.8,367.6,165.4z
			 M384.5,197.8c2.2,0.5,4.4,0,6.5-1.4c1.9-1.3,2.8-2.9,2.9-4.7c0.1-1.8-0.9-3.8-2.8-5.9c-1.9-2.1-4-3.3-6.1-3.7
			c-2.1-0.4-4.1,0.1-6,1.4c-1.8,1.2-2.8,2.8-3,4.7c-0.2,1.9,0.6,3.9,2.4,5.8C380.3,196,382.3,197.3,384.5,197.8z"/>
	</g>
	<path display="inline" fill="#FFFFFF" d="M394.9,236.8l30.1-27.3c1-0.9,1-3,0-4.7l-1.9-3.1c-1-1.7-2.7-2.2-3.7-1.3l-30.1,27.3
		c-1,0.9-1,3,0,4.7l1.9,3.1C392.2,237.1,393.9,237.7,394.9,236.8z"/>
</g>
<g id="face_1" display="none">
	<g display="inline">
		<path fill="#FFFFFF" d="M232.3,178.6v-17.7H264v78.2h-19.9v-60.5H232.3z"/>
	</g>
	<g display="inline">
		<path fill="#FFFFFF" d="M166.1,362.4c1.6,1.4,3.4,2.1,5.4,2.1c3,0,4.5-1.7,4.4-5.2c-0.1-3.4-1.6-8.7-4.5-15.9
			c0.2,2.6-0.6,4.7-2.1,6.2c-1.6,1.5-3.8,2.3-6.6,2.3c-5.2,0-10.1-1.9-14.6-5.8c-4.5-3.9-8.2-9.5-11.1-16.7
			c-1.8-4.6-2.6-8.6-2.5-12.1c0.1-3.5,1.3-6.3,3.4-8.2c2.2-2,5.3-2.9,9.4-2.9c8.1,0,14.8,3.1,20.3,9.3c5.5,6.2,10.4,14.7,14.7,25.6
			c5,12.6,7,21.9,6,27.8c-0.9,5.9-5.1,8.9-12.5,8.9c-5.8,0-11-2-15.7-6.1s-8.3-9.2-11.2-15.5h12.5C163,358.9,164.5,361,166.1,362.4z
			 M160.4,323c-2.1-1.8-4.4-2.7-7-2.7c-2.3,0-3.9,0.8-4.6,2.4s-0.4,4,0.8,7c1.2,3.1,2.8,5.4,4.8,7.1c2,1.6,4.2,2.5,6.5,2.5
			c2.2,0,3.8-0.8,4.7-2.4c0.9-1.6,0.8-3.8-0.4-6.7C164,327.2,162.4,324.8,160.4,323z"/>
	</g>
	<g display="inline">
		<path fill="#FFFFFF" d="M329.3,354c-1.3,5.3-0.1,7.9,3.6,7.9c2.1,0,3.8-0.9,5.2-2.7c1.4-1.8,2.6-4.6,3.7-8.4h13
			c-2.4,8.3-6,14.5-10.8,18.7c-4.8,4.2-10,6.3-15.8,6.3c-6,0-10-1.9-12.1-5.6c-2.1-3.7-2.4-8.6-0.9-14.6c1.7-6.6,5.3-13.1,11-19.4
			c5.7-6.3,11.9-11.7,18.7-16.1h-21.8l3.3-13.3h39.3l-3.1,12.3C342.6,333.8,331.4,345.4,329.3,354z"/>
	</g>
	<g display="inline">
		<path fill="#FFFFFF" d="M151,176.7l-49.6,33.9l-8.2-8.5l48.4-32.2l-13.9-14.4l9.5-11.6l21.9,22.8L151,176.7z"/>
	</g>
	<g display="inline">
		<path fill="#FFFFFF" d="M363.6,153.5c3.2-0.4,6.3,0,9.3,1.1c2.9,1.2,5.5,3,7.8,5.4c2.8,3,4.3,6,4.5,8.9c0.2,2.9-0.5,5.3-2.3,7.3
			l0.3,0.3c7.5-2,13.8-0.3,18.9,5.3c2.5,2.7,4.1,5.5,4.8,8.4c0.8,2.9,0.6,5.7-0.6,8.4c-1.2,2.7-3.3,5.2-6.4,7.3
			c-5.1,3.5-10.3,5-15.7,4.5c-5.4-0.6-10.7-3.5-15.9-8.7l10.4-7.3c2,2,4,3.3,6.1,3.7c2.1,0.5,4.1,0.1,6-1.3c1.5-1.1,2.3-2.4,2.3-4
			c0-1.6-0.7-3.2-2.1-4.7c-3.5-3.8-7.9-3.9-13.1-0.3l-2,1.4l-8.4-9.2l1.9-1.3c4.8-3.2,5.5-6.6,2.1-10.3c-1.5-1.6-3-2.5-4.6-2.8
			c-1.6-0.3-3.1,0-4.5,1c-1.5,1-2.2,2.4-2.1,4.1c0.1,1.7,0.9,3.5,2.5,5.4l-10.4,7.3c-4.3-5.1-6.3-9.9-6-14.4
			c0.3-4.5,2.9-8.5,7.7-11.9C357.2,155.2,360.4,153.9,363.6,153.5z"/>
	</g>
	<path display="inline" fill="#FFFFFF" d="M167.6,301.8h-44.3c-1.5,0-3.1-1.4-3.5-3.2l-0.8-3.2c-0.4-1.7,0.4-3.2,1.9-3.2h44.3
		c1.5,0,3.1,1.4,3.5,3.2l0.8,3.2C169.9,300.4,169.1,301.8,167.6,301.8z"/>
</g>
</svg>
