<?xml version="1.0" encoding="utf-8"?>
<!-- Generator: Adobe Illustrator 17.1.0, SVG Export Plug-In . SVG Version: 6.00 Build 0)  -->
<!DOCTYPE svg PUBLIC "-//W3C//DTD SVG 1.1//EN" "http://www.w3.org/Graphics/SVG/1.1/DTD/svg11.dtd">
<svg version="1.1" xmlns="http://www.w3.org/2000/svg" xmlns:xlink="http://www.w3.org/1999/xlink" x="0px" y="0px"
	 viewBox="0 0 400 400" enable-background="new 0 0 400 400" xml:space="preserve">
<g id="Layer_1">
	<g id="red">
		<path fill="#FF0000" d="M53.7,276.7l142-246c2-3.5,7-3.5,9,0l142,246c2,3.5-0.5,7.8-4.5,7.8H58.3
			C54.2,284.5,51.7,280.2,53.7,276.7z"/>
		<path fill="#FF0000" d="M350.1,109.3L208.8,27.8c-2.3-1.3-4.9,1.3-3.6,3.6l141.3,244.8c1.3,2.3,4.9,1.4,4.9-1.3V111.6
			C351.4,110.7,350.9,109.8,350.1,109.3z"/>
		<path fill="#FF0000" d="M50.2,109.3l141.3-81.6c2.3-1.3,4.9,1.3,3.6,3.6L53.8,276.1c-1.3,2.3-4.9,1.4-4.9-1.3l0-163.2
			C48.9,110.7,49.4,109.8,50.2,109.3z"/>
		<path fill="#FF0000" d="M53.7,287.2l142,84.5c2,1.2,7,1.2,9,0l142-84.5c2-1.2-0.5-2.7-4.5-2.7H58.3
			C54.2,284.5,51.7,286,53.7,287.2z"/>
	</g>
	<g id="orange">
		<path fill="#FFA500" d="M53.7,276.7l142-246c2-3.5,7-3.5,9,0l142,246c2,3.5-0.5,7.8-4.5,7.8H58.3
			C54.2,284.5,51.7,280.2,53.7,276.7z"/>
		<path fill="#FFA500" d="M350.1,109.3L208.8,27.8c-2.3-1.3-4.9,1.3-3.6,3.6l141.3,244.8c1.3,2.3,4.9,1.4,4.9-1.3V111.6
			C351.4,110.7,350.9,109.8,350.1,109.3z"/>
		<path fill="#FFA500" d="M50.2,109.3l141.3-81.6c2.3-1.3,4.9,1.3,3.6,3.6L53.8,276.1c-1.3,2.3-4.9,1.4-4.9-1.3l0-163.2
			C48.9,110.7,49.4,109.8,50.2,109.3z"/>
		<path fill="#FFA500" d="M53.7,287.2l142,84.5c2,1.2,7,1.2,9,0l142-84.5c2-1.2-0.5-2.7-4.5-2.7H58.3
			C54.2,284.5,51.7,286,53.7,287.2z"/>
	</g>
	<g id="yellow">
		<path fill="#FFFF00" d="M53.7,276.7l142-246c2-3.5,7-3.5,9,0l142,246c2,3.5-0.5,7.8-4.5,7.8H58.3
			C54.2,284.5,51.7,280.2,53.7,276.7z"/>
		<path fill="#FFFF00" d="M350.1,109.3L208.8,27.8c-2.3-1.3-4.9,1.3-3.6,3.6l141.3,244.8c1.3,2.3,4.9,1.4,4.9-1.3V111.6
			C351.4,110.7,350.9,109.8,350.1,109.3z"/>
		<path fill="#FFFF00" d="M50.2,109.3l141.3-81.6c2.3-1.3,4.9,1.3,3.6,3.6L53.8,276.1c-1.3,2.3-4.9,1.4-4.9-1.3l0-163.2
			C48.9,110.7,49.4,109.8,50.2,109.3z"/>
		<path fill="#FFFF00" d="M53.7,287.2l142,84.5c2,1.2,7,1.2,9,0l142-84.5c2-1.2-0.5-2.7-4.5-2.7H58.3
			C54.2,284.5,51.7,286,53.7,287.2z"/>
	</g>
	<g id="green">
		<path fill="#00FF00" d="M53.7,276.7l142-246c2-3.5,7-3.5,9,0l142,246c2,3.5-0.5,7.8-4.5,7.8H58.3
			C54.2,284.5,51.7,280.2,53.7,276.7z"/>
		<path fill="#00FF00" d="M350.1,109.3L208.8,27.8c-2.3-1.3-4.9,1.3-3.6,3.6l141.3,244.8c1.3,2.3,4.9,1.4,4.9-1.3V111.6
			C351.4,110.7,350.9,109.8,350.1,109.3z"/>
		<path fill="#00FF00" d="M50.2,109.3l141.3-81.6c2.3-1.3,4.9,1.3,3.6,3.6L53.8,276.1c-1.3,2.3-4.9,1.4-4.9-1.3l0-163.2
			C48.9,110.7,49.4,109.8,50.2,109.3z"/>
		<path fill="#00FF00" d="M53.7,287.2l142,84.5c2,1.2,7,1.2,9,0l142-84.5c2-1.2-0.5-2.7-4.5-2.7H58.3
			C54.2,284.5,51.7,286,53.7,287.2z"/>
	</g>
	<g id="blue" display="none">
		<path display="inline" fill="#0000FF" d="M53.7,276.7l142-246c2-3.5,7-3.5,9,0l142,246c2,3.5-0.5,7.8-4.5,7.8H58.3
			C54.2,284.5,51.7,280.2,53.7,276.7z"/>
		<path display="inline" fill="#0000FF" d="M350.1,109.3L208.8,27.8c-2.3-1.3-4.9,1.3-3.6,3.6l141.3,244.8c1.3,2.3,4.9,1.4,4.9-1.3
			V111.6C351.4,110.7,350.9,109.8,350.1,109.3z"/>
		<path display="inline" fill="#0000FF" d="M50.2,109.3l141.3-81.6c2.3-1.3,4.9,1.3,3.6,3.6L53.8,276.1c-1.3,2.3-4.9,1.4-4.9-1.3
			l0-163.2C48.9,110.7,49.4,109.8,50.2,109.3z"/>
		<path display="inline" fill="#0000FF" d="M53.7,287.2l142,84.5c2,1.2,7,1.2,9,0l142-84.5c2-1.2-0.5-2.7-4.5-2.7H58.3
			C54.2,284.5,51.7,286,53.7,287.2z"/>
	</g>
	<g id="indigo" display="none">
		<path display="inline" fill="#4B0082" d="M53.7,276.7l142-246c2-3.5,7-3.5,9,0l142,246c2,3.5-0.5,7.8-4.5,7.8H58.3
			C54.2,284.5,51.7,280.2,53.7,276.7z"/>
		<path display="inline" fill="#4B0082" d="M350.1,109.3L208.8,27.8c-2.3-1.3-4.9,1.3-3.6,3.6l141.3,244.8c1.3,2.3,4.9,1.4,4.9-1.3
			V111.6C351.4,110.7,350.9,109.8,350.1,109.3z"/>
		<path display="inline" fill="#4B0082" d="M50.2,109.3l141.3-81.6c2.3-1.3,4.9,1.3,3.6,3.6L53.8,276.1c-1.3,2.3-4.9,1.4-4.9-1.3
			l0-163.2C48.9,110.7,49.4,109.8,50.2,109.3z"/>
		<path display="inline" fill="#4B0082" d="M53.7,287.2l142,84.5c2,1.2,7,1.2,9,0l142-84.5c2-1.2-0.5-2.7-4.5-2.7H58.3
			C54.2,284.5,51.7,286,53.7,287.2z"/>
	</g>
	<g id="purple" display="none">
		<path display="inline" fill="#800080" d="M53.7,276.7l142-246c2-3.5,7-3.5,9,0l142,246c2,3.5-0.5,7.8-4.5,7.8H58.3
			C54.2,284.5,51.7,280.2,53.7,276.7z"/>
		<path display="inline" fill="#800080" d="M350.1,109.3L208.8,27.8c-2.3-1.3-4.9,1.3-3.6,3.6l141.3,244.8c1.3,2.3,4.9,1.4,4.9-1.3
			V111.6C351.4,110.7,350.9,109.8,350.1,109.3z"/>
		<path display="inline" fill="#800080" d="M50.2,109.3l141.3-81.6c2.3-1.3,4.9,1.3,3.6,3.6L53.8,276.1c-1.3,2.3-4.9,1.4-4.9-1.3
			l0-163.2C48.9,110.7,49.4,109.8,50.2,109.3z"/>
		<path display="inline" fill="#800080" d="M53.7,287.2l142,84.5c2,1.2,7,1.2,9,0l142-84.5c2-1.2-0.5-2.7-4.5-2.7H58.3
			C54.2,284.5,51.7,286,53.7,287.2z"/>
	</g>
	<g>
		<path fill="none" stroke="#FFFFFF" stroke-width="12" stroke-miterlimit="10" d="M53.7,276.7l142-246c2-3.5,7-3.5,9,0l142,246
			c2,3.5-0.5,7.8-4.5,7.8H58.3C54.2,284.5,51.7,280.2,53.7,276.7z"/>
		<path fill="none" stroke="#FFFFFF" stroke-width="12" stroke-miterlimit="10" d="M350.1,109.3L208.8,27.8
			c-2.3-1.3-4.9,1.3-3.6,3.6l141.3,244.8c1.3,2.3,4.9,1.4,4.9-1.3V111.6C351.4,110.7,350.9,109.8,350.1,109.3z"/>
		<path fill="none" stroke="#FFFFFF" stroke-width="12" stroke-miterlimit="10" d="M50.2,109.3l141.3-81.6c2.3-1.3,4.9,1.3,3.6,3.6
			L53.8,276.1c-1.3,2.3-4.9,1.4-4.9-1.3l0-163.2C48.9,110.7,49.4,109.8,50.2,109.3z"/>
		<path fill="none" stroke="#FFFFFF" stroke-width="12" stroke-miterlimit="10" d="M53.7,287.2l142,84.5c2,1.2,7,1.2,9,0l142-84.5
			c2-1.2-0.5-2.7-4.5-2.7H58.3C54.2,284.5,51.7,286,53.7,287.2z"/>
	</g>
</g>
<g id="face_8" display="none">
	<g display="inline">
		<path fill="#FFFFFF" d="M172,155.5c2.5-3.9,6.2-7,11.2-9.5c5-2.4,11-3.6,18.1-3.6c7.2,0,13.3,1.2,18.2,3.6c5,2.4,8.7,5.6,11.2,9.5
			c2.5,3.9,3.7,8,3.7,12.5c0,4.8-1.1,9-3.4,12.4c-2.2,3.4-5.5,6-9.9,7.8c10.3,4.6,15.4,12.3,15.4,23.2c0,6.2-1.6,11.6-4.7,16
			c-3.1,4.5-7.3,7.8-12.6,10.1c-5.3,2.3-11.3,3.4-18,3.4c-6.6,0-12.5-1.1-17.9-3.4c-5.4-2.3-9.6-5.7-12.7-10.1
			c-3.1-4.5-4.7-9.8-4.7-16c0-10.9,5.1-18.6,15.4-23.2c-4.3-1.8-7.6-4.4-9.9-7.8c-2.3-3.4-3.4-7.5-3.4-12.4
			C168.3,163.5,169.5,159.4,172,155.5z M191.3,219.3c2.5,2.3,5.8,3.4,10.1,3.4c4.2,0,7.6-1.1,10.1-3.4c2.5-2.2,3.7-5.3,3.7-9.2
			s-1.3-6.9-3.8-9.1c-2.6-2.2-5.9-3.3-9.9-3.3c-4.1,0-7.4,1.1-9.9,3.3c-2.6,2.2-3.8,5.3-3.8,9.1S188.8,217.1,191.3,219.3z
			 M193.1,179.8c2,1.9,4.8,2.8,8.2,2.8c3.5,0,6.2-0.9,8.2-2.8c2-1.9,3-4.6,3-8.1c0-3.5-1-6.2-3.1-8.2c-2.1-2-4.8-3-8.2-3
			c-3.4,0-6.1,1-8.2,3c-2.1,2-3.1,4.7-3.1,8.2C190,175.3,191.1,178,193.1,179.8z"/>
	</g>
	<g display="inline">
		<path fill="#FFFFFF" d="M187.8,345.9c-3.8-1.2-6.7-2.8-8.6-4.8c-2-2.1-2.9-4.4-2.9-7c0-3.2,1.3-5.7,3.8-7.7
			c2.5-1.9,5.7-3.2,9.5-3.7v-0.3c-9.8-2-14.7-6-14.7-11.8c0-2.8,1-5.3,3-7.5c2-2.2,4.9-3.9,8.7-5.1c3.8-1.2,8.4-1.8,13.8-1.8
			c8.7,0,15.6,1.4,20.7,4.2c5.1,2.8,7.9,7,8.3,12.7h-17.9c-0.1-2.2-1.1-3.9-2.8-5.1c-1.7-1.2-4.2-1.9-7.5-1.9
			c-2.6,0-4.7,0.5-6.3,1.5c-1.5,1-2.3,2.3-2.3,3.9c0,4,4.5,6,13.5,6h3.4v9.6h-3.3c-8.1-0.1-12.1,1.8-12.1,5.6c0,1.7,0.7,2.9,2.1,3.8
			c1.4,0.9,3.3,1.3,5.6,1.3c2.6,0,4.6-0.6,6.1-1.7c1.5-1.1,2.4-2.6,2.6-4.5h17.9c-0.4,5.2-2.9,9.1-7.5,11.9
			c-4.6,2.8-11.2,4.2-19.5,4.2C196.2,347.6,191.6,347,187.8,345.9z"/>
	</g>
	<g display="inline">
		<path fill="#FFFFFF" d="M109.2,101.9l10.6-10l-0.1,30.7l-46.9,44.4l0.1-19.3l36.3-34.3L109.2,101.9z"/>
	</g>
	<g display="inline">
		<path fill="#FFFFFF" d="M294.2,93.3l-0.1,32.6l11.3,11.4c-1.3-2.7-2.2-5.7-2.9-9c-0.7-3.3-1-6.4-1-9.4c0-4.9,0.9-8.1,2.5-9.7
			c1.7-1.6,3.9-1.8,6.7-0.5c2.8,1.3,5.9,3.6,9.2,7c6.1,6.2,10.9,13.3,14.4,21.3c3.5,8,5.3,16.1,5.3,24.2c0,5.5-0.8,9.5-2.3,12
			c-1.5,2.5-3.6,3.5-6.3,3c-2.7-0.5-5.8-2.5-9.3-5.9l0-17.1c1.8,1.5,3.3,2,4.4,1.7c1.2-0.4,1.7-1.9,1.8-4.6c0-3.1-0.7-6.2-2.3-9.2
			c-1.5-3.1-3.5-5.9-6.1-8.5c-2.4-2.5-4.3-3.5-5.6-3.2c-1.3,0.3-2,1.9-2,4.9c0,2.3,0.4,4.5,1.1,6.8c0.8,2.3,1.7,4.3,2.9,6.1l0,17
			l-33.7-34.2l0.1-48.5L294.2,93.3z"/>
	</g>
</g>
<g id="face_7" display="none">
	<g display="inline">
		<path fill="#FFFFFF" d="M232.1,162.9L199.3,239h-23l33.2-73.6h-38.9v-19.1h61.5V162.9z"/>
	</g>
	<g display="inline">
		<path fill="#FFFFFF" d="M232.7,305.6v9.9l-34.6,30.7h-19.7v-30.2h-9.1v-10.3h9.1v-9h18.5v9H232.7z M195.4,332.4l18.7-16.5h-18.7
			V332.4z"/>
	</g>
	<g display="inline">
		<path fill="#FFFFFF" d="M111.2,124.2c1-2.4,1.5-4.9,1.5-7.7c0-4.2-1.2-6-3.5-5.5c-2.4,0.5-6,3.1-10.9,7.9c1.8-0.5,3.2,0.2,4.3,2.2
			c1,2,1.5,5,1.5,8.9c0,7.2-1.4,14.1-4.1,20.8c-2.7,6.7-6.5,12.4-11.5,17.1c-3.1,3-5.9,4.6-8.4,4.8c-2.4,0.2-4.3-1.1-5.6-3.8
			c-1.3-2.8-2-7-2-12.6c0-11.1,2.2-20.8,6.4-29c4.3-8.2,10.1-15.9,17.7-23c8.7-8.2,15-12,19.1-11.3c4.1,0.6,6.1,6,6.1,16.2
			c0,8-1.4,15.4-4.3,22.3c-2.8,6.8-6.4,12.5-10.7,17.1l0-17.2C108.7,128.9,110.2,126.6,111.2,124.2z M84.1,136.5
			c-1.3,3.1-1.9,6.4-1.9,10c0,3.2,0.5,5.2,1.6,6c1.1,0.8,2.7,0.2,4.8-1.8c2.1-2,3.8-4.5,4.9-7.4c1.1-2.9,1.7-6,1.7-9.2
			c0-3.1-0.5-5.1-1.6-6.2c-1.1-1.1-2.6-0.6-4.6,1.2C87,130.9,85.3,133.4,84.1,136.5z"/>
	</g>
	<g display="inline">
		<path fill="#FFFFFF" d="M300.2,117.3c-4.3-4.4-6.5-4.1-6.5,0.7c0,2.7,0.7,5.5,2.2,8.2c1.5,2.8,3.8,5.8,6.9,9.1l0,17.1
			c-6.8-7.3-11.9-15.1-15.3-23.5c-3.4-8.4-5.1-16.3-5.1-23.9c0-7.9,1.6-12.3,4.6-13.2c3.1-0.9,7,1.1,11.9,6.1
			c5.4,5.5,10.7,13.6,15.9,24.2c5.2,10.7,9.5,21.6,13.1,32.7l0.1-28.6l10.9,11l-0.1,51.7l-10.1-10.2
			C316.7,144.9,307.3,124.4,300.2,117.3z"/>
	</g>
	<path display="inline" fill="#FFFFFF" d="M65.3,184.3l0.3-0.1c1.6-0.6,2.6-2.1,2.6-3.7v-42.3c0-2.8-2.7-4.7-5.3-3.7l-0.3,0.1
		c-1.6,0.6-2.6,2.1-2.6,3.7v42.3C60,183.3,62.7,185.2,65.3,184.3z"/>
</g>
<g id="face_6" display="none">
	<g display="inline">
		<path fill="#FFFFFF" d="M209,164.2c-1.8-1.9-4.3-2.9-7.6-2.9c-5,0-8.6,2.3-10.7,6.9c-2.1,4.6-3.1,11.7-2.9,21.3
			c1.5-3.5,4-6.3,7.6-8.4c3.6-2,7.8-3,12.5-3c8.6,0,15.5,2.6,20.5,7.8c5,5.2,7.5,12.7,7.5,22.5c0,6.1-1.3,11.6-3.8,16.3
			c-2.5,4.8-6.2,8.5-11.1,11.1c-4.9,2.6-10.7,4-17.6,4c-13.4,0-22.7-4.2-27.8-12.5c-5.1-8.3-7.7-19.8-7.7-34.5
			c0-16.9,2.7-29.4,8.2-37.4c5.4-8,14.3-12,26.6-12c9.7,0,17,2.7,22.1,8.2c5,5.5,7.8,12.4,8.4,20.8h-20.8
			C211.9,168.9,210.8,166.1,209,164.2z M192.8,217.2c2.2,2.5,5.5,3.7,9.9,3.7c3.9,0,6.9-1.1,9.1-3.2c2.2-2.2,3.3-5.3,3.3-9.5
			c0-4.2-1.1-7.3-3.4-9.5c-2.3-2.2-5.3-3.3-9.2-3.3c-3.7,0-6.8,1.1-9.3,3.2c-2.5,2.1-3.8,5.1-3.8,9
			C189.5,211.5,190.6,214.7,192.8,217.2z"/>
	</g>
	<g display="inline">
		<path fill="#FFFFFF" d="M219.3,334.4v11.1h-30.7v-48.9h19.3v37.9H219.3z"/>
	</g>
	<g display="inline">
		<path fill="#FFFFFF" d="M120.1,123c-1.1,4.9-2.7,9.2-4.7,13c-2,3.8-4.2,6.9-6.7,9.3c-3.1,2.9-5.5,3.9-7.4,3.2
			c-1.9-0.8-3-2.8-3.5-6.2l-0.3,0.3c-2,11.7-5.8,20.1-11.4,25.5c-2.7,2.6-5.1,3.8-7.2,3.8c-2.1,0-3.7-1.4-4.9-4.1
			c-1.2-2.7-1.7-6.8-1.7-12.1c0-8.7,1.4-16.9,4-24.6c2.7-7.6,6.7-14.2,12.2-19.8l0,17.9c-2.1,2.1-3.7,4.6-4.9,7.4
			c-1.2,2.8-1.8,5.9-1.8,9.2c0,2.6,0.5,4.3,1.4,4.9c1,0.6,2.2,0.2,3.8-1.3c3.8-3.6,5.8-10,5.8-19l0-3.4l9.2-8.7l0,3.3
			c-0.1,8.2,1.7,10.5,5.3,7.1c1.6-1.5,2.8-3.4,3.7-5.6c0.9-2.2,1.3-4.5,1.3-6.9c0-2.6-0.5-4.1-1.6-4.6c-1.1-0.5-2.5,0-4.3,1.5
			l0.1-17.9c5-4.3,8.8-5.4,11.4-3.3c2.6,2.1,4,7.4,3.9,15.8C121.8,113.1,121.3,118.1,120.1,123z"/>
	</g>
	<g display="inline">
		<path fill="#FFFFFF" d="M293.2,92.8l46.2,72.9l-0.1,18.2l-44.6-71.6l-0.1,30.8L283,131.3l0.1-48.6L293.2,92.8z"/>
	</g>
	<path display="inline" fill="#FFFFFF" d="M234.8,263.7h-65c-2.9,0-5.2-2.3-5.2-5.2v-2c0-2.9,2.3-5.2,5.2-5.2h65
		c2.9,0,5.2,2.3,5.2,5.2v2C240,261.4,237.7,263.7,234.8,263.7z"/>
	<g display="inline">
		<path fill="#FFFFFF" d="M208.9,164c-1.8-1.9-4.3-2.9-7.6-2.9c-5,0-8.6,2.3-10.7,6.9c-2.1,4.6-3.1,11.7-2.9,21.3
			c1.5-3.5,4-6.3,7.6-8.4c3.6-2,7.8-3,12.5-3c8.6,0,15.5,2.6,20.5,7.8c5,5.2,7.5,12.7,7.5,22.5c0,6.1-1.3,11.6-3.8,16.3
			c-2.5,4.8-6.2,8.5-11.1,11.1c-4.9,2.6-10.7,4-17.6,4c-13.4,0-22.7-4.2-27.8-12.5c-5.1-8.3-7.7-19.8-7.7-34.5
			c0-16.9,2.7-29.4,8.2-37.4c5.4-8,14.3-12,26.6-12c9.7,0,17,2.7,22.1,8.2c5,5.5,7.8,12.4,8.4,20.8h-20.8
			C211.8,168.8,210.6,166,208.9,164z M192.7,217c2.2,2.5,5.5,3.7,9.9,3.7c3.9,0,6.9-1.1,9.1-3.2c2.2-2.2,3.3-5.3,3.3-9.5
			c0-4.2-1.1-7.3-3.4-9.5c-2.3-2.2-5.3-3.3-9.2-3.3c-3.7,0-6.8,1.1-9.3,3.2c-2.5,2.1-3.8,5.1-3.8,9
			C189.3,211.4,190.5,214.6,192.7,217z"/>
	</g>
	<path display="inline" fill="#FFFFFF" d="M237.9,264.1h-71.5c-3.1,0-5.7-2.5-5.7-5.7v-2.2c0-3.1,2.5-5.7,5.7-5.7h71.5
		c3.1,0,5.7,2.5,5.7,5.7v2.2C243.6,261.6,241.1,264.1,237.9,264.1z"/>
</g>
<g id="face_5" display="none">
	<g display="inline">
		<path fill="#FFFFFF" d="M232.9,164.6h-41.3v18.6c1.8-2.1,4.3-3.7,7.6-4.9c3.2-1.2,6.8-1.8,10.6-1.8c6.1,0,11.3,1.4,15.4,4.1
			c4.2,2.7,7.2,6.4,9.2,11c2,4.6,3,9.6,3,15.2c0,10-2.8,18-8.4,23.8c-5.6,5.8-13.5,8.8-23.7,8.8c-6.9,0-12.9-1.2-18-3.7
			c-5.1-2.5-9-5.9-11.8-10.3c-2.8-4.4-4.2-9.5-4.4-15.3h21.7c0.4,2.9,1.6,5.4,3.6,7.3c1.9,1.9,4.6,2.9,8,2.9c3.9,0,6.8-1.3,8.8-3.8
			c1.9-2.5,2.9-5.8,2.9-10c0-4-1-7-3.1-9.2c-2.1-2.2-5-3.2-8.7-3.2c-2.9,0-5.2,0.6-7.1,1.9c-1.9,1.3-3.2,2.9-3.9,4.9h-21.5v-55.5
			h61.4V164.6z"/>
	</g>
	<g display="inline">
		<path fill="#FFFFFF" d="M194,331c0,3.8,2.5,5.7,7.6,5.7c2.9,0,5-0.6,6.3-1.9c1.3-1.3,2.1-3.3,2.2-6H228c-0.4,6-3.2,10.4-8.4,13.4
			c-5.1,3-11.7,4.5-19.5,4.5c-8.2,0-14.4-1.3-18.6-4c-4.2-2.7-6.3-6.2-6.3-10.4c0-4.8,2.8-9.4,8.5-13.9c5.6-4.5,12.4-8.4,20.3-11.5
			h-29.9v-9.5h54v8.9C205.4,316.4,194,324.8,194,331z"/>
	</g>
	<g display="inline">
		<path fill="#FFFFFF" d="M115.7,89.4c2,0.2,3.6,1.8,4.8,4.7c1.2,2.9,1.8,7.4,1.8,13.2c0,5.9-0.7,11.6-1.9,16.9
			c-1.3,5.3-2.9,9.9-4.9,13.8c-2,3.9-4.1,7-6.4,9.1c-2.5,2.3-4.6,3.4-6.3,3.2c-1.7-0.2-3.1-1.7-4-4.4c-2.4,10.7-6.3,18.7-11.9,24
			c-3.2,3-5.9,4.3-8.2,3.9c-2.3-0.4-4-2.3-5.1-5.6c-1.2-3.3-1.7-7.7-1.7-13.2c0-5.4,0.6-10.9,1.8-16.5c1.2-5.5,2.9-10.7,5.2-15.4
			c2.3-4.7,5-8.6,8.2-11.6c5.6-5.3,9.5-4.8,11.8,1.6c0.9-4.5,2.3-8.4,4-12c1.8-3.5,3.9-6.4,6.3-8.8
			C111.6,90.2,113.7,89.2,115.7,89.4z M83,136.2c-1.2,3.1-1.7,6.4-1.8,10c0,3.5,0.6,5.7,1.7,6.7c1.1,1,2.7,0.5,4.7-1.4
			c2-1.9,3.6-4.4,4.7-7.6c1.1-3.2,1.7-6.5,1.7-9.8c0-3.4-0.5-5.6-1.7-6.6c-1.1-1-2.7-0.6-4.7,1.3C85.7,130.6,84.1,133.1,83,136.2z
			 M103.2,118.6c-1,2.6-1.4,5.3-1.4,8.2c0,2.9,0.5,4.7,1.4,5.5c0.9,0.8,2.3,0.3,4.1-1.4c1.8-1.7,3.2-3.9,4.2-6.5
			c1-2.7,1.5-5.4,1.5-8.2c0-2.8-0.5-4.6-1.5-5.3c-1-0.8-2.4-0.3-4.2,1.4C105.5,113.9,104.1,116,103.2,118.6z"/>
	</g>
	<g display="inline">
		<path fill="#FFFFFF" d="M329.1,183.7l-11.3-11.4L283,103.7l0.1-18.9l34.5,34.9l0-8.7l11.7,11.9l0,8.7l10.2,10.4l0,17.8l-10.2-10.4
			L329.1,183.7z M298.6,116.9l18.8,37l0-17.9L298.6,116.9z"/>
	</g>
</g>
<g id="face_4">
	<g>
		<path fill="#FFFFFF" d="M163.5,222.2v-18.6l41.9-57.5h23.9v56.7h11v19.3h-11V239h-22.4v-16.9H163.5z M208.7,171.8l-22.6,31h22.6
			V171.8z"/>
	</g>
	<g>
		<path fill="#FFFFFF" d="M176,337.2l27.1-40.6h19l-27.4,39.2h32.2V346H176V337.2z"/>
	</g>
	<g>
		<path fill="#FFFFFF" d="M110.9,144.2L111,110l-9.5,9c1.1,0.5,1.9,1.8,2.5,3.9c0.6,2.1,0.9,4.8,0.9,7.9c0,5.1-0.7,10-2.1,14.8
			c-1.4,4.8-3.3,9.1-5.6,12.9c-2.4,3.9-4.9,7.1-7.8,9.8c-5.1,4.9-9.2,6.4-12.2,4.5c-3-1.8-4.4-7-4.4-15.4c0-5.7,0.7-11.3,1.9-16.7
			c1.3-5.4,3-10.3,5.3-14.8c2.3-4.4,4.9-8.1,7.8-11.1l-0.1,17.9c-1.5,1.8-2.7,3.9-3.7,6.5c-1,2.5-1.5,5.2-1.5,8c0,3.2,0.6,5,1.9,5.4
			c1.3,0.4,3-0.4,5.1-2.4c2-1.9,3.6-4.3,4.7-7c1.1-2.8,1.7-5.7,1.7-8.8c0-2.4-0.3-4-0.9-5c-0.6-1-1.5-1.3-2.5-0.9l0-17.8L121,83.9
			l-0.1,50.8L110.9,144.2z"/>
	</g>
	<g>
		<path fill="#FFFFFF" d="M296.2,137.5l-12.6-12.8l0.1-29.3l55.7,56.5l-0.1,18.5l-43.1-43.7L296.2,137.5z"/>
	</g>
</g>
<g id="face_3" display="none">
	<g display="inline">
		<path fill="#FFFFFF" d="M217.8,146.6c4.6,2.2,8.1,5.2,10.4,9.1c2.4,3.8,3.6,8.2,3.6,13c0,6-1.5,10.8-4.6,14.4
			c-3.1,3.6-6.9,5.9-11.5,6.9v0.6c11.8,3.8,17.8,11.2,17.8,22.2c0,5.3-1.2,10-3.6,14.1c-2.4,4.1-5.9,7.3-10.6,9.6
			c-4.6,2.3-10.2,3.4-16.7,3.4c-10.6,0-18.9-2.6-25.1-7.8c-6.2-5.2-9.5-13.1-10.1-23.7h21.7c0.2,4.1,1.3,7.3,3.4,9.6
			s5.1,3.5,9.1,3.5c3.2,0,5.7-1,7.6-2.9c1.9-1.9,2.8-4.4,2.8-7.4c0-7.5-5.4-11.3-16.3-11.3h-4.2v-18h4c9.8,0.2,14.7-3.3,14.7-10.5
			c0-3.1-0.8-5.5-2.5-7.2c-1.7-1.7-4-2.5-6.8-2.5c-3.1,0-5.6,1.1-7.4,3.2c-1.8,2.1-2.9,5-3.1,8.5h-21.7c0.4-9.7,3.5-17.1,9.1-22.3
			c5.6-5.2,13.5-7.8,23.6-7.8C207.7,143.3,213.2,144.4,217.8,146.6z"/>
	</g>
	<g display="inline">
		<path fill="#FFFFFF" d="M225.7,341.1c-2.1,2.1-5.2,3.8-9.3,5.1c-4.1,1.3-9.1,1.9-15,1.9c-5.9,0-11-0.6-15.1-1.9
			c-4.1-1.3-7.2-3-9.2-5.1s-3.1-4.3-3.1-6.6c0-2.6,0.9-4.8,2.8-6.6c1.9-1.8,4.6-3.2,8.1-4.2c-8.5-2.4-12.8-6.6-12.8-12.4
			c0-3.3,1.3-6.2,3.9-8.5s6.1-4.2,10.5-5.4c4.4-1.2,9.3-1.8,14.9-1.8c5.4,0,10.4,0.6,14.8,1.8c4.4,1.2,7.9,3,10.5,5.4
			s3.9,5.2,3.9,8.5c0,5.8-4.3,9.9-12.8,12.4c3.6,1,6.3,2.4,8.1,4.2c1.9,1.8,2.8,4,2.8,6.6C228.8,336.8,227.8,339.1,225.7,341.1z
			 M209.8,307.1c-2-1.2-4.8-1.8-8.3-1.8c-3.5,0-6.3,0.6-8.3,1.8c-2,1.2-3.1,2.8-3.1,4.9c0,2.1,1.1,3.7,3.2,4.9
			c2.1,1.2,4.8,1.8,8.2,1.8c3.4,0,6.1-0.6,8.2-1.8c2.1-1.2,3.2-2.8,3.2-4.9C212.8,309.9,211.8,308.3,209.8,307.1z M208.3,328.2
			c-1.7-1-3.9-1.5-6.8-1.5c-2.9,0-5.1,0.5-6.8,1.5c-1.7,1-2.5,2.4-2.5,4.3c0,1.8,0.9,3.3,2.6,4.4c1.7,1.1,4,1.6,6.8,1.6
			s5-0.5,6.8-1.6s2.6-2.5,2.6-4.4C210.8,330.6,209.9,329.1,208.3,328.2z"/>
	</g>
	<g display="inline">
		<path fill="#FFFFFF" d="M105.8,130.4c3.6-3.4,5.5-7.7,5.5-12.8c0-2.9-0.6-4.4-1.8-4.5c-1.2-0.2-3.2,0.9-5.8,3.3l0.1-17.9
			c5.7-5,10-6.2,12.9-3.8c2.9,2.4,4.3,7.6,4.3,15.5c0,8.2-1.3,15.7-3.9,22.3c-2.6,6.6-5.9,11.9-10,15.8c-4.6,4.3-9,5.7-13.4,4.2
			c-4.3-1.5-8-4.8-11-9.9l-0.1,30l-9.2,8.7l0.2-54.2l8.5-8C92,132.1,99.9,136,105.8,130.4z"/>
	</g>
	<g display="inline">
		<path fill="#FFFFFF" d="M289.9,111.9c-0.9,0.5-1.4,2-1.4,4.6c0,4,1.1,7.9,3.4,11.8c2.3,3.9,5.8,8.1,10.6,12.6
			c-1.8-2.9-3.1-6.2-4.1-10c-1-3.8-1.5-7.6-1.5-11.4c0-6.8,1.3-11,3.9-12.4c2.6-1.4,6.3,0.2,11.2,4.9c3.1,3,5.8,6.6,8.1,10.9
			c2.4,4.3,4.2,9,5.5,14.1c1.3,5.1,1.9,10.4,1.9,15.8c0,10.6-2.1,15.9-6.2,16c-4.1,0-9.9-3.5-17.2-10.6
			c-8.4-8.2-14.6-16.4-18.6-24.5c-4-8.2-5.9-17.1-5.9-26.8c0-7.7,1.4-12.2,4.1-13.5c2.7-1.3,6.2-0.2,10.4,3.4l0,16.4
			C292.3,111.8,290.9,111.4,289.9,111.9z M316.2,150.3c1.2-0.6,1.8-2.6,1.9-6c0-3.1-0.5-6-1.6-8.8c-1.1-2.8-2.6-5.2-4.7-7.2
			c-2.1-2-3.6-2.6-4.7-1.9c-1.1,0.7-1.7,2.6-1.7,5.7c0,2.9,0.5,5.9,1.6,8.9c1,3,2.5,5.5,4.5,7.3C313.4,150.2,315,150.9,316.2,150.3z
			"/>
	</g>
	<path display="inline" fill="#FFFFFF" d="M333.7,181.3l-0.3-0.1c-1.6-0.6-2.6-2.1-2.6-3.7v-42.3c0-2.8,2.7-4.7,5.3-3.7l0.3,0.1
		c1.6,0.6,2.6,2.1,2.6,3.7v42.3C339,180.3,336.3,182.2,333.7,181.3z"/>
</g>
<g id="face_2" display="none">
	<g display="inline">
		<path fill="#FFFFFF" d="M210.3,174.6c0-7.1-3.1-10.6-9.2-10.6c-3.5,0-6,1.2-7.6,3.6c-1.6,2.4-2.5,6.2-2.7,11.3h-21.7
			c0.5-11.2,3.9-19.5,10.1-25.2c6.2-5.6,14.1-8.4,23.6-8.4c9.9,0,17.4,2.5,22.5,7.5c5.1,5,7.6,11.5,7.6,19.6
			c0,8.9-3.4,17.6-10.2,26.1c-6.8,8.5-15,15.7-24.5,21.6h36.2V238h-65.4v-16.6C196.6,201.8,210.3,186.1,210.3,174.6z"/>
	</g>
	<g display="inline">
		<path fill="#FFFFFF" d="M175.4,336.3h34.1v-9.9c-1.5,1.1-3.6,2-6.3,2.6c-2.7,0.6-5.6,0.9-8.7,0.9c-5.1,0-9.3-0.7-12.8-2.2
			c-3.4-1.5-6-3.4-7.6-5.8c-1.6-2.4-2.5-5.1-2.5-8.1c0-5.4,2.3-9.6,7-12.7c4.6-3.1,11.2-4.7,19.6-4.7c5.7,0,10.7,0.7,14.9,2
			c4.2,1.3,7.5,3.1,9.8,5.5c2.3,2.4,3.5,5.1,3.6,8.2h-17.9c-0.4-1.6-1.3-2.9-2.9-3.9c-1.6-1-3.8-1.5-6.6-1.5c-3.2,0-5.6,0.7-7.2,2
			c-1.6,1.3-2.4,3.1-2.4,5.3c0,2.1,0.9,3.8,2.6,4.9c1.7,1.2,4.1,1.7,7.2,1.7c2.4,0,4.3-0.3,5.9-1c1.6-0.7,2.6-1.5,3.2-2.6h17.8v29.6
			h-50.7V336.3z"/>
	</g>
	<g display="inline">
		<path fill="#FFFFFF" d="M111.8,142.8l-38.9,9.7l0.1-19l37.6-8.1l0.1-32.2l9.8-9.2l-0.1,50.9L111.8,142.8z"/>
	</g>
	<g display="inline">
		<path fill="#FFFFFF" d="M283.3,94.2c1.4-2.3,3.2-3.2,5.5-2.7c2.3,0.5,5,2.2,7.9,5.2c3.6,3.7,6.5,7.8,8.7,12.5
			c2.2,4.7,3.6,9.1,4.2,13.3l0.4,0.4c2.3-7,6.8-7.2,13.5-0.4c3.2,3.3,6.1,7.1,8.5,11.5c2.5,4.4,4.4,9.2,5.8,14.3
			c1.4,5.1,2.1,10.2,2.1,15.3c0,8.3-1.6,13.4-4.8,15.1c-3.2,1.7-8-0.5-14.4-6.7l0-17.1c2.5,2.4,4.4,3.4,5.8,3.2
			c1.4-0.2,2.1-1.9,2.1-5c0-2.5-0.6-5.1-1.7-7.8c-1.2-2.6-2.6-4.9-4.5-6.8c-4.6-4.6-6.9-2.6-6.9,6l0,3.3l-11-11.1l0-3.2
			c0.1-7.6-2-13.6-6.4-18.1c-1.9-1.9-3.4-2.7-4.4-2.4c-1,0.3-1.5,1.6-1.6,3.8c0,2.5,0.6,5.1,1.9,7.8c1.3,2.7,3,5.3,5.2,7.7l0,17.1
			c-5.9-6.3-10.4-13.3-13.5-20.9c-3.1-7.6-4.7-15.5-4.7-23.5C281.2,100.1,281.9,96.4,283.3,94.2z"/>
	</g>
</g>
<g id="face_1" display="none">
	<g display="inline">
		<path fill="#FFFFFF" d="M179.7,168.1v-20.8h37.1V239h-23.4v-71H179.7z"/>
	</g>
	<g display="inline">
		<path fill="#FFFFFF" d="M195.1,341.9c1.5,0.9,3.6,1.3,6.3,1.3c4.1,0,7.1-1.1,8.8-3.2c1.8-2.2,2.6-5.5,2.4-10
			c-1.2,1.7-3.3,3-6.3,3.9c-3,0.9-6.4,1.4-10.3,1.4c-7.1,0-12.8-1.2-16.9-3.7c-4.1-2.4-6.2-5.9-6.2-10.5c0-2.9,1-5.4,3.1-7.6
			c2.1-2.2,5.1-3.9,9.2-5.2c4-1.2,8.9-1.8,14.5-1.8c11.1,0,18.7,1.9,22.9,5.8c4.2,3.9,6.3,9.2,6.3,16.1c0,7.9-2.3,13.7-6.8,17.5
			c-4.5,3.7-11.8,5.6-22,5.6c-8,0-14.1-1.3-18.2-3.8c-4.1-2.6-6.5-5.8-7-9.7h17.2C192.7,339.7,193.7,341,195.1,341.9z M208.5,317.2
			c-1.9-1.2-4.6-1.7-8.1-1.7c-3.2,0-5.7,0.5-7.6,1.5s-2.7,2.5-2.7,4.4c0,1.9,0.9,3.4,2.8,4.4c1.9,1,4.4,1.5,7.6,1.5
			c3.1,0,5.6-0.5,7.7-1.5s3.1-2.4,3.1-4.2C211.3,319.8,210.3,318.3,208.5,317.2z"/>
	</g>
	<g display="inline">
		<path fill="#FFFFFF" d="M81.6,114.6l9.5-9l29.3,6.9l-0.1,19.8l-29,27.4l0,9.1l-9.9,9.4l0-9.1l-8.6,8.2l0.1-18.6l8.6-8.2
			L81.6,114.6z M107.2,127.6L91.4,124l-0.1,18.7L107.2,127.6z"/>
	</g>
	<g display="inline">
		<path fill="#FFFFFF" d="M288.6,135.9c-2.4-4.4-4.3-9.3-5.7-14.7c-1.5-5.4-2.2-10.9-2.2-16.6c0-5.7,0.8-9.7,2.2-12.2
			c1.5-2.4,3.4-3.4,5.8-3c2.4,0.4,4.9,2,7.6,4.7c2.9,3,5.5,6.4,7.5,10.3c2.1,3.9,3.7,8.1,4.7,12.6c2.8-5.3,7.5-4.6,14.1,2.1
			c3.8,3.8,7,8.4,9.7,13.6c2.7,5.2,4.7,10.6,6.1,16.2c1.4,5.6,2.1,11.1,2,16.3c0,5.2-0.7,9.2-2.1,12c-1.4,2.8-3.5,4.1-6.2,3.8
			c-2.7-0.3-6-2.3-9.7-6.2c-6.6-6.7-11.3-15.6-14.1-26.5c-1.1,2.3-2.7,3.3-4.8,3c-2.1-0.3-4.6-2-7.5-5
			C293.4,143.8,290.9,140.2,288.6,135.9z M303.4,134.2c1.1-0.5,1.7-2.1,1.7-4.8c0-2.7-0.5-5.5-1.7-8.2c-1.1-2.8-2.8-5.2-4.9-7.4
			c-2.1-2.1-3.8-3-5-2.6c-1.2,0.4-1.8,2-1.8,4.6c0,2.7,0.6,5.4,1.8,8.3c1.2,2.9,2.9,5.4,5,7.5C300.6,133.8,302.3,134.6,303.4,134.2z
			 M327.4,159.9c1.4-0.6,2.1-2.5,2.1-5.9c0-3.4-0.7-6.7-2-10c-1.4-3.3-3.2-6.2-5.6-8.6c-2.4-2.4-4.2-3.3-5.6-2.6
			c-1.3,0.7-2,2.6-2,5.8c0,3.2,0.7,6.5,2,9.9c1.3,3.4,3.2,6.3,5.5,8.7C324.2,159.6,326,160.5,327.4,159.9z"/>
	</g>
	<path display="inline" fill="#FFFFFF" d="M231.4,304h-60.5c-1.6,0-2.9-1.4-2.9-3.2v-3.3c0-1.7,1.3-3.2,2.9-3.2h60.5
		c1.6,0,2.9,1.4,2.9,3.2v3.3C234.3,302.6,233,304,231.4,304z"/>
</g>
</svg>
