<?xml version="1.0" encoding="utf-8"?>
<!-- Generator: Adobe Illustrator 17.1.0, SVG Export Plug-In . SVG Version: 6.00 Build 0)  -->
<!DOCTYPE svg PUBLIC "-//W3C//DTD SVG 1.1//EN" "http://www.w3.org/Graphics/SVG/1.1/DTD/svg11.dtd">
<svg version="1.1" xmlns="http://www.w3.org/2000/svg" xmlns:xlink="http://www.w3.org/1999/xlink" x="0px" y="0px"
	 viewBox="0 0 500 500" enable-background="new 0 0 500 500" xml:space="preserve">
<g id="Layer_1">
	<g>
		<path fill="#FF0000" d="M167.9,360.5l-48.8-150.1c-0.7-2.1,0.1-4.4,1.9-5.7L248.6,112c1.8-1.3,4.2-1.3,6,0l127.7,92.8
			c1.8,1.3,2.6,3.6,1.9,5.7l-48.8,150.1c-0.7,2.1-2.7,3.5-4.9,3.5H172.8C170.5,364.1,168.6,362.7,167.9,360.5z"/>
		<path fill="#FF0000" d="M50.9,189.4l-1.1,124.3c0,0.8,0.2,1.6,0.7,2.2l71.8,100.7c1.5,2.1,4.5,2.1,6.1,0.1l39.6-51.6
			c0.8-1,1-2.3,0.6-3.5l-49.9-153.5c-0.4-1.1-1.3-2-2.4-2.4l-60.5-19.9C53.4,185.1,50.9,186.9,50.9,189.4z"/>
		<path fill="#FF0000" d="M452.8,189.4l1.1,124.3c0,0.8-0.2,1.6-0.7,2.2l-71.8,100.7c-1.5,2.1-4.5,2.1-6.1,0.1l-39.6-51.6
			c-0.8-1-1-2.3-0.6-3.5L385,208.2c0.4-1.1,1.3-2,2.4-2.4l60.5-19.9C450.3,185.1,452.8,186.9,452.8,189.4z"/>
		<path fill="#FF0000" d="M372.1,422.9l-117.9,39.4c-0.8,0.3-1.6,0.3-2.3,0l-118-37.2c-2.4-0.8-3.4-3.7-2-5.7l36.9-53.6
			c0.7-1,1.9-1.6,3.1-1.6l161.4,0.1c1.2,0,2.3,0.6,3,1.5l37.6,51.4C375.5,419.1,374.5,422.1,372.1,422.9z"/>
		<path fill="#FF0000" d="M448.2,179.6L376,78.4c-0.5-0.6-1.1-1.1-1.9-1.4L256.8,37.8c-2.4-0.8-6.6,0.9-6.7,3.5l0,65.1
			c0,1.2,0.5,2.4,1.6,3.2l130.6,94.9c1,0.7,2.2,0.9,3.4,0.5l60.6-19.4C448.7,184.6,449.7,181.7,448.2,179.6z"/>
		<path fill="#FF0000" d="M53.6,179.6l72.2-101.2c0.5-0.6,1.1-1.1,1.9-1.4L245,37.8c2.4-0.8,6.6,0.9,6.7,3.5l0,65.1
			c0,1.2-0.5,2.4-1.6,3.2l-130.6,94.9c-1,0.7-2.2,0.9-3.4,0.5l-60.6-19.4C53.1,184.6,52.2,181.7,53.6,179.6z"/>
	</g>
	<g>
		<path fill="#FFA500" d="M167.9,360.5l-48.8-150.1c-0.7-2.1,0.1-4.4,1.9-5.7L248.6,112c1.8-1.3,4.2-1.3,6,0l127.7,92.8
			c1.8,1.3,2.6,3.6,1.9,5.7l-48.8,150.1c-0.7,2.1-2.7,3.5-4.9,3.5H172.8C170.5,364.1,168.6,362.7,167.9,360.5z"/>
		<path fill="#FFA500" d="M50.9,189.4l-1.1,124.3c0,0.8,0.2,1.6,0.7,2.2l71.8,100.7c1.5,2.1,4.5,2.1,6.1,0.1l39.6-51.6
			c0.8-1,1-2.3,0.6-3.5l-49.9-153.5c-0.4-1.1-1.3-2-2.4-2.4l-60.5-19.9C53.4,185.1,50.9,186.9,50.9,189.4z"/>
		<path fill="#FFA500" d="M452.8,189.4l1.1,124.3c0,0.8-0.2,1.6-0.7,2.2l-71.8,100.7c-1.5,2.1-4.5,2.1-6.1,0.1l-39.6-51.6
			c-0.8-1-1-2.3-0.6-3.5L385,208.2c0.4-1.1,1.3-2,2.4-2.4l60.5-19.9C450.3,185.1,452.8,186.9,452.8,189.4z"/>
		<path fill="#FFA500" d="M372.1,422.9l-117.9,39.4c-0.8,0.3-1.6,0.3-2.3,0l-118-37.2c-2.4-0.8-3.4-3.7-2-5.7l36.9-53.6
			c0.7-1,1.9-1.6,3.1-1.6l161.4,0.1c1.2,0,2.3,0.6,3,1.5l37.6,51.4C375.5,419.1,374.5,422.1,372.1,422.9z"/>
		<path fill="#FFA500" d="M448.2,179.6L376,78.4c-0.5-0.6-1.1-1.1-1.9-1.4L256.8,37.8c-2.4-0.8-6.6,0.9-6.7,3.5l0,65.1
			c0,1.2,0.5,2.4,1.6,3.2l130.6,94.9c1,0.7,2.2,0.9,3.4,0.5l60.6-19.4C448.7,184.6,449.7,181.7,448.2,179.6z"/>
		<path fill="#FFA500" d="M53.6,179.6l72.2-101.2c0.5-0.6,1.1-1.1,1.9-1.4L245,37.8c2.4-0.8,6.6,0.9,6.7,3.5l0,65.1
			c0,1.2-0.5,2.4-1.6,3.2l-130.6,94.9c-1,0.7-2.2,0.9-3.4,0.5l-60.6-19.4C53.1,184.6,52.2,181.7,53.6,179.6z"/>
	</g>
	<g display="none">
		<path display="inline" fill="#FFFF00" d="M167.9,360.5l-48.8-150.1c-0.7-2.1,0.1-4.4,1.9-5.7L248.6,112c1.8-1.3,4.2-1.3,6,0
			l127.7,92.8c1.8,1.3,2.6,3.6,1.9,5.7l-48.8,150.1c-0.7,2.1-2.7,3.5-4.9,3.5H172.8C170.5,364.1,168.6,362.7,167.9,360.5z"/>
		<path display="inline" fill="#FFFF00" d="M50.9,189.4l-1.1,124.3c0,0.8,0.2,1.6,0.7,2.2l71.8,100.7c1.5,2.1,4.5,2.1,6.1,0.1
			l39.6-51.6c0.8-1,1-2.3,0.6-3.5l-49.9-153.5c-0.4-1.1-1.3-2-2.4-2.4l-60.5-19.9C53.4,185.1,50.9,186.9,50.9,189.4z"/>
		<path display="inline" fill="#FFFF00" d="M452.8,189.4l1.1,124.3c0,0.8-0.2,1.6-0.7,2.2l-71.8,100.7c-1.5,2.1-4.5,2.1-6.1,0.1
			l-39.6-51.6c-0.8-1-1-2.3-0.6-3.5L385,208.2c0.4-1.1,1.3-2,2.4-2.4l60.5-19.9C450.3,185.1,452.8,186.9,452.8,189.4z"/>
		<path display="inline" fill="#FFFF00" d="M372.1,422.9l-117.9,39.4c-0.8,0.3-1.6,0.3-2.3,0l-118-37.2c-2.4-0.8-3.4-3.7-2-5.7
			l36.9-53.6c0.7-1,1.9-1.6,3.1-1.6l161.4,0.1c1.2,0,2.3,0.6,3,1.5l37.6,51.4C375.5,419.1,374.5,422.1,372.1,422.9z"/>
		<path display="inline" fill="#FFFF00" d="M448.2,179.6L376,78.4c-0.5-0.6-1.1-1.1-1.9-1.4L256.8,37.8c-2.4-0.8-6.6,0.9-6.7,3.5
			l0,65.1c0,1.2,0.5,2.4,1.6,3.2l130.6,94.9c1,0.7,2.2,0.9,3.4,0.5l60.6-19.4C448.7,184.6,449.7,181.7,448.2,179.6z"/>
		<path display="inline" fill="#FFFF00" d="M53.6,179.6l72.2-101.2c0.5-0.6,1.1-1.1,1.9-1.4L245,37.8c2.4-0.8,6.6,0.9,6.7,3.5
			l0,65.1c0,1.2-0.5,2.4-1.6,3.2l-130.6,94.9c-1,0.7-2.2,0.9-3.4,0.5l-60.6-19.4C53.1,184.6,52.2,181.7,53.6,179.6z"/>
	</g>
	<g display="none">
		<path display="inline" fill="#00FF00" d="M167.9,360.5l-48.8-150.1c-0.7-2.1,0.1-4.4,1.9-5.7L248.6,112c1.8-1.3,4.2-1.3,6,0
			l127.7,92.8c1.8,1.3,2.6,3.6,1.9,5.7l-48.8,150.1c-0.7,2.1-2.7,3.5-4.9,3.5H172.8C170.5,364.1,168.6,362.7,167.9,360.5z"/>
		<path display="inline" fill="#00FF00" d="M50.9,189.4l-1.1,124.3c0,0.8,0.2,1.6,0.7,2.2l71.8,100.7c1.5,2.1,4.5,2.1,6.1,0.1
			l39.6-51.6c0.8-1,1-2.3,0.6-3.5l-49.9-153.5c-0.4-1.1-1.3-2-2.4-2.4l-60.5-19.9C53.4,185.1,50.9,186.9,50.9,189.4z"/>
		<path display="inline" fill="#00FF00" d="M452.8,189.4l1.1,124.3c0,0.8-0.2,1.6-0.7,2.2l-71.8,100.7c-1.5,2.1-4.5,2.1-6.1,0.1
			l-39.6-51.6c-0.8-1-1-2.3-0.6-3.5L385,208.2c0.4-1.1,1.3-2,2.4-2.4l60.5-19.9C450.3,185.1,452.8,186.9,452.8,189.4z"/>
		<path display="inline" fill="#00FF00" d="M372.1,422.9l-117.9,39.4c-0.8,0.3-1.6,0.3-2.3,0l-118-37.2c-2.4-0.8-3.4-3.7-2-5.7
			l36.9-53.6c0.7-1,1.9-1.6,3.1-1.6l161.4,0.1c1.2,0,2.3,0.6,3,1.5l37.6,51.4C375.5,419.1,374.5,422.1,372.1,422.9z"/>
		<path display="inline" fill="#00FF00" d="M448.2,179.6L376,78.4c-0.5-0.6-1.1-1.1-1.9-1.4L256.8,37.8c-2.4-0.8-6.6,0.9-6.7,3.5
			l0,65.1c0,1.2,0.5,2.4,1.6,3.2l130.6,94.9c1,0.7,2.2,0.9,3.4,0.5l60.6-19.4C448.7,184.6,449.7,181.7,448.2,179.6z"/>
		<path display="inline" fill="#00FF00" d="M53.6,179.6l72.2-101.2c0.5-0.6,1.1-1.1,1.9-1.4L245,37.8c2.4-0.8,6.6,0.9,6.7,3.5
			l0,65.1c0,1.2-0.5,2.4-1.6,3.2l-130.6,94.9c-1,0.7-2.2,0.9-3.4,0.5l-60.6-19.4C53.1,184.6,52.2,181.7,53.6,179.6z"/>
	</g>
	<g display="none">
		<path display="inline" fill="#0000FF" d="M167.9,360.5l-48.8-150.1c-0.7-2.1,0.1-4.4,1.9-5.7L248.6,112c1.8-1.3,4.2-1.3,6,0
			l127.7,92.8c1.8,1.3,2.6,3.6,1.9,5.7l-48.8,150.1c-0.7,2.1-2.7,3.5-4.9,3.5H172.8C170.5,364.1,168.6,362.7,167.9,360.5z"/>
		<path display="inline" fill="#0000FF" d="M50.9,189.4l-1.1,124.3c0,0.8,0.2,1.6,0.7,2.2l71.8,100.7c1.5,2.1,4.5,2.1,6.1,0.1
			l39.6-51.6c0.8-1,1-2.3,0.6-3.5l-49.9-153.5c-0.4-1.1-1.3-2-2.4-2.4l-60.5-19.9C53.4,185.1,50.9,186.9,50.9,189.4z"/>
		<path display="inline" fill="#0000FF" d="M452.8,189.4l1.1,124.3c0,0.8-0.2,1.6-0.7,2.2l-71.8,100.7c-1.5,2.1-4.5,2.1-6.1,0.1
			l-39.6-51.6c-0.8-1-1-2.3-0.6-3.5L385,208.2c0.4-1.1,1.3-2,2.4-2.4l60.5-19.9C450.3,185.1,452.8,186.9,452.8,189.4z"/>
		<path display="inline" fill="#0000FF" d="M372.1,422.9l-117.9,39.4c-0.8,0.3-1.6,0.3-2.3,0l-118-37.2c-2.4-0.8-3.4-3.7-2-5.7
			l36.9-53.6c0.7-1,1.9-1.6,3.1-1.6l161.4,0.1c1.2,0,2.3,0.6,3,1.5l37.6,51.4C375.5,419.1,374.5,422.1,372.1,422.9z"/>
		<path display="inline" fill="#0000FF" d="M448.2,179.6L376,78.4c-0.5-0.6-1.1-1.1-1.9-1.4L256.8,37.8c-2.4-0.8-6.6,0.9-6.7,3.5
			l0,65.1c0,1.2,0.5,2.4,1.6,3.2l130.6,94.9c1,0.7,2.2,0.9,3.4,0.5l60.6-19.4C448.7,184.6,449.7,181.7,448.2,179.6z"/>
		<path display="inline" fill="#0000FF" d="M53.6,179.6l72.2-101.2c0.5-0.6,1.1-1.1,1.9-1.4L245,37.8c2.4-0.8,6.6,0.9,6.7,3.5
			l0,65.1c0,1.2-0.5,2.4-1.6,3.2l-130.6,94.9c-1,0.7-2.2,0.9-3.4,0.5l-60.6-19.4C53.1,184.6,52.2,181.7,53.6,179.6z"/>
	</g>
	<g display="none">
		<path display="inline" fill="#4B0082" d="M167.9,360.5l-48.8-150.1c-0.7-2.1,0.1-4.4,1.9-5.7L248.6,112c1.8-1.3,4.2-1.3,6,0
			l127.7,92.8c1.8,1.3,2.6,3.6,1.9,5.7l-48.8,150.1c-0.7,2.1-2.7,3.5-4.9,3.5H172.8C170.5,364.1,168.6,362.7,167.9,360.5z"/>
		<path display="inline" fill="#4B0082" d="M50.9,189.4l-1.1,124.3c0,0.8,0.2,1.6,0.7,2.2l71.8,100.7c1.5,2.1,4.5,2.1,6.1,0.1
			l39.6-51.6c0.8-1,1-2.3,0.6-3.5l-49.9-153.5c-0.4-1.1-1.3-2-2.4-2.4l-60.5-19.9C53.4,185.1,50.9,186.9,50.9,189.4z"/>
		<path display="inline" fill="#4B0082" d="M452.8,189.4l1.1,124.3c0,0.8-0.2,1.6-0.7,2.2l-71.8,100.7c-1.5,2.1-4.5,2.1-6.1,0.1
			l-39.6-51.6c-0.8-1-1-2.3-0.6-3.5L385,208.2c0.4-1.1,1.3-2,2.4-2.4l60.5-19.9C450.3,185.1,452.8,186.9,452.8,189.4z"/>
		<path display="inline" fill="#4B0082" d="M372.1,422.9l-117.9,39.4c-0.8,0.3-1.6,0.3-2.3,0l-118-37.2c-2.4-0.8-3.4-3.7-2-5.7
			l36.9-53.6c0.7-1,1.9-1.6,3.1-1.6l161.4,0.1c1.2,0,2.3,0.6,3,1.5l37.6,51.4C375.5,419.1,374.5,422.1,372.1,422.9z"/>
		<path display="inline" fill="#4B0082" d="M448.2,179.6L376,78.4c-0.5-0.6-1.1-1.1-1.9-1.4L256.8,37.8c-2.4-0.8-6.6,0.9-6.7,3.5
			l0,65.1c0,1.2,0.5,2.4,1.6,3.2l130.6,94.9c1,0.7,2.2,0.9,3.4,0.5l60.6-19.4C448.7,184.6,449.7,181.7,448.2,179.6z"/>
		<path display="inline" fill="#4B0082" d="M53.6,179.6l72.2-101.2c0.5-0.6,1.1-1.1,1.9-1.4L245,37.8c2.4-0.8,6.6,0.9,6.7,3.5
			l0,65.1c0,1.2-0.5,2.4-1.6,3.2l-130.6,94.9c-1,0.7-2.2,0.9-3.4,0.5l-60.6-19.4C53.1,184.6,52.2,181.7,53.6,179.6z"/>
	</g>
	<g display="none">
		<path display="inline" fill="#800080" d="M167.9,360.5l-48.8-150.1c-0.7-2.1,0.1-4.4,1.9-5.7L248.6,112c1.8-1.3,4.2-1.3,6,0
			l127.7,92.8c1.8,1.3,2.6,3.6,1.9,5.7l-48.8,150.1c-0.7,2.1-2.7,3.5-4.9,3.5H172.8C170.5,364.1,168.6,362.7,167.9,360.5z"/>
		<path display="inline" fill="#800080" d="M50.9,189.4l-1.1,124.3c0,0.8,0.2,1.6,0.7,2.2l71.8,100.7c1.5,2.1,4.5,2.1,6.1,0.1
			l39.6-51.6c0.8-1,1-2.3,0.6-3.5l-49.9-153.5c-0.4-1.1-1.3-2-2.4-2.4l-60.5-19.9C53.4,185.1,50.9,186.9,50.9,189.4z"/>
		<path display="inline" fill="#800080" d="M452.8,189.4l1.1,124.3c0,0.8-0.2,1.6-0.7,2.2l-71.8,100.7c-1.5,2.1-4.5,2.1-6.1,0.1
			l-39.6-51.6c-0.8-1-1-2.3-0.6-3.5L385,208.2c0.4-1.1,1.3-2,2.4-2.4l60.5-19.9C450.3,185.1,452.8,186.9,452.8,189.4z"/>
		<path display="inline" fill="#800080" d="M372.1,422.9l-117.9,39.4c-0.8,0.3-1.6,0.3-2.3,0l-118-37.2c-2.4-0.8-3.4-3.7-2-5.7
			l36.9-53.6c0.7-1,1.9-1.6,3.1-1.6l161.4,0.1c1.2,0,2.3,0.6,3,1.5l37.6,51.4C375.5,419.1,374.5,422.1,372.1,422.9z"/>
		<path display="inline" fill="#800080" d="M448.2,179.6L376,78.4c-0.5-0.6-1.1-1.1-1.9-1.4L256.8,37.8c-2.4-0.8-6.6,0.9-6.7,3.5
			l0,65.1c0,1.2,0.5,2.4,1.6,3.2l130.6,94.9c1,0.7,2.2,0.9,3.4,0.5l60.6-19.4C448.7,184.6,449.7,181.7,448.2,179.6z"/>
		<path display="inline" fill="#800080" d="M53.6,179.6l72.2-101.2c0.5-0.6,1.1-1.1,1.9-1.4L245,37.8c2.4-0.8,6.6,0.9,6.7,3.5
			l0,65.1c0,1.2-0.5,2.4-1.6,3.2l-130.6,94.9c-1,0.7-2.2,0.9-3.4,0.5l-60.6-19.4C53.1,184.6,52.2,181.7,53.6,179.6z"/>
	</g>
	<g>
		<path fill="none" stroke="#FFFFFF" stroke-width="12" stroke-miterlimit="10" d="M167.9,360.5l-48.8-150.1
			c-0.7-2.1,0.1-4.4,1.9-5.7L248.6,112c1.8-1.3,4.2-1.3,6,0l127.7,92.8c1.8,1.3,2.6,3.6,1.9,5.7l-48.8,150.1
			c-0.7,2.1-2.7,3.5-4.9,3.5H172.8C170.5,364.1,168.6,362.7,167.9,360.5z"/>
		<path fill="none" stroke="#FFFFFF" stroke-width="12" stroke-miterlimit="10" d="M50.9,189.4l-1.1,124.3c0,0.8,0.2,1.6,0.7,2.2
			l71.8,100.7c1.5,2.1,4.5,2.1,6.1,0.1l39.6-51.6c0.8-1,1-2.3,0.6-3.5l-49.9-153.5c-0.4-1.1-1.3-2-2.4-2.4l-60.5-19.9
			C53.4,185.1,50.9,186.9,50.9,189.4z"/>
		<path fill="none" stroke="#FFFFFF" stroke-width="12" stroke-miterlimit="10" d="M452.8,189.4l1.1,124.3c0,0.8-0.2,1.6-0.7,2.2
			l-71.8,100.7c-1.5,2.1-4.5,2.1-6.1,0.1l-39.6-51.6c-0.8-1-1-2.3-0.6-3.5L385,208.2c0.4-1.1,1.3-2,2.4-2.4l60.5-19.9
			C450.3,185.1,452.8,186.9,452.8,189.4z"/>
		<path fill="none" stroke="#FFFFFF" stroke-width="12" stroke-miterlimit="10" d="M372.1,422.9l-117.9,39.4c-0.8,0.3-1.6,0.3-2.3,0
			l-118-37.2c-2.4-0.8-3.4-3.7-2-5.7l36.9-53.6c0.7-1,1.9-1.6,3.1-1.6l161.4,0.1c1.2,0,2.3,0.6,3,1.5l37.6,51.4
			C375.5,419.1,374.5,422.1,372.1,422.9z"/>
		<path fill="none" stroke="#FFFFFF" stroke-width="12" stroke-miterlimit="10" d="M448.2,179.6L376,78.4c-0.5-0.6-1.1-1.1-1.9-1.4
			L256.8,37.8c-2.4-0.8-6.6,0.9-6.7,3.5l0,65.1c0,1.2,0.5,2.4,1.6,3.2l130.6,94.9c1,0.7,2.2,0.9,3.4,0.5l60.6-19.4
			C448.7,184.6,449.7,181.7,448.2,179.6z"/>
		<path fill="none" stroke="#FFFFFF" stroke-width="12" stroke-miterlimit="10" d="M53.6,179.6l72.2-101.2c0.5-0.6,1.1-1.1,1.9-1.4
			L245,37.8c2.4-0.8,6.6,0.9,6.7,3.5l0,65.1c0,1.2-0.5,2.4-1.6,3.2l-130.6,94.9c-1,0.7-2.2,0.9-3.4,0.5l-60.6-19.4
			C53.1,184.6,52.2,181.7,53.6,179.6z"/>
	</g>
</g>
<g id="Layer_2" display="none">
	<g display="inline">
		<path fill="#FFFFFF" d="M194.8,230.1V210h35.9v88.7h-22.6v-68.7H194.8z"/>
		<path fill="#FFFFFF" d="M282.2,236.4c0-6.9-3-10.3-8.9-10.3c-3.3,0-5.8,1.2-7.3,3.5c-1.5,2.3-2.4,6-2.6,10.9h-21
			c0.5-10.8,3.8-18.9,9.8-24.3c6-5.4,13.6-8.2,22.8-8.2c9.6,0,16.9,2.4,21.8,7.3c4.9,4.9,7.3,11.2,7.3,19c0,8.6-3.3,17-9.9,25.3
			c-6.6,8.2-14.5,15.2-23.7,20.9h35v17.3h-63.3v-16.1C268.9,262.7,282.2,247.6,282.2,236.4z"/>
	</g>
	<g display="inline">
		<path fill="#FFFFFF" d="M74,286.1l45.4,11.1l5.3,16.4l-44.2-11.8l9,27.8l-9.5,3.1l-14.3-43.9L74,286.1z"/>
	</g>
	<g display="inline">
		<path fill="#FFFFFF" d="M275.1,428.8c-1.9,2-4.7,3.7-8.4,4.9c-3.7,1.3-8.3,1.9-13.6,1.9c-5.4,0-9.9-0.6-13.7-1.9
			c-3.7-1.3-6.5-2.9-8.4-4.9s-2.8-4.2-2.8-6.5c0-2.5,0.8-4.7,2.5-6.5c1.7-1.8,4.2-3.1,7.4-4.1c-7.7-2.4-11.6-6.4-11.6-12.1
			c0-3.2,1.2-6,3.5-8.4c2.3-2.3,5.5-4.1,9.5-5.3c4-1.2,8.5-1.8,13.5-1.8c4.9,0,9.4,0.6,13.4,1.8c4,1.2,7.2,3,9.5,5.3
			c2.3,2.3,3.5,5.1,3.5,8.4c0,5.7-3.9,9.7-11.6,12.1c3.2,0.9,5.7,2.3,7.4,4.1c1.7,1.8,2.5,3.9,2.5,6.5
			C278,424.6,277,426.8,275.1,428.8z M260.7,395.5c-1.8-1.2-4.4-1.8-7.5-1.8c-3.2,0-5.7,0.6-7.5,1.8c-1.8,1.2-2.8,2.8-2.8,4.8
			c0,2,1,3.6,2.9,4.8c1.9,1.2,4.4,1.7,7.4,1.7c3,0,5.5-0.6,7.4-1.7c1.9-1.1,2.9-2.7,2.9-4.8C263.5,398.3,262.5,396.7,260.7,395.5z
			 M259.3,416.1c-1.5-1-3.6-1.5-6.2-1.5c-2.6,0-4.7,0.5-6.2,1.5c-1.5,1-2.3,2.4-2.3,4.2c0,1.8,0.8,3.2,2.3,4.3
			c1.6,1,3.6,1.6,6.1,1.6c2.5,0,4.6-0.5,6.1-1.6c1.6-1,2.3-2.5,2.3-4.3C261.6,418.5,260.8,417.1,259.3,416.1z"/>
	</g>
	<g display="inline">
		<path fill="#FFFFFF" d="M411.3,308.1c3.5,1.1,6-0.5,7.4-4.9c0.8-2.5,0.8-4.5,0-6c-0.8-1.5-2.5-2.8-5-3.7l5-15.5
			c5.4,2.2,8.8,5.9,10.1,11.3c1.3,5.3,0.9,11.4-1.3,18.2c-2.3,7.1-5.3,12-8.9,14.8c-3.7,2.8-7.5,3.6-11.5,2.3
			c-4.4-1.4-7.9-5.3-10.6-11.5c-2.6-6.2-4.3-13.2-5-21l-8.4,25.8l-8.9-2.9l15.2-46.6l8.2,2.7C401,293.9,405.6,306.2,411.3,308.1z"/>
	</g>
	<g display="inline">
		<path fill="#FFFFFF" d="M371.3,106.7c2.1,3,3.3,5.8,3.6,8.4c0.3,2.7-0.3,5-1.8,7.1c-1.8,2.5-4.2,3.9-7.2,4c-3,0.2-6-0.5-9.1-2.2
			l-0.2,0.3c6,6.8,7.3,12.6,4,17.2c-1.6,2.2-3.8,3.7-6.5,4.3c-2.7,0.7-5.8,0.5-9.4-0.6c-3.5-1.1-7.2-3-11.2-5.9
			c-6.4-4.7-10.7-9.4-12.8-14.3c-2.2-4.9-1.8-9.7,1.2-14.4l13.1,9.6c-1.1,1.8-1.4,3.6-0.9,5.5c0.5,1.9,2,3.7,4.4,5.5
			c1.9,1.4,3.8,2.1,5.5,2.1c1.7,0,3-0.6,4-1.9c2.3-3.2,0.2-7.2-6.5-12l-2.5-1.8l5.5-7.6l2.4,1.8c5.9,4.4,9.9,5.1,12.1,2
			c1-1.3,1.2-2.7,0.7-4.2c-0.5-1.5-1.6-2.8-3.4-4.1c-1.9-1.4-3.7-2-5.5-1.9c-1.8,0.1-3.3,0.8-4.5,2.2l-13.1-9.6
			c3.2-3.9,7.3-5.7,12.3-5.4c5,0.3,10.6,2.7,16.7,7.1C366.2,100.9,369.2,103.8,371.3,106.7z"/>
	</g>
	<g display="inline">
		<path fill="#FFFFFF" d="M119.9,125l-6.4-8.8l22.5-16.4l28.1,38.7L150,148.9L128.2,119L119.9,125z"/>
		<path fill="#FFFFFF" d="M147.9,104.7l-6.4-8.8l22.5-16.4l28.1,38.7L178,128.5l-21.8-29.9L147.9,104.7z"/>
	</g>
</g>
<g id="Layer_3" display="none">
	<g display="inline">
		<path fill="#FFFFFF" d="M207.9,230.1V210h35.9v88.7h-22.6v-68.7H207.9z"/>
		<path fill="#FFFFFF" d="M252.6,230.1V210h35.9v88.7h-22.6v-68.7H252.6z"/>
	</g>
	<g display="inline">
		<path fill="#FFFFFF" d="M74,286.1l45.4,11.1l5.3,16.4l-44.2-11.8l9,27.8l-9.5,3.1l-14.3-43.9L74,286.1z"/>
	</g>
	<g display="inline">
		<path fill="#FFFFFF" d="M296.9,422.2V433H269v-47.8h17.5v37H296.9z"/>
		<path fill="#FFFFFF" d="M229.1,418.8c0,3.7,2.3,5.5,6.9,5.5c2.6,0,4.5-0.6,5.7-1.9c1.2-1.3,1.9-3.2,2-5.9h16.2
			c-0.4,5.8-2.9,10.2-7.6,13.1c-4.7,2.9-10.6,4.4-17.7,4.4c-7.5,0-13.1-1.3-16.9-3.9c-3.8-2.6-5.7-6-5.7-10.2
			c0-4.6,2.6-9.2,7.7-13.6c5.1-4.4,11.3-8.2,18.4-11.3H211v-9.3h49v8.7C239.4,404.7,229.1,412.8,229.1,418.8z"/>
	</g>
	<g display="inline">
		<path fill="#FFFFFF" d="M423.4,317.9c-2.2,2.9-4.5,4.9-6.9,6c-2.5,1.1-4.9,1.2-7.3,0.4c-3-1-5-2.8-6.1-5.6
			c-1.1-2.8-1.3-5.9-0.7-9.3l-0.3-0.1c-4.6,7.8-9.7,10.9-15.1,9.1c-2.6-0.9-4.7-2.5-6.1-4.9c-1.5-2.4-2.2-5.4-2.3-9.1
			c-0.1-3.7,0.7-7.8,2.2-12.4c2.4-7.5,5.7-13.1,9.7-16.7c4-3.6,8.7-4.7,14.1-3.3l-5,15.5c-2.1-0.5-3.9-0.2-5.5,0.9
			c-1.6,1.1-2.9,3.1-3.8,5.9c-0.7,2.3-0.9,4.2-0.3,5.9c0.5,1.6,1.5,2.7,3,3.2c3.7,1.2,6.9-2.1,9.4-9.8l1-3l8.9,2.9l-0.9,2.9
			c-2.4,6.9-1.7,11,1.8,12.1c1.5,0.5,2.9,0.3,4.2-0.6c1.2-0.9,2.2-2.4,2.8-4.5c0.7-2.2,0.8-4.1,0.1-5.8c-0.6-1.6-1.8-2.8-3.5-3.6
			l5-15.5c4.7,1.9,7.7,5.2,9,10.1c1.3,4.8,0.7,10.9-1.6,18.1C427.4,311.3,425.6,315,423.4,317.9z"/>
	</g>
	<g display="inline">
		<path fill="#FFFFFF" d="M315.2,114.7l5.7-7.8l43-5.8l14.5,10.5L361,135.5l6.7,4.9l-5.9,8.2l-6.7-4.9l-5.2,7.1l-13.6-9.9l5.2-7.1
			L315.2,114.7z M358,113.4l-23.2,3.1l13.7,10L358,113.4z"/>
	</g>
	<g display="inline">
		<path fill="#FFFFFF" d="M108.6,133.3l-6.4-8.8l22.5-16.4l28.1,38.7l-14.2,10.3l-21.8-29.9L108.6,133.3z"/>
		<path fill="#FFFFFF" d="M146.4,121.3c-4.4-6-6.1-12.1-5.1-18.1c1-6.1,5.3-11.9,13-17.5c7.7-5.6,14.5-7.9,20.6-6.9
			c6.1,0.9,11.3,4.4,15.7,10.5c4.4,6.1,6.1,12.1,5.1,18.3c-1,6.1-5.3,12-12.9,17.5c-7.7,5.6-14.6,7.9-20.7,6.9
			C156.1,130.9,150.8,127.4,146.4,121.3z M177.3,98.9c-2.5-3.5-5-5.7-7.6-6.7c-2.5-1-5.5-0.2-9,2.3c-3.5,2.6-5.2,5.2-5.1,7.9
			c0.1,2.7,1.5,5.8,4,9.3c2.5,3.5,5.1,5.7,7.6,6.7c2.6,1,5.6,0.2,9.1-2.3c3.5-2.5,5.1-5.1,4.9-7.9
			C181.1,105.5,179.8,102.4,177.3,98.9z"/>
	</g>
</g>
<g id="Layer_4" display="none">
	<g display="inline">
		<path fill="#FFFFFF" d="M189.9,230.1V210h35.9v88.7h-22.6v-68.7H189.9z"/>
		<path fill="#FFFFFF" d="M238.4,253.5c0-13.8,2.8-24.7,8.4-32.8c5.6-8.1,14.6-12.1,26.9-12.1c12.2,0,21.1,4,26.8,12.1
			c5.6,8.1,8.5,19,8.5,32.8c0,13.9-2.8,24.9-8.5,33c-5.6,8.1-14.6,12.2-26.8,12.2c-12.3,0-21.3-4.1-26.9-12.2
			C241.2,278.3,238.4,267.3,238.4,253.5z M287.6,253.5c0-7.9-0.9-14-2.8-18.3c-1.9-4.2-5.6-6.3-11.1-6.3c-5.6,0-9.4,2.1-11.3,6.4
			c-1.9,4.3-2.9,10.3-2.9,18.2c0,8,1,14.1,2.9,18.4c1.9,4.3,5.7,6.5,11.3,6.5c5.5,0,9.2-2.2,11.1-6.5
			C286.7,267.5,287.6,261.4,287.6,253.5z"/>
	</g>
	<g display="inline">
		<path fill="#FFFFFF" d="M74,286.1l45.4,11.1l5.3,16.4l-44.2-11.8l9,27.8l-9.5,3.1l-14.3-43.9L74,286.1z"/>
	</g>
	<g display="inline">
		<path fill="#FFFFFF" d="M286.7,422.2V433h-27.8v-47.8h17.5v37H286.7z"/>
		<path fill="#FFFFFF" d="M252,422.2V433h-27.8v-47.8h17.5v37H252z"/>
	</g>
	<g display="inline">
		<path fill="#FFFFFF" d="M398.5,267l9.2,3l18.8,39.1l-5.5,17l-28.1-9.1l-2.6,7.9l-9.6-3.1l2.6-7.9l-8.4-2.7l5.2-16l8.4,2.7
			L398.5,267z M413,307.3l-10.1-21.1l-5.2,16.1L413,307.3z"/>
	</g>
	<g display="inline">
		<path fill="#FFFFFF" d="M374.9,121l-25-18.2l-5.7,7.8c1.7-0.1,3.8,0.4,6.1,1.3c2.3,0.9,4.6,2.2,7,3.9c3.7,2.7,6.4,5.6,8.1,8.5
			c1.7,3,2.4,5.9,2.2,8.7c-0.2,2.8-1.1,5.4-2.8,7.7c-3.1,4.2-7.2,6.3-12.4,6.3c-5.2,0-10.9-2.3-17.1-6.8c-4.2-3.1-7.5-6.2-9.8-9.5
			s-3.7-6.5-4-9.6c-0.3-3.1,0.3-5.9,2-8.4l13.1,9.6c-0.6,1.4-0.7,3-0.1,4.6c0.6,1.7,1.9,3.2,4,4.7c2.4,1.7,4.5,2.5,6.5,2.3
			c1.9-0.2,3.6-1.2,4.8-2.9c1.2-1.7,1.5-3.4,0.9-5.3c-0.6-1.8-2-3.6-4.3-5.2c-1.7-1.3-3.4-2-4.9-2.4c-1.5-0.3-2.8-0.2-3.9,0.3
			l-13.1-9.5l17-23.4l37.2,27.1L374.9,121z"/>
	</g>
	<g display="inline">
		<path fill="#FFFFFF" d="M150.5,100.3c-1.7,0-3.5,0.7-5.5,2.1c-3,2.2-4.5,4.8-4.4,7.6c0.1,2.9,1.7,6.3,4.8,10.3
			c-0.2-2.1,0.5-4.4,2-6.9c1.6-2.4,3.8-4.7,6.7-6.8c5.2-3.8,10.2-5.7,14.8-5.7c4.6,0,8.5,2.1,11.5,6.2c1.9,2.6,2.8,5.4,2.7,8.6
			c-0.1,3.1-1.2,6.3-3.3,9.6c-2.2,3.3-5.3,6.4-9.5,9.4c-8.1,5.9-15,8.2-20.7,7c-5.6-1.3-10.7-5-15.2-11.2
			c-5.2-7.2-7.4-13.6-6.5-19.4c0.9-5.8,5-11.4,12.5-16.8c5.9-4.3,11.2-6.4,15.9-6.2c4.7,0.1,8.6,1.8,11.5,5.1l-12.6,9.2
			C153.7,101,152.1,100.3,150.5,100.3z M156.9,129.8c2.1,0,4.5-0.9,7.1-2.8c2.4-1.7,3.9-3.5,4.6-5.4s0.4-3.7-0.9-5.5
			c-1.3-1.8-2.9-2.6-5-2.5c-2,0.1-4.2,0.9-6.6,2.7c-2.3,1.6-3.8,3.5-4.7,5.5c-0.9,2-0.7,3.8,0.5,5.5
			C153.1,128.9,154.8,129.7,156.9,129.8z"/>
	</g>
	<path display="inline" fill="#FFFFFF" d="M200.7,131.1l-43.4,31.1c-2,1.4-4.8,1-6.2-1l-1.2-1.7c-1.4-2-1-4.8,1-6.2l43.4-31.1
		c2-1.4,4.8-1,6.2,1l1.2,1.7C203.2,126.9,202.7,129.6,200.7,131.1z"/>
</g>
<g id="Layer_5" display="none">
	<g display="inline">
		<path fill="#FFFFFF" d="M251.9,282.4c4.9,0,8.3-2.2,10.2-6.7c2-4.4,2.9-11.3,2.7-20.7c-1.4,3.4-3.9,6.1-7.3,8.1
			c-3.5,2-7.5,2.9-12.1,2.9c-8.4,0-15-2.5-19.8-7.6c-4.9-5.1-7.3-12.3-7.3-21.8c0-5.9,1.2-11.2,3.6-15.8c2.4-4.6,6-8.2,10.7-10.7
			c4.7-2.6,10.4-3.8,17-3.8c9,0,15.9,1.9,21,5.6c5,3.8,8.5,8.9,10.4,15.4c1.9,6.5,2.9,14.3,2.9,23.4c0,16.1-2.4,28.2-7.3,36.5
			c-4.9,8.2-13.1,12.4-24.7,12.4c-6.4,0-11.8-1.3-16.4-3.8c-4.6-2.6-8.1-6-10.5-10.2c-2.5-4.3-3.9-9-4.2-14.1h20.1
			C242,278.8,245.7,282.4,251.9,282.4z M260,228.4c-2.2-2.4-5.4-3.6-9.5-3.6c-3.8,0-6.7,1-8.8,3.1c-2.1,2.1-3.2,5.1-3.2,9.2
			s1.1,7.1,3.3,9.2c2.2,2.1,5.1,3.2,8.9,3.2c3.6,0,6.6-1,9-3.1c2.4-2,3.6-5,3.6-8.7C263.2,233.9,262.1,230.8,260,228.4z"/>
	</g>
	<g display="inline">
		<path fill="#FFFFFF" d="M74,286.1l45.4,11.1l5.3,16.4l-44.2-11.8l9,27.8l-9.5,3.1l-14.3-43.9L74,286.1z"/>
	</g>
	<g display="inline">
		<path fill="#FFFFFF" d="M300.7,422.2V433h-27.8v-47.8h17.5v37H300.7z"/>
		<path fill="#FFFFFF" d="M263,409.6c0,7.4-2.2,13.3-6.5,17.7c-4.3,4.4-11.3,6.5-20.8,6.5c-9.5,0-16.4-2.2-20.8-6.5
			c-4.4-4.4-6.6-10.2-6.6-17.7c0-7.5,2.2-13.4,6.6-17.8c4.4-4.4,11.3-6.6,20.8-6.6c9.5,0,16.5,2.2,20.8,6.6
			C260.8,396.2,263,402.1,263,409.6z M224.9,409.6c0,4.3,0.7,7.6,2.2,9.8c1.5,2.3,4.3,3.4,8.6,3.4c4.3,0,7.3-1.1,8.8-3.5
			c1.5-2.3,2.2-5.6,2.2-9.8c0-4.3-0.7-7.6-2.2-9.9c-1.5-2.3-4.4-3.5-8.8-3.5c-4.3,0-7.2,1.2-8.6,3.5
			C225.6,402,224.9,405.4,224.9,409.6z"/>
	</g>
	<g display="inline">
		<path fill="#FFFFFF" d="M411,325.8l9.6-29.4l-9.2-3c0.6,1.6,0.8,3.7,0.7,6.2c-0.2,2.5-0.7,5.1-1.6,7.8c-1.4,4.4-3.3,7.8-5.6,10.4
			c-2.3,2.5-4.8,4.1-7.6,4.8s-5.5,0.6-8.2-0.3c-5-1.6-8.3-4.9-9.9-9.9c-1.6-5-1.2-11.1,1.2-18.3c1.6-4.9,3.6-9,6-12.3
			c2.4-3.2,5-5.5,7.9-6.8c2.8-1.3,5.7-1.5,8.6-0.7l-5,15.5c-1.6-0.2-3,0.3-4.4,1.4c-1.4,1.1-2.5,2.8-3.3,5.2c-0.9,2.8-1,5.1-0.2,6.9
			c0.8,1.8,2.2,3,4.3,3.7c2,0.6,3.7,0.4,5.3-0.7c1.6-1.1,2.8-3,3.6-5.7c0.7-2,0.9-3.8,0.7-5.4c-0.2-1.6-0.7-2.7-1.5-3.6l5-15.4
			l27.5,8.9l-14.2,43.8L411,325.8z"/>
	</g>
	<g display="inline">
		<path fill="#FFFFFF" d="M360.5,110.3c-0.5-1.6-1.7-3.1-3.7-4.5c-3-2.2-5.9-2.8-8.6-1.8c-2.7,1-5.5,3.6-8.3,7.7
			c2-0.8,4.4-0.9,7.2-0.2c2.8,0.7,5.6,2.1,8.5,4.2c5.2,3.8,8.6,7.9,10,12.3c1.4,4.4,0.7,8.7-2.3,12.8c-1.9,2.6-4.3,4.3-7.3,5.2
			c-3,0.9-6.4,0.8-10.1-0.2c-3.8-1-7.7-3.1-11.9-6.1c-8.1-5.9-12.5-11.7-13-17.5c-0.6-5.8,1.4-11.7,5.9-17.9
			c5.2-7.2,10.7-11.2,16.4-12.2c5.8-1,12.4,1.2,19.8,6.7c5.9,4.3,9.5,8.7,10.9,13.2c1.4,4.5,0.9,8.7-1.3,12.5l-12.6-9.2
			C360.9,113.6,361,111.9,360.5,110.3z M334.5,125.5c0.6,2,2.2,4,4.8,5.9c2.4,1.7,4.5,2.6,6.5,2.7c2,0.1,3.6-0.8,4.9-2.5
			s1.6-3.6,0.9-5.5c-0.7-1.9-2.2-3.7-4.6-5.5c-2.3-1.6-4.5-2.6-6.6-2.8c-2.2-0.2-3.9,0.5-5,2.1C334.2,121.6,333.9,123.5,334.5,125.5
			z"/>
	</g>
	<g display="inline">
		<path fill="#FFFFFF" d="M125.4,112.9c0.3-2.7,1.6-5.7,3.9-8.9c2.3-3.2,5.6-6.4,9.9-9.5c4.4-3.2,8.4-5.3,12.2-6.5
			c3.8-1.2,7-1.5,9.7-0.9s4.7,1.8,6.1,3.6c1.5,2,2.1,4.3,1.8,6.7c-0.3,2.4-1.5,5-3.6,7.7c7.6-2.6,13.1-1.6,16.5,3
			c1.9,2.6,2.6,5.6,2.1,8.8c-0.5,3.3-2,6.5-4.6,9.8c-2.5,3.3-5.8,6.4-9.8,9.4c-4,2.9-8,5-11.9,6.4c-4,1.4-7.6,1.8-10.8,1.3
			c-3.3-0.5-5.8-2.1-7.7-4.7c-3.3-4.6-2.6-10.1,2.2-16.6c-3.2,1.1-6,1.5-8.4,1c-2.4-0.4-4.4-1.7-5.8-3.7
			C125.6,118,125,115.7,125.4,112.9z M145.6,113.9c1.8-0.1,3.8-0.9,5.9-2.5c2.1-1.5,3.5-3.1,4.1-4.8c0.7-1.7,0.5-3.3-0.6-4.8
			c-1.1-1.5-2.5-2.2-4.4-2.1c-1.9,0.1-3.8,0.9-5.9,2.3c-2,1.5-3.4,3.1-4,4.9c-0.6,1.8-0.4,3.4,0.6,4.8
			C142.4,113.3,143.8,114,145.6,113.9z M156.6,131.4c2.2-0.1,4.6-1.1,7.1-3c2.6-1.9,4.3-3.8,5.1-5.9c0.8-2,0.6-3.9-0.6-5.5
			c-1.2-1.6-2.9-2.4-5.1-2.2c-2.2,0.2-4.6,1.2-7,3c-2.5,1.8-4.1,3.7-5,5.8c-0.9,2.1-0.7,3.9,0.5,5.5
			C152.8,130.8,154.4,131.5,156.6,131.4z"/>
	</g>
	<path display="inline" fill="#FFFFFF" d="M289.5,329.6H216c-4.4,0-8-3.6-8-8v-4.8c0-4.4,3.6-8,8-8h73.5c4.4,0,8,3.6,8,8v4.8
		C297.5,326,293.9,329.6,289.5,329.6z"/>
</g>
<g id="Layer_6" display="none">
	<g display="inline">
		<path fill="#FFFFFF" d="M222.8,217.9c2.4-3.8,6-6.8,10.9-9.2c4.8-2.3,10.6-3.5,17.5-3.5c6.9,0,12.8,1.2,17.6,3.5
			c4.8,2.3,8.4,5.4,10.8,9.2c2.4,3.8,3.6,7.8,3.6,12c0,4.7-1.1,8.7-3.3,12c-2.2,3.3-5.4,5.8-9.5,7.6c10,4.4,14.9,11.9,14.9,22.5
			c0,6-1.5,11.2-4.5,15.5c-3,4.3-7.1,7.6-12.2,9.8c-5.1,2.2-10.9,3.3-17.4,3.3c-6.4,0-12.1-1.1-17.3-3.3c-5.2-2.2-9.3-5.5-12.3-9.8
			c-3-4.3-4.5-9.5-4.5-15.5c0-10.5,5-18,14.9-22.5c-4.2-1.8-7.4-4.3-9.5-7.6c-2.2-3.3-3.3-7.3-3.3-12
			C219.2,225.7,220.4,221.7,222.8,217.9z M241.4,279.7c2.4,2.2,5.6,3.3,9.7,3.3c4.1,0,7.3-1.1,9.7-3.3c2.4-2.2,3.6-5.1,3.6-8.9
			c0-3.8-1.2-6.7-3.7-8.8c-2.5-2.1-5.7-3.2-9.6-3.2c-3.9,0-7.1,1.1-9.6,3.2c-2.5,2.1-3.7,5.1-3.7,8.8
			C237.9,274.5,239.1,277.5,241.4,279.7z M243.2,241.5c2,1.8,4.6,2.7,8,2.7c3.3,0,6-0.9,8-2.7c2-1.8,2.9-4.4,2.9-7.8
			c0-3.3-1-6-3-7.9c-2-1.9-4.6-2.9-7.9-2.9c-3.3,0-5.9,1-7.9,2.9c-2,1.9-3,4.6-3,7.9C240.2,237.1,241.2,239.7,243.2,241.5z"/>
	</g>
	<g display="inline">
		<path fill="#FFFFFF" d="M74,286.1l45.4,11.1l5.3,16.4l-44.2-11.8l9,27.8l-9.5,3.1l-14.3-43.9L74,286.1z"/>
	</g>
	<g display="inline">
		<path fill="#FFFFFF" d="M252.6,394c-3.8,0-6.4,1.2-7.9,3.6c-1.5,2.4-2.2,6.1-2.1,11.2c1.1-1.8,3-3.3,5.7-4.4
			c2.7-1.1,5.8-1.6,9.4-1.6c6.5,0,11.6,1.4,15.4,4.1s5.6,6.6,5.6,11.7c0,3.2-0.9,6-2.8,8.5c-1.9,2.5-4.7,4.4-8.3,5.8
			c-3.7,1.4-8.1,2.1-13.2,2.1c-6.9,0-12.4-1-16.2-3c-3.9-2-6.6-4.8-8.1-8.3c-1.5-3.5-2.2-7.7-2.2-12.6c0-8.7,1.9-15.2,5.7-19.7
			c3.8-4.4,10.2-6.7,19.1-6.7c4.9,0,9.2,0.7,12.7,2.1c3.5,1.4,6.3,3.2,8.2,5.5c1.9,2.3,3,4.8,3.3,7.6h-15.6
			C260.2,396,257.4,394,252.6,394z M246.3,423.1c1.7,1.3,4.2,1.9,7.4,1.9c2.9,0,5.2-0.6,6.9-1.7c1.7-1.1,2.5-2.8,2.5-4.9
			c0-2.2-0.8-3.8-2.5-5c-1.7-1.2-4-1.7-6.9-1.7c-2.8,0-5.1,0.6-7,1.7c-1.9,1.1-2.8,2.7-2.8,4.7C243.8,420.2,244.6,421.8,246.3,423.1
			z"/>
	</g>
	<g display="inline">
		<path fill="#FFFFFF" d="M416.8,308.8c1.4-1,2.4-2.6,3.2-5c1.2-3.6,0.8-6.5-1-8.8c-1.8-2.3-5.1-4.1-9.9-5.5
			c1.4,1.6,2.2,3.9,2.4,6.8c0.2,2.9-0.3,6-1.4,9.4c-2,6.2-4.9,10.6-8.6,13.4c-3.8,2.7-8.1,3.3-12.9,1.7c-3-1-5.5-2.8-7.2-5.3
			c-1.8-2.6-2.8-5.8-2.9-9.7c-0.2-3.9,0.5-8.3,2.1-13.2c3.1-9.6,7.3-15.5,12.6-17.8c5.3-2.3,11.6-2.3,18.9,0.1
			c8.4,2.7,14,6.7,16.7,11.9c2.7,5.2,2.6,12.1-0.2,20.9c-2.2,6.9-5.3,11.7-9.2,14.4c-3.9,2.7-8,3.6-12.3,2.7l4.8-14.8
			C413.7,310.1,415.4,309.8,416.8,308.8z M394.2,288.7c-1.7,1.2-3.1,3.4-4.1,6.4c-0.9,2.8-1.1,5.1-0.5,7c0.6,1.9,1.9,3.2,3.9,3.9
			c2.1,0.7,3.9,0.4,5.5-0.9c1.6-1.3,2.9-3.3,3.8-6c0.9-2.7,1.1-5,0.6-7.2c-0.5-2.1-1.7-3.5-3.6-4.1
			C397.8,287.2,396,287.5,394.2,288.7z"/>
	</g>
	<g display="inline">
		<path fill="#FFFFFF" d="M358.2,115.3c2.2-3,1.4-5.8-2.3-8.5c-2.1-1.5-4-2.1-5.7-1.8c-1.7,0.3-3.4,1.5-5.1,3.6l-13.1-9.6
			c3.7-4.5,8.4-6.5,13.9-6.2c5.5,0.4,11.1,2.7,16.9,6.9c6,4.4,9.8,8.8,11.3,13.1c1.5,4.3,1.1,8.2-1.4,11.6
			c-2.7,3.8-7.5,5.9-14.2,6.5c-6.8,0.6-13.9,0-21.5-1.7l22,16l-5.5,7.6l-39.7-28.8l5.1-7C341.5,120.7,354.6,120.1,358.2,115.3z"/>
	</g>
	<g display="inline">
		<path fill="#FFFFFF" d="M111.6,131l-6.4-8.8l22.5-16.4l28.1,38.7l-14.2,10.3L120,125L111.6,131z"/>
		<path fill="#FFFFFF" d="M168.5,93.9c-2.2-3-5.1-3.1-8.8-0.4c-2.1,1.5-3.3,3.2-3.5,4.9c-0.2,1.7,0.4,3.7,1.8,5.9l-13.1,9.6
			c-3.1-4.9-3.6-10-1.6-15.1c2.1-5.1,6-9.8,11.7-14c6-4.4,11.4-6.6,16-6.7c4.6-0.1,8.1,1.5,10.6,4.9c2.7,3.8,3.3,8.9,1.8,15.5
			c-1.5,6.6-4.3,13.2-8.3,19.9l22-16l5.5,7.6l-39.7,28.8l-5.1-7C168.5,111.5,172,98.8,168.5,93.9z"/>
	</g>
	<path display="inline" fill="#FFFFFF" d="M282.2,383.7h-57.3c-1.9,0-3.5-1.6-3.5-3.5v-2.3c0-1.9,1.6-3.5,3.5-3.5h57.3
		c1.9,0,3.5,1.6,3.5,3.5v2.3C285.7,382.1,284.1,383.7,282.2,383.7z"/>
	<path display="inline" fill="#FFFFFF" d="M388,264l-17.2,54.7c-0.6,1.8-2.5,2.9-4.4,2.3l-2.2-0.7c-1.8-0.6-2.9-2.5-2.3-4.4
		l17.2-54.7c0.6-1.8,2.5-2.9,4.4-2.3l2.2,0.7C387.6,260.2,388.6,262.2,388,264z"/>
</g>
<g id="Layer_7" display="none">
	<g display="inline">
		<path fill="#FFFFFF" d="M281,225.1l-31.8,73.7H227l32.1-71.2h-37.7v-18.5H281V225.1z"/>
	</g>
	<g display="inline">
		<path fill="#FFFFFF" d="M98.4,352.4l-10.3,3.3l-8.6-26.5l45.5-14.8l5.4,16.7l-35.2,11.4L98.4,352.4z"/>
		<path fill="#FFFFFF" d="M98.7,312.7c-7.1,2.3-13.4,2.1-18.8-0.7c-5.5-2.8-9.7-8.7-12.6-17.8c-2.9-9-3-16.3-0.2-21.8
			c2.8-5.5,7.7-9.4,14.8-11.7c7.1-2.3,13.4-2.1,19,0.7c5.5,2.8,9.7,8.7,12.7,17.7c2.9,9.1,3,16.3,0.2,21.8
			C110.8,306.5,105.9,310.4,98.7,312.7z M87,276.4c-4.1,1.3-7,3-8.7,5.1c-1.7,2.1-1.9,5.2-0.6,9.2c1.3,4.1,3.3,6.6,6,7.3
			c2.6,0.7,6,0.4,10-0.9c4.1-1.3,7-3.1,8.7-5.2c1.7-2.1,2-5.3,0.6-9.4c-1.3-4.1-3.3-6.4-6-7.1C94.4,274.8,91,275.1,87,276.4z"/>
	</g>
	<g display="inline">
		<path fill="#FFFFFF" d="M252.6,394c-3.8,0-6.4,1.2-7.9,3.6c-1.5,2.4-2.2,6.1-2.1,11.2c1.1-1.8,3-3.3,5.7-4.4
			c2.7-1.1,5.8-1.6,9.4-1.6c6.5,0,11.6,1.4,15.4,4.1s5.6,6.6,5.6,11.7c0,3.2-0.9,6-2.8,8.5c-1.9,2.5-4.7,4.4-8.3,5.8
			c-3.7,1.4-8.1,2.1-13.2,2.1c-6.9,0-12.4-1-16.2-3c-3.9-2-6.6-4.8-8.1-8.3c-1.5-3.5-2.2-7.7-2.2-12.6c0-8.7,1.9-15.2,5.7-19.7
			c3.8-4.4,10.2-6.7,19.1-6.7c4.9,0,9.2,0.7,12.7,2.1c3.5,1.4,6.3,3.2,8.2,5.5c1.9,2.3,3,4.8,3.3,7.6h-15.6
			C260.2,396,257.4,394,252.6,394z M246.3,423.1c1.7,1.3,4.2,1.9,7.4,1.9c2.9,0,5.2-0.6,6.9-1.7c1.7-1.1,2.5-2.8,2.5-4.9
			c0-2.2-0.8-3.8-2.5-5c-1.7-1.2-4-1.7-6.9-1.7c-2.8,0-5.1,0.6-7,1.7c-1.9,1.1-2.8,2.7-2.8,4.7C243.8,420.2,244.6,421.8,246.3,423.1
			z"/>
	</g>
	<g display="inline">
		<path fill="#FFFFFF" d="M429.6,283.8c1.3,2.4,2,5.6,2.1,9.5c0,3.9-0.8,8.4-2.4,13.5c-1.7,5.1-3.7,9.3-6,12.4
			c-2.4,3.2-4.8,5.3-7.3,6.4c-2.5,1.1-4.8,1.3-7,0.6c-2.4-0.8-4.2-2.2-5.4-4.4c-1.2-2.2-1.7-4.9-1.6-8.3c-4.7,6.6-9.7,9-15.1,7.3
			c-3.1-1-5.4-3-6.9-5.9c-1.5-2.9-2.2-6.5-2.1-10.7c0.1-4.2,0.9-8.6,2.5-13.4c1.5-4.7,3.5-8.8,5.9-12.2c2.4-3.5,5-5.9,8-7.4
			s5.9-1.8,9-0.7c5.4,1.8,8,6.7,7.9,14.8c1.9-2.8,4-4.7,6.2-5.8c2.2-1.1,4.5-1.2,6.9-0.4C426.5,279.8,428.3,281.4,429.6,283.8z
			 M393.5,287.3c-1.7,1.4-3,3.6-4,6.6c-1,3-1.2,5.6-0.7,7.7c0.5,2.1,1.8,3.5,3.7,4.1c1.9,0.6,3.7,0.2,5.4-1.3c1.7-1.5,3-3.6,3.9-6.5
			c0.9-2.9,1.2-5.4,0.7-7.6c-0.5-2.2-1.7-3.6-3.6-4.2C397,285.5,395.2,285.9,393.5,287.3z M412.7,294.9c-1.4,1.1-2.5,3-3.3,5.4
			c-0.8,2.5-1,4.6-0.5,6.3c0.5,1.7,1.6,2.9,3.3,3.5c1.7,0.6,3.3,0.3,4.8-0.9s2.6-2.9,3.4-5.3c0.8-2.4,0.9-4.5,0.4-6.3
			c-0.5-1.8-1.6-3-3.3-3.5C415.7,293.5,414.1,293.8,412.7,294.9z"/>
	</g>
	<g display="inline">
		<path fill="#FFFFFF" d="M319.3,82.8l6.4-8.8l22.5,16.4l-28.1,38.7l-14.2-10.3l21.8-29.9L319.3,82.8z"/>
		<path fill="#FFFFFF" d="M372.2,125.4c2.2-3,1.4-5.8-2.3-8.5c-2.1-1.5-4-2.1-5.7-1.8c-1.7,0.3-3.4,1.5-5.1,3.6l-13.1-9.6
			c3.7-4.5,8.4-6.5,13.9-6.2c5.5,0.4,11.1,2.7,16.9,6.9c6,4.4,9.8,8.8,11.3,13.1c1.5,4.3,1.1,8.2-1.4,11.6
			c-2.7,3.8-7.5,5.9-14.2,6.5c-6.8,0.6-13.9,0-21.5-1.7l22,16l-5.5,7.6L327.7,134l5.1-7C355.5,130.8,368.6,130.3,372.2,125.4z"/>
	</g>
	<g display="inline">
		<path fill="#FFFFFF" d="M119.9,125l-6.4-8.8l22.5-16.4l28.1,38.7L150,148.9L128.2,119L119.9,125z"/>
		<path fill="#FFFFFF" d="M147.9,104.7l-6.4-8.8l22.5-16.4l28.1,38.7L178,128.5l-21.8-29.9L147.9,104.7z"/>
	</g>
	<path display="inline" fill="#FFFFFF" d="M277.9,382.5h-51c-1.7,0-3.1-1.4-3.1-3.1v-1.8c0-1.7,1.4-3.1,3.1-3.1h51
		c1.7,0,3.1,1.4,3.1,3.1v1.8C281,381.1,279.6,382.5,277.9,382.5z"/>
</g>
<g id="Layer_8" display="none">
	<g display="inline">
		<path fill="#FFFFFF" d="M258.6,226.3c-1.7-1.8-4.2-2.8-7.3-2.8c-4.9,0-8.3,2.2-10.4,6.7c-2.1,4.5-3,11.4-2.8,20.6
			c1.4-3.4,3.9-6.1,7.3-8.1c3.5-2,7.5-2.9,12.1-2.9c8.4,0,15,2.5,19.8,7.6c4.9,5.1,7.3,12.3,7.3,21.8c0,5.9-1.2,11.2-3.6,15.8
			c-2.4,4.6-6,8.2-10.7,10.7c-4.7,2.6-10.4,3.8-17,3.8c-13,0-21.9-4-26.9-12c-4.9-8-7.4-19.2-7.4-33.4c0-16.4,2.6-28.5,7.9-36.2
			c5.3-7.7,13.8-11.6,25.7-11.6c9.4,0,16.5,2.7,21.3,8c4.9,5.3,7.6,12,8.2,20.1H262C261.4,230.9,260.3,228.2,258.6,226.3z
			 M242.9,277.6c2.2,2.4,5.4,3.6,9.5,3.6c3.8,0,6.7-1,8.8-3.1c2.1-2.1,3.2-5.1,3.2-9.2s-1.1-7.1-3.3-9.2c-2.2-2.1-5.1-3.2-8.9-3.2
			c-3.6,0-6.6,1-9,3.1c-2.4,2.1-3.6,5-3.6,8.7C239.7,272.1,240.8,275.2,242.9,277.6z"/>
	</g>
	<g display="inline">
		<path fill="#FFFFFF" d="M88.7,322.6l-10.3,3.3l-8.6-26.5l45.5-14.8l5.4,16.7l-35.2,11.4L88.7,322.6z"/>
	</g>
	<g display="inline">
		<path fill="#FFFFFF" d="M246.4,418.8c0,3.7,2.3,5.5,6.9,5.5c2.6,0,4.5-0.6,5.7-1.9c1.2-1.3,1.9-3.2,2-5.9h16.2
			c-0.4,5.8-2.9,10.2-7.6,13.1c-4.7,2.9-10.6,4.4-17.7,4.4c-7.5,0-13.1-1.3-16.9-3.9c-3.8-2.6-5.7-6-5.7-10.2
			c0-4.6,2.6-9.2,7.7-13.6c5.1-4.4,11.3-8.2,18.4-11.3h-27.1v-9.3h49v8.7C256.7,404.7,246.4,412.8,246.4,418.8z"/>
	</g>
	<g display="inline">
		<path fill="#FFFFFF" d="M429.6,283.8c1.3,2.4,2,5.6,2.1,9.5c0,3.9-0.8,8.4-2.4,13.5c-1.7,5.1-3.7,9.3-6,12.4
			c-2.4,3.2-4.8,5.3-7.3,6.4c-2.5,1.1-4.8,1.3-7,0.6c-2.4-0.8-4.2-2.2-5.4-4.4c-1.2-2.2-1.7-4.9-1.6-8.3c-4.7,6.6-9.7,9-15.1,7.3
			c-3.1-1-5.4-3-6.9-5.9c-1.5-2.9-2.2-6.5-2.1-10.7c0.1-4.2,0.9-8.6,2.5-13.4c1.5-4.7,3.5-8.8,5.9-12.2c2.4-3.5,5-5.9,8-7.4
			s5.9-1.8,9-0.7c5.4,1.8,8,6.7,7.9,14.8c1.9-2.8,4-4.7,6.2-5.8c2.2-1.1,4.5-1.2,6.9-0.4C426.5,279.8,428.3,281.4,429.6,283.8z
			 M393.5,287.3c-1.7,1.4-3,3.6-4,6.6c-1,3-1.2,5.6-0.7,7.7c0.5,2.1,1.8,3.5,3.7,4.1c1.9,0.6,3.7,0.2,5.4-1.3c1.7-1.5,3-3.6,3.9-6.5
			c0.9-2.9,1.2-5.4,0.7-7.6c-0.5-2.2-1.7-3.6-3.6-4.2C397,285.5,395.2,285.9,393.5,287.3z M412.7,294.9c-1.4,1.1-2.5,3-3.3,5.4
			c-0.8,2.5-1,4.6-0.5,6.3c0.5,1.7,1.6,2.9,3.3,3.5c1.7,0.6,3.3,0.3,4.8-0.9s2.6-2.9,3.4-5.3c0.8-2.4,0.9-4.5,0.4-6.3
			c-0.5-1.8-1.6-3-3.3-3.5C415.7,293.5,414.1,293.8,412.7,294.9z"/>
	</g>
	<g display="inline">
		<path fill="#FFFFFF" d="M338.6,131.7c3,2.2,5.9,2.8,8.5,1.8c2.6-1,5.4-3.6,8.3-7.8c-2,0.8-4.4,0.9-7.2,0.2
			c-2.8-0.7-5.6-2.1-8.5-4.2c-5.2-3.8-8.6-7.9-10-12.3c-1.4-4.4-0.7-8.7,2.3-12.8c1.9-2.6,4.3-4.3,7.3-5.2c3-0.9,6.4-0.8,10.1,0.2
			c3.8,1,7.7,3.1,11.9,6.1c5.6,4.1,9.4,8.1,11.4,12s2.5,7.7,1.7,11.5c-0.8,3.7-2.7,7.5-5.6,11.5c-5.1,7-10.5,11.2-16.2,12.6
			c-5.7,1.4-12.1-0.6-19.4-5.8c-4-2.9-7-5.9-9.1-9.1c-2.1-3.2-3.2-6.3-3.4-9.3c-0.2-3,0.4-5.7,1.8-8l12.6,9.1
			C333.6,125.6,334.7,128.9,338.6,131.7z M360.8,111.8c-0.6-2-2.2-4-4.8-5.9c-2.4-1.7-4.5-2.6-6.5-2.7c-2-0.1-3.6,0.8-4.9,2.5
			s-1.6,3.6-0.9,5.5c0.7,1.9,2.2,3.7,4.6,5.5c2.3,1.6,4.5,2.6,6.6,2.8c2.2,0.2,3.9-0.5,5-2.1C361.1,115.7,361.4,113.8,360.8,111.8z"
			/>
	</g>
	<g display="inline">
		<path fill="#FFFFFF" d="M165.1,90l-25,18.2l5.7,7.8c0.5-1.7,1.5-3.5,3.1-5.4c1.6-1.9,3.6-3.7,5.9-5.4c3.7-2.7,7.3-4.4,10.6-5.1
			c3.4-0.7,6.3-0.5,8.9,0.6c2.6,1.1,4.8,2.8,6.5,5.1c3.1,4.2,3.8,8.8,2.2,13.8c-1.6,4.9-5.5,9.7-11.7,14.2
			c-4.2,3.1-8.2,5.2-12.1,6.4c-3.9,1.2-7.3,1.5-10.3,0.9s-5.5-2.1-7.4-4.5l13.1-9.6c1.2,1.1,2.6,1.5,4.4,1.5
			c1.8-0.1,3.7-0.8,5.7-2.3c2.4-1.7,3.7-3.5,4.2-5.4c0.4-1.9,0-3.8-1.3-5.5c-1.2-1.7-2.8-2.5-4.7-2.5c-1.9,0-4,0.8-6.3,2.5
			c-1.7,1.3-3,2.6-3.8,3.9c-0.8,1.4-1.1,2.6-0.9,3.8l-13.1,9.5l-17-23.4l37.2-27.1L165.1,90z"/>
	</g>
	<path display="inline" fill="#FFFFFF" d="M289.5,329.6H216c-4.4,0-8-3.6-8-8v-4.8c0-4.4,3.6-8,8-8h73.5c4.4,0,8,3.6,8,8v4.8
		C297.5,326,293.9,329.6,289.5,329.6z"/>
	<path display="inline" fill="#FFFFFF" d="M342.9,163l-39-29.4c-1.7-1.3-2.1-3.8-0.8-5.5l1.9-2.5c1.3-1.7,3.8-2.1,5.5-0.8l39,29.4
		c1.7,1.3,2.1,3.8,0.8,5.5l-1.9,2.5C347.1,163.9,344.6,164.3,342.9,163z"/>
</g>
<g id="Layer_9" display="none">
	<g display="inline">
		<path fill="#FFFFFF" d="M281.7,226.7h-39.9v17.9c1.8-2,4.2-3.6,7.3-4.7c3.1-1.1,6.5-1.7,10.2-1.7c5.9,0,10.9,1.3,14.9,4
			c4,2.6,7,6.2,8.9,10.6c1.9,4.4,2.9,9.3,2.9,14.7c0,9.7-2.7,17.4-8.2,23c-5.4,5.6-13.1,8.5-23,8.5c-6.7,0-12.5-1.2-17.4-3.6
			c-4.9-2.4-8.7-5.7-11.4-10c-2.7-4.3-4.1-9.2-4.3-14.8h21c0.4,2.8,1.6,5.2,3.5,7c1.9,1.8,4.5,2.8,7.7,2.8c3.8,0,6.6-1.2,8.5-3.6
			c1.9-2.4,2.8-5.6,2.8-9.7c0-3.8-1-6.8-3-8.9c-2-2.1-4.8-3.1-8.4-3.1c-2.8,0-5.1,0.6-6.9,1.8c-1.8,1.2-3.1,2.8-3.8,4.7h-20.8v-53.7
			h59.4V226.7z"/>
	</g>
	<g display="inline">
		<path fill="#FFFFFF" d="M88.7,322.6l-10.3,3.3l-8.6-26.5l45.5-14.8l5.4,16.7l-35.2,11.4L88.7,322.6z"/>
	</g>
	<g display="inline">
		<path fill="#FFFFFF" d="M252.6,394c-3.8,0-6.4,1.2-7.9,3.6c-1.5,2.4-2.2,6.1-2.1,11.2c1.1-1.8,3-3.3,5.7-4.4
			c2.7-1.1,5.8-1.6,9.4-1.6c6.5,0,11.6,1.4,15.4,4.1s5.6,6.6,5.6,11.7c0,3.2-0.9,6-2.8,8.5c-1.9,2.5-4.7,4.4-8.3,5.8
			c-3.7,1.4-8.1,2.1-13.2,2.1c-6.9,0-12.4-1-16.2-3c-3.9-2-6.6-4.8-8.1-8.3c-1.5-3.5-2.2-7.7-2.2-12.6c0-8.7,1.9-15.2,5.7-19.7
			c3.8-4.4,10.2-6.7,19.1-6.7c4.9,0,9.2,0.7,12.7,2.1c3.5,1.4,6.3,3.2,8.2,5.5c1.9,2.3,3,4.8,3.3,7.6h-15.6
			C260.2,396,257.4,394,252.6,394z M246.3,423.1c1.7,1.3,4.2,1.9,7.4,1.9c2.9,0,5.2-0.6,6.9-1.7c1.7-1.1,2.5-2.8,2.5-4.9
			c0-2.2-0.8-3.8-2.5-5c-1.7-1.2-4-1.7-6.9-1.7c-2.8,0-5.1,0.6-7,1.7c-1.9,1.1-2.8,2.7-2.8,4.7C243.8,420.2,244.6,421.8,246.3,423.1
			z"/>
	</g>
	<g display="inline">
		<path fill="#FFFFFF" d="M416.8,308.8c1.4-1,2.4-2.6,3.2-5c1.2-3.6,0.8-6.5-1-8.8c-1.8-2.3-5.1-4.1-9.9-5.5
			c1.4,1.6,2.2,3.9,2.4,6.8c0.2,2.9-0.3,6-1.4,9.4c-2,6.2-4.9,10.6-8.6,13.4c-3.8,2.7-8.1,3.3-12.9,1.7c-3-1-5.5-2.8-7.2-5.3
			c-1.8-2.6-2.8-5.8-2.9-9.7c-0.2-3.9,0.5-8.3,2.1-13.2c3.1-9.6,7.3-15.5,12.6-17.8c5.3-2.3,11.6-2.3,18.9,0.1
			c8.4,2.7,14,6.7,16.7,11.9c2.7,5.2,2.6,12.1-0.2,20.9c-2.2,6.9-5.3,11.7-9.2,14.4c-3.9,2.7-8,3.6-12.3,2.7l4.8-14.8
			C413.7,310.1,415.4,309.8,416.8,308.8z M394.2,288.7c-1.7,1.2-3.1,3.4-4.1,6.4c-0.9,2.8-1.1,5.1-0.5,7c0.6,1.9,1.9,3.2,3.9,3.9
			c2.1,0.7,3.9,0.4,5.5-0.9c1.6-1.3,2.9-3.3,3.8-6c0.9-2.7,1.1-5,0.6-7.2c-0.5-2.1-1.7-3.5-3.6-4.1
			C397.8,287.2,396,287.5,394.2,288.7z"/>
	</g>
	<g display="inline">
		<path fill="#FFFFFF" d="M316.3,80.6l6.4-8.8l22.5,16.4L317,126.9l-14.2-10.3l21.8-29.9L316.3,80.6z"/>
		<path fill="#FFFFFF" d="M339.3,112.9c4.4-6,9.6-9.5,15.7-10.5c6.1-1,13,1.4,20.7,7c7.7,5.6,12,11.4,13,17.5
			c1,6.1-0.7,12.2-5.1,18.2c-4.4,6.1-9.7,9.6-15.8,10.5c-6.1,1-13-1.3-20.7-6.9c-7.7-5.6-12-11.5-13-17.5
			C333.2,125,334.9,119,339.3,112.9z M370.2,135.3c2.5-3.5,3.9-6.5,4-9.2c0.2-2.7-1.5-5.3-5-7.8c-3.5-2.6-6.6-3.3-9.1-2.4
			c-2.6,1-5.1,3.2-7.6,6.6c-2.5,3.5-3.9,6.6-4,9.3c-0.2,2.8,1.5,5.4,5,8c3.5,2.5,6.5,3.3,9,2.2C365.1,141,367.7,138.8,370.2,135.3z"
			/>
	</g>
	<g display="inline">
		<path fill="#FFFFFF" d="M140.7,144.8L135,137l7.8-42.7l14.5-10.5l17.4,23.9l6.7-4.9l5.9,8.2l-6.7,4.9l5.2,7.1l-13.6,9.9l-5.2-7.1
			L140.7,144.8z M152.6,103.7l-4.2,23l13.7-10L152.6,103.7z"/>
	</g>
	<path display="inline" fill="#FFFFFF" d="M282.2,383.7h-57.3c-1.9,0-3.5-1.6-3.5-3.5v-2.3c0-1.9,1.6-3.5,3.5-3.5h57.3
		c1.9,0,3.5,1.6,3.5,3.5v2.3C285.7,382.1,284.1,383.7,282.2,383.7z"/>
	<path display="inline" fill="#FFFFFF" d="M388,264l-17.2,54.7c-0.6,1.8-2.5,2.9-4.4,2.3l-2.2-0.7c-1.8-0.6-2.9-2.5-2.3-4.4
		l17.2-54.7c0.6-1.8,2.5-2.9,4.4-2.3l2.2,0.7C387.6,260.2,388.6,262.2,388,264z"/>
</g>
<g id="Layer_10" display="none">
	<g display="inline">
		<path fill="#FFFFFF" d="M214.6,282.4v-17.9l40.5-55.6h23.1v54.8h10.7v18.7h-10.7v16.3h-21.7v-16.3H214.6z M258.3,233.7l-21.8,30
			h21.8V233.7z"/>
	</g>
	<g display="inline">
		<path fill="#FFFFFF" d="M88.7,322.6l-10.3,3.3l-8.6-26.5l45.5-14.8l5.4,16.7l-35.2,11.4L88.7,322.6z"/>
	</g>
	<g display="inline">
		<path fill="#FFFFFF" d="M229.5,424h30.9v-9.7c-1.4,1.1-3.3,1.9-5.7,2.5c-2.4,0.6-5.1,0.9-7.9,0.9c-4.6,0-8.5-0.7-11.6-2.1
			c-3.1-1.4-5.4-3.3-6.9-5.7c-1.5-2.4-2.2-5-2.2-7.9c0-5.2,2.1-9.4,6.3-12.4c4.2-3,10.2-4.6,17.8-4.6c5.2,0,9.7,0.6,13.5,1.9
			s6.8,3.1,8.9,5.4c2.1,2.3,3.2,5,3.3,8h-16.2c-0.3-1.5-1.2-2.8-2.7-3.8c-1.5-1-3.5-1.5-6-1.5c-2.9,0-5.1,0.7-6.6,2
			c-1.5,1.3-2.2,3-2.2,5.2c0,2.1,0.8,3.7,2.3,4.8c1.6,1.1,3.7,1.7,6.5,1.7c2.1,0,3.9-0.3,5.4-1c1.4-0.7,2.4-1.5,2.9-2.5h16.2v29h-46
			V424z"/>
	</g>
	<g display="inline">
		<path fill="#FFFFFF" d="M431.3,257.5l10.3,3.3l-8.6,26.5l-45.5-14.8l5.4-16.7l35.2,11.4L431.3,257.5z"/>
		<path fill="#FFFFFF" d="M407.7,289.4c7.1,2.3,12,6.2,14.8,11.7c2.8,5.5,2.7,12.8-0.2,21.8c-2.9,9-7.1,14.9-12.6,17.7
			c-5.5,2.8-11.8,3.1-18.9,0.8c-7.1-2.3-12.1-6.2-14.9-11.7c-2.8-5.5-2.7-12.8,0.2-21.8c2.9-9.1,7.2-15,12.7-17.8
			C394.3,287.3,400.6,287.1,407.7,289.4z M395.9,325.7c4.1,1.3,7.4,1.6,10,1s4.6-3.1,5.9-7.1c1.3-4.1,1.2-7.3-0.6-9.4
			c-1.7-2.1-4.6-3.8-8.6-5.2c-4.1-1.3-7.4-1.6-10.1-0.9c-2.7,0.7-4.7,3.1-6,7.3c-1.3,4.1-1.1,7.2,0.7,9.3
			C388.9,322.7,391.8,324.4,395.9,325.7z"/>
	</g>
	<g display="inline">
		<path fill="#FFFFFF" d="M327.6,88.8l6.4-8.8l22.5,16.4l-28.1,38.7l-14.2-10.3l21.8-29.9L327.6,88.8z"/>
		<path fill="#FFFFFF" d="M355.6,109.2l6.4-8.8l22.5,16.4l-28.1,38.7l-14.2-10.3l21.8-29.9L355.6,109.2z"/>
	</g>
	<g display="inline">
		<path fill="#FFFFFF" d="M150.4,89c3.5-1.1,6.5-1.3,9.1-0.8c2.6,0.6,4.7,1.9,6.2,3.9c1.8,2.5,2.4,5.2,1.6,8.1
			c-0.8,2.9-2.4,5.5-4.9,8l0.2,0.3c8.4-3.6,14.2-3.1,17.6,1.5c1.6,2.2,2.3,4.7,2.1,7.5c-0.2,2.8-1.4,5.7-3.5,8.7
			c-2.1,3-5.1,5.9-9.1,8.8c-6.4,4.7-12.3,7.2-17.6,7.8c-5.3,0.5-9.8-1.3-13.4-5.6l13.1-9.6c1.4,1.6,3,2.5,5,2.6
			c2,0.1,4.2-0.8,6.6-2.5c1.9-1.4,3.2-2.9,3.7-4.5c0.5-1.6,0.4-3.1-0.6-4.3c-2.3-3.2-6.8-2.4-13.4,2.4l-2.5,1.8l-5.5-7.6l2.4-1.8
			c6-4.2,7.9-7.9,5.7-10.9c-1-1.3-2.2-2-3.7-1.9c-1.5,0-3.2,0.7-4.9,1.9c-1.9,1.4-3.1,2.9-3.5,4.6c-0.5,1.7-0.2,3.3,0.7,5l-13.1,9.6
			c-2.7-4.3-3.2-8.7-1.3-13.4c1.8-4.7,5.8-9.2,11.9-13.7C143.3,92.1,147,90.1,150.4,89z"/>
	</g>
</g>
<g id="Layer_11" display="none">
	<g display="inline">
		<path fill="#FFFFFF" d="M267.1,209.3c4.4,2.1,7.8,5.1,10.1,8.8c2.3,3.7,3.5,7.9,3.5,12.6c0,5.8-1.5,10.4-4.5,13.9
			c-3,3.5-6.7,5.7-11.1,6.7v0.6c11.5,3.7,17.2,10.8,17.2,21.5c0,5.1-1.2,9.6-3.5,13.6c-2.3,4-5.8,7.1-10.2,9.3
			c-4.5,2.2-9.9,3.3-16.1,3.3c-10.2,0-18.3-2.5-24.3-7.5c-6-5-9.2-12.7-9.7-23h21c0.2,3.9,1.3,7,3.3,9.3c2,2.3,4.9,3.4,8.8,3.4
			c3.1,0,5.5-0.9,7.3-2.8c1.8-1.8,2.7-4.2,2.7-7.2c0-7.3-5.3-10.9-15.8-10.9h-4v-17.4h3.9c9.5,0.2,14.2-3.2,14.2-10.2
			c0-3-0.8-5.3-2.4-7c-1.6-1.6-3.8-2.4-6.6-2.4c-3,0-5.4,1-7.2,3.1c-1.8,2.1-2.8,4.8-3,8.2h-21c0.4-9.4,3.3-16.6,8.8-21.6
			c5.4-5,13.1-7.5,22.8-7.5C257.4,206.1,262.7,207.2,267.1,209.3z"/>
	</g>
	<g display="inline">
		<path fill="#FFFFFF" d="M88.7,322.6l-10.3,3.3l-8.6-26.5l45.5-14.8l5.4,16.7l-35.2,11.4L88.7,322.6z"/>
	</g>
	<g display="inline">
		<path fill="#FFFFFF" d="M281.5,394v9.7l-31.4,30h-17.9v-29.6h-8.3V394h8.3v-8.8H249v8.8H281.5z M247.6,420.3l16.9-16.2h-16.9
			V420.3z"/>
	</g>
	<g display="inline">
		<path fill="#FFFFFF" d="M427,270.8l10.3,3.3l-8.6,26.5l-45.5-14.8l5.4-16.7l35.2,11.4L427,270.8z"/>
		<path fill="#FFFFFF" d="M416.3,303.8l10.3,3.3l-8.6,26.5l-45.5-14.8l5.4-16.7l35.2,11.4L416.3,303.8z"/>
	</g>
	<g display="inline">
		<path fill="#FFFFFF" d="M319.3,82.8l6.4-8.8l22.5,16.4l-28.1,38.7l-14.2-10.3l21.8-29.9L319.3,82.8z"/>
		<path fill="#FFFFFF" d="M372.2,125.4c2.2-3,1.4-5.8-2.3-8.5c-2.1-1.5-4-2.1-5.7-1.8c-1.7,0.3-3.4,1.5-5.1,3.6l-13.1-9.6
			c3.7-4.5,8.4-6.5,13.9-6.2c5.5,0.4,11.1,2.7,16.9,6.9c6,4.4,9.8,8.8,11.3,13.1c1.5,4.3,1.1,8.2-1.4,11.6
			c-2.7,3.8-7.5,5.9-14.2,6.5c-6.8,0.6-13.9,0-21.5-1.7l22,16l-5.5,7.6L327.7,134l5.1-7C355.5,130.8,368.6,130.3,372.2,125.4z"/>
	</g>
	<g display="inline">
		<path fill="#FFFFFF" d="M154.5,104.1c-2.2-3-5.1-3.1-8.8-0.4c-2.1,1.5-3.3,3.2-3.5,4.9c-0.2,1.7,0.4,3.7,1.8,5.9l-13.1,9.6
			c-3.1-4.9-3.6-10-1.6-15.1c2.1-5.1,6-9.8,11.7-14c6-4.4,11.4-6.6,16-6.7c4.6-0.1,8.1,1.5,10.6,4.9c2.7,3.8,3.3,8.9,1.8,15.5
			c-1.5,6.6-4.3,13.2-8.3,19.9l22-16l5.5,7.6L148.9,149l-5.1-7C154.5,121.6,158,109,154.5,104.1z"/>
	</g>
</g>
<g id="Layer_12" display="none">
	<g display="inline">
		<path fill="#FFFFFF" d="M259.9,236.4c0-6.9-3-10.3-8.9-10.3c-3.3,0-5.8,1.2-7.3,3.5c-1.5,2.3-2.4,6-2.6,10.9h-21
			c0.5-10.8,3.8-18.9,9.8-24.3c6-5.4,13.6-8.2,22.8-8.2c9.6,0,16.9,2.4,21.8,7.3c4.9,4.9,7.3,11.2,7.3,19c0,8.6-3.3,17-9.9,25.3
			c-6.6,8.2-14.5,15.2-23.7,20.9h35v17.3H220v-16.1C246.6,262.7,259.9,247.6,259.9,236.4z"/>
	</g>
	<g display="inline">
		<path fill="#FFFFFF" d="M88.7,322.6l-10.3,3.3l-8.6-26.5l45.5-14.8l5.4,16.7l-35.2,11.4L88.7,322.6z"/>
	</g>
	<g display="inline">
		<path fill="#FFFFFF" d="M240.8,433.4c-3.4-1.2-6-2.7-7.8-4.7c-1.8-2-2.7-4.3-2.7-6.8c0-3.1,1.2-5.6,3.5-7.5
			c2.3-1.9,5.2-3.1,8.6-3.6v-0.3c-8.9-2-13.3-5.8-13.3-11.6c0-2.8,0.9-5.2,2.7-7.3c1.8-2.1,4.5-3.8,7.9-5c3.5-1.2,7.6-1.8,12.5-1.8
			c7.9,0,14.2,1.4,18.8,4.1c4.6,2.7,7.2,6.8,7.5,12.4h-16.2c-0.1-2.1-1-3.8-2.5-5s-3.8-1.8-6.8-1.8c-2.4,0-4.3,0.5-5.7,1.5
			c-1.4,1-2.1,2.3-2.1,3.9c0,3.9,4.1,5.9,12.3,5.9h3.1v9.4h-3c-7.3-0.1-11,1.7-11,5.5c0,1.6,0.6,2.9,1.9,3.8s3,1.3,5.1,1.3
			c2.3,0,4.2-0.6,5.5-1.7c1.4-1.1,2.1-2.6,2.3-4.4h16.2c-0.3,5.1-2.6,8.9-6.8,11.6c-4.2,2.7-10.1,4.1-17.7,4.1
			C248.3,435.1,244.2,434.6,240.8,433.4z"/>
	</g>
	<g display="inline">
		<path fill="#FFFFFF" d="M430.1,261.1l10.3,3.3l-8.6,26.5l-45.5-14.8l5.4-16.7l35.2,11.4L430.1,261.1z"/>
		<path fill="#FFFFFF" d="M406,324.6c3.5,1.1,6-0.5,7.4-4.9c0.8-2.5,0.8-4.5,0-6c-0.8-1.5-2.5-2.8-5-3.7l5-15.5
			c5.4,2.2,8.8,5.9,10.1,11.3c1.3,5.3,0.9,11.4-1.3,18.2c-2.3,7.1-5.3,12-8.9,14.8c-3.7,2.8-7.5,3.6-11.5,2.3
			c-4.4-1.4-7.9-5.3-10.6-11.5c-2.6-6.2-4.3-13.2-5-21l-8.4,25.8l-8.9-2.9l15.2-46.6l8.2,2.7C395.7,310.4,400.2,322.7,406,324.6z"/>
	</g>
	<g display="inline">
		<path fill="#FFFFFF" d="M340.8,90.3c2.7-0.5,6-0.2,9.7,1c3.8,1.2,7.8,3.3,12.1,6.4c4.4,3.2,7.7,6.4,9.9,9.6
			c2.3,3.2,3.6,6.2,3.9,8.9c0.3,2.7-0.2,5-1.6,6.9c-1.5,2-3.4,3.3-5.8,3.7c-2.4,0.5-5.2,0.1-8.4-1c4.8,6.5,5.6,12,2.2,16.6
			c-1.9,2.6-4.5,4.2-7.7,4.7c-3.3,0.5-6.8,0.1-10.8-1.3c-3.9-1.4-7.9-3.5-12-6.5c-4-2.9-7.3-6-9.8-9.3c-2.6-3.3-4.1-6.6-4.6-9.9
			c-0.5-3.3,0.2-6.2,2.1-8.8c3.3-4.6,8.8-5.6,16.5-3c-2.1-2.7-3.3-5.2-3.6-7.7c-0.3-2.4,0.3-4.7,1.8-6.7
			C336,92,338.1,90.8,340.8,90.3z M332.9,125.7c0.8,2,2.5,4,5.1,5.9c2.6,1.9,4.9,2.9,7.1,3c2.2,0.1,3.9-0.6,5.1-2.3
			c1.2-1.6,1.4-3.5,0.5-5.5s-2.5-4-5-5.8c-2.5-1.8-4.8-2.8-7-3c-2.2-0.2-3.9,0.5-5.1,2.2C332.3,121.9,332.1,123.7,332.9,125.7z
			 M346.1,109.9c0.7,1.7,2,3.3,4.1,4.8c2.1,1.5,4,2.3,5.9,2.5c1.8,0.1,3.2-0.6,4.3-2.1c1.1-1.5,1.3-3.1,0.6-4.8
			c-0.6-1.8-2-3.4-4-4.9c-2-1.5-4-2.3-5.9-2.3c-1.9-0.1-3.3,0.6-4.4,2.1C345.7,106.6,345.4,108.2,346.1,109.9z"/>
	</g>
	<g display="inline">
		<path fill="#FFFFFF" d="M164.1,127.8c3-2.2,4.5-4.7,4.3-7.6c-0.2-2.8-1.8-6.2-4.9-10.3c0.2,2.1-0.5,4.4-2,6.9
			c-1.6,2.4-3.8,4.7-6.7,6.8c-5.2,3.8-10.2,5.7-14.8,5.7c-4.6,0-8.5-2.1-11.5-6.2c-1.9-2.6-2.8-5.4-2.7-8.6c0.1-3.1,1.2-6.3,3.3-9.6
			c2.2-3.3,5.3-6.4,9.5-9.4c5.6-4.1,10.6-6.4,14.9-7.1c4.3-0.6,8.1,0,11.4,2c3.3,2,6.3,4.9,9.2,8.9c5.1,7,7.4,13.4,6.9,19.2
			c-0.5,5.8-4.3,11.4-11.6,16.6c-4,2.9-7.8,4.8-11.5,5.8c-3.7,1-7,1.1-9.9,0.3c-2.9-0.7-5.3-2.1-7.1-4.2l12.6-9.1
			C156.7,130.7,160.2,130.6,164.1,127.8z M152,100.6c-2.1,0-4.5,0.9-7.1,2.8c-2.4,1.7-3.9,3.5-4.6,5.4c-0.7,1.9-0.4,3.7,0.9,5.5
			c1.3,1.8,2.9,2.6,5,2.5c2-0.1,4.2-0.9,6.6-2.7c2.3-1.6,3.8-3.5,4.7-5.5c0.9-2,0.7-3.8-0.5-5.5C155.8,101.5,154.1,100.6,152,100.6z
			"/>
	</g>
	<path display="inline" fill="#FFFFFF" d="M203.4,128.8L155,164.1c-2.7,2-6.5,1.4-8.5-1.3l-0.1-0.1c-2-2.7-1.4-6.5,1.3-8.5
		l48.5-35.3c2.7-2,6.5-1.4,8.5,1.3l0.1,0.1C206.8,123,206.2,126.8,203.4,128.8z"/>
</g>
<g id="Layer_13">
	<g>
		<path fill="#FFFFFF" d="M230.3,230.1V210h35.9v88.7h-22.6v-68.7H230.3z"/>
	</g>
	<g>
		<path fill="#FFFFFF" d="M119.3,325.4l-9.2,3l-38.2-20.6l-5.5-17l28.1-9.1l-2.6-7.9l9.6-3.1l2.6,7.9l8.4-2.7l5.2,16l-8.4,2.7
			L119.3,325.4z M83.9,301.4l20.6,11.1l-5.2-16.1L83.9,301.4z"/>
	</g>
	<g>
		<path fill="#FFFFFF" d="M240.8,433.4c-3.4-1.2-6-2.7-7.8-4.7c-1.8-2-2.7-4.3-2.7-6.8c0-3.1,1.2-5.6,3.5-7.5
			c2.3-1.9,5.2-3.1,8.6-3.6v-0.3c-8.9-2-13.3-5.8-13.3-11.6c0-2.8,0.9-5.2,2.7-7.3c1.8-2.1,4.5-3.8,7.9-5c3.5-1.2,7.6-1.8,12.5-1.8
			c7.9,0,14.2,1.4,18.8,4.1c4.6,2.7,7.2,6.8,7.5,12.4h-16.2c-0.1-2.1-1-3.8-2.5-5s-3.8-1.8-6.8-1.8c-2.4,0-4.3,0.5-5.7,1.5
			c-1.4,1-2.1,2.3-2.1,3.9c0,3.9,4.1,5.9,12.3,5.9h3.1v9.4h-3c-7.3-0.1-11,1.7-11,5.5c0,1.6,0.6,2.9,1.9,3.8s3,1.3,5.1,1.3
			c2.3,0,4.2-0.6,5.5-1.7c1.4-1.1,2.1-2.6,2.3-4.4h16.2c-0.3,5.1-2.6,8.9-6.8,11.6c-4.2,2.7-10.1,4.1-17.7,4.1
			C248.3,435.1,244.2,434.6,240.8,433.4z"/>
	</g>
	<g>
		<path fill="#FFFFFF" d="M411.3,308.1c3.5,1.1,6-0.5,7.4-4.9c0.8-2.5,0.8-4.5,0-6c-0.8-1.5-2.5-2.8-5-3.7l5-15.5
			c5.4,2.2,8.8,5.9,10.1,11.3c1.3,5.3,0.9,11.4-1.3,18.2c-2.3,7.1-5.3,12-8.9,14.8c-3.7,2.8-7.5,3.6-11.5,2.3
			c-4.4-1.4-7.9-5.3-10.6-11.5c-2.6-6.2-4.3-13.2-5-21l-8.4,25.8l-8.9-2.9l15.2-46.6l8.2,2.7C401,293.9,405.6,306.2,411.3,308.1z"/>
	</g>
	<g>
		<path fill="#FFFFFF" d="M360.5,110.3c-0.5-1.6-1.7-3.1-3.7-4.5c-3-2.2-5.9-2.8-8.6-1.8c-2.7,1-5.5,3.6-8.3,7.7
			c2-0.8,4.4-0.9,7.2-0.2c2.8,0.7,5.6,2.1,8.5,4.2c5.2,3.8,8.6,7.9,10,12.3c1.4,4.4,0.7,8.7-2.3,12.8c-1.9,2.6-4.3,4.3-7.3,5.2
			c-3,0.9-6.4,0.8-10.1-0.2c-3.8-1-7.7-3.1-11.9-6.1c-8.1-5.9-12.5-11.7-13-17.5c-0.6-5.8,1.4-11.7,5.9-17.9
			c5.2-7.2,10.7-11.2,16.4-12.2c5.8-1,12.4,1.2,19.8,6.7c5.9,4.3,9.5,8.7,10.9,13.2c1.4,4.5,0.9,8.7-1.3,12.5l-12.6-9.2
			C360.9,113.6,361,111.9,360.5,110.3z M334.5,125.5c0.6,2,2.2,4,4.8,5.9c2.4,1.7,4.5,2.6,6.5,2.7c2,0.1,3.6-0.8,4.9-2.5
			s1.6-3.6,0.9-5.5c-0.7-1.9-2.2-3.7-4.6-5.5c-2.3-1.6-4.5-2.6-6.6-2.8c-2.2-0.2-3.9,0.5-5,2.1C334.2,121.6,333.9,123.5,334.5,125.5
			z"/>
	</g>
	<g>
		<path fill="#FFFFFF" d="M165.1,90l-25,18.2l5.7,7.8c0.5-1.7,1.5-3.5,3.1-5.4c1.6-1.9,3.6-3.7,5.9-5.4c3.7-2.7,7.3-4.4,10.6-5.1
			c3.4-0.7,6.3-0.5,8.9,0.6c2.6,1.1,4.8,2.8,6.5,5.1c3.1,4.2,3.8,8.8,2.2,13.8c-1.6,4.9-5.5,9.7-11.7,14.2
			c-4.2,3.1-8.2,5.2-12.1,6.4c-3.9,1.2-7.3,1.5-10.3,0.9s-5.5-2.1-7.4-4.5l13.1-9.6c1.2,1.1,2.6,1.5,4.4,1.5
			c1.8-0.1,3.7-0.8,5.7-2.3c2.4-1.7,3.7-3.5,4.2-5.4c0.4-1.9,0-3.8-1.3-5.5c-1.2-1.7-2.8-2.5-4.7-2.5c-1.9,0-4,0.8-6.3,2.5
			c-1.7,1.3-3,2.6-3.8,3.9c-0.8,1.4-1.1,2.6-0.9,3.8l-13.1,9.5l-17-23.4l37.2-27.1L165.1,90z"/>
	</g>
	<path fill="#FFFFFF" d="M344.6,163.1l-37.5-28.2c-1.8-1.4-2.2-4-0.8-5.8l1.1-1.5c1.4-1.8,4-2.2,5.8-0.8l37.5,28.2
		c1.8,1.4,2.2,4,0.8,5.8l-1.1,1.5C349.1,164.1,346.5,164.5,344.6,163.1z"/>
</g>
</svg>
