<?xml version="1.0"?><svg width="218" height="270" xmlns="http://www.w3.org/2000/svg">
 <title>greyX</title>

 <g>
  <title>Layer 1</title>
  <path fill="#ff0000" fill-rule="evenodd" stroke="#000000" stroke-width="0px" id="path2" d="m152.21698,5.5q3.160385,0 22.754715,3.01282l19.594345,3.012819l-4.74057,6.92949q-4.740555,6.92948 -18.962265,30.128199q-14.221695,23.198723 -17.698105,28.92308q-3.47641,5.724358 -17.38208,28.621788q-13.905647,22.897438 -13.905647,24.705132l0,1.807693l21.806587,18.378204q21.80661,18.378204 27.179245,22.897446q5.37265,4.519226 19.278305,20.185898q13.90567,15.666656 17.38208,27.115372l3.47641,11.44873l-6.320755,-2.711548q-6.320755,-2.711533 -23.070755,-12.653839q-16.75,-9.942307 -24.65094,-15.064102q-7.90094,-5.121796 -13.905655,-9.641037q-6.004715,-4.519226 -7.584915,-6.929474l-1.580185,-2.410263l-5.688675,-2.410263l-5.688683,-2.410248l-1.896225,-2.711548q-1.896225,-2.711533 -8.21698,-6.628204l-6.320755,-3.916656l-2.844345,4.217941q-2.844345,4.217957 -4.740562,9.038467l-1.896233,4.820511l-5.05661,4.217941q-5.056595,4.217957 -7.90094,8.134628q-2.84433,3.916656 -10.113197,13.256409q-7.268883,9.339737 -13.905659,18.07692q-6.636803,8.737183 -14.537743,16.269226q-7.900948,7.532059 -15.801889,12.653854q-7.90094,5.121796 -13.58962,6.628204l-5.68868,1.506409l3.47642,-6.025635q3.476411,-6.02565 8.53301,-13.256424q5.05661,-7.230759 13.90567,-22.89743q8.849049,-15.666672 25.915089,-45.192307q17.066029,-29.525635 17.066029,-31.935898l0,-2.410263l-11.06131,-8.134613q-11.061317,-8.134613 -27.811317,-18.07692l-16.75001,-9.942314l1.896229,-3.615387q1.896231,-3.615372 11.061319,-14.76281l9.1651,-11.147438l3.79245,1.807686q3.79245,1.807701 17.698124,12.653854q13.905655,10.846146 20.542435,15.967949q6.636803,5.121788 8.21698,5.423065l1.5802,0.301292l2.844345,-5.121796q2.844337,-5.121803 7.90094,-15.365395q5.05661,-10.243576 17.06604,-36.756397q12.009438,-26.512821 17.698112,-37.961542q5.688675,-11.448719 6.004715,-11.749999l0.31604,-0.30128l3.16037,0z"/>
 </g>
</svg>