<?xml version="1.0" encoding="utf-8"?>
<!-- Generator: Adobe Illustrator 25.2.0, SVG Export Plug-In . SVG Version: 6.00 Build 0)  -->
<svg version="1.1" id="Layer_1" xmlns="http://www.w3.org/2000/svg" xmlns:xlink="http://www.w3.org/1999/xlink" x="0px" y="0px"
	 viewBox="0 0 300 300" style="enable-background:new 0 0 300 300;" xml:space="preserve">
<style type="text/css">
	.st0{fill:#FF0000;}
	.st1{fill:#FFA500;}
	.st2{fill:#FFFF00;}
	.st3{fill:#00FF00;}
	.st4{fill:#0000FF;}
	.st5{fill:#4B0082;}
	.st6{fill:#800080;}
	.st7{fill:none;stroke:#000000;stroke-width:12;stroke-miterlimit:10;}
	.st8{display:none;}
	.st9{display:inline;}
	.st10{clip-path:url(#SVGID_2_);}
	.st11{clip-path:url(#SVGID_4_);}
	.st12{clip-path:url(#SVGID_6_);}
	.st13{clip-path:url(#SVGID_8_);}
	.st14{clip-path:url(#SVGID_10_);}
</style>
<g id="Layer_1_1_">
	<g>
		<g id="red">
			<path class="st0" d="M208.3,255H59.9c-7.4,0-13.4-6-13.4-13.4V93.1c0-7.4,6-13.4,13.4-13.4h148.4c7.4,0,13.4,6,13.4,13.4v148.4
				C221.8,249,215.7,255,208.3,255z"/>
			<path class="st0" d="M224.4,246.3l29.4-32.2c1.5-1.6,2.7-8.6,2.7-15.6V58.9c0-7-1.2-11.4-2.7-9.7l-29.4,32.2
				c-1.5,1.6-2.7,8.6-2.7,15.6v139.7C221.8,243.5,223,247.9,224.4,246.3z"/>
			<path class="st0" d="M206.4,79.9H64.9c-7.1,0-11.5-1.2-9.9-2.6l31.8-28.7c1.6-1.4,8.6-2.6,15.7-2.6h141.4c7.1,0,11.5,1.2,9.9,2.6
				L222,77.3C220.5,78.7,213.4,79.9,206.4,79.9z"/>
		</g>
		<g id="orange">
			<path class="st1" d="M208.3,255H59.9c-7.4,0-13.4-6-13.4-13.4V93.1c0-7.4,6-13.4,13.4-13.4h148.4c7.4,0,13.4,6,13.4,13.4v148.4
				C221.8,249,215.7,255,208.3,255z"/>
			<path class="st1" d="M224.4,246.3l29.4-32.2c1.5-1.6,2.7-8.6,2.7-15.6V58.9c0-7-1.2-11.4-2.7-9.7l-29.4,32.2
				c-1.5,1.6-2.7,8.6-2.7,15.6v139.7C221.8,243.5,223,247.9,224.4,246.3z"/>
			<path class="st1" d="M206.4,79.9H64.9c-7.1,0-11.5-1.2-9.9-2.6l31.8-28.7c1.6-1.4,8.6-2.6,15.7-2.6h141.4c7.1,0,11.5,1.2,9.9,2.6
				L222,77.3C220.5,78.7,213.4,79.9,206.4,79.9z"/>
		</g>
		<g id="yellow">
			<path class="st2" d="M208.3,255H59.9c-7.4,0-13.4-6-13.4-13.4V93.1c0-7.4,6-13.4,13.4-13.4h148.4c7.4,0,13.4,6,13.4,13.4v148.4
				C221.8,249,215.7,255,208.3,255z"/>
			<path class="st2" d="M224.4,246.3l29.4-32.2c1.5-1.6,2.7-8.6,2.7-15.6V58.9c0-7-1.2-11.4-2.7-9.7l-29.4,32.2
				c-1.5,1.6-2.7,8.6-2.7,15.6v139.7C221.8,243.5,223,247.9,224.4,246.3z"/>
			<path class="st2" d="M206.4,79.9H64.9c-7.1,0-11.5-1.2-9.9-2.6l31.8-28.7c1.6-1.4,8.6-2.6,15.7-2.6h141.4c7.1,0,11.5,1.2,9.9,2.6
				L222,77.3C220.5,78.7,213.4,79.9,206.4,79.9z"/>
		</g>
		<g id="green">
			<path class="st3" d="M208.3,255H59.9c-7.4,0-13.4-6-13.4-13.4V93.1c0-7.4,6-13.4,13.4-13.4h148.4c7.4,0,13.4,6,13.4,13.4v148.4
				C221.8,249,215.7,255,208.3,255z"/>
			<path class="st3" d="M224.4,246.3l29.4-32.2c1.5-1.6,2.7-8.6,2.7-15.6V58.9c0-7-1.2-11.4-2.7-9.7l-29.4,32.2
				c-1.5,1.6-2.7,8.6-2.7,15.6v139.7C221.8,243.5,223,247.9,224.4,246.3z"/>
			<path class="st3" d="M206.4,79.9H64.9c-7.1,0-11.5-1.2-9.9-2.6l31.8-28.7c1.6-1.4,8.6-2.6,15.7-2.6h141.4c7.1,0,11.5,1.2,9.9,2.6
				L222,77.3C220.5,78.7,213.4,79.9,206.4,79.9z"/>
		</g>
		<g id="blue">
			<path class="st4" d="M208.3,255H59.9c-7.4,0-13.4-6-13.4-13.4V93.1c0-7.4,6-13.4,13.4-13.4h148.4c7.4,0,13.4,6,13.4,13.4v148.4
				C221.8,249,215.7,255,208.3,255z"/>
			<path class="st4" d="M224.4,246.3l29.4-32.2c1.5-1.6,2.7-8.6,2.7-15.6V58.9c0-7-1.2-11.4-2.7-9.7l-29.4,32.2
				c-1.5,1.6-2.7,8.6-2.7,15.6v139.7C221.8,243.5,223,247.9,224.4,246.3z"/>
			<path class="st4" d="M206.4,79.9H64.9c-7.1,0-11.5-1.2-9.9-2.6l31.8-28.7c1.6-1.4,8.6-2.6,15.7-2.6h141.4c7.1,0,11.5,1.2,9.9,2.6
				L222,77.3C220.5,78.7,213.4,79.9,206.4,79.9z"/>
		</g>
		<g id="indigo">
			<path class="st5" d="M208.3,255H59.9c-7.4,0-13.4-6-13.4-13.4V93.1c0-7.4,6-13.4,13.4-13.4h148.4c7.4,0,13.4,6,13.4,13.4v148.4
				C221.8,249,215.7,255,208.3,255z"/>
			<path class="st5" d="M224.4,246.3l29.4-32.2c1.5-1.6,2.7-8.6,2.7-15.6V58.9c0-7-1.2-11.4-2.7-9.7l-29.4,32.2
				c-1.5,1.6-2.7,8.6-2.7,15.6v139.7C221.8,243.5,223,247.9,224.4,246.3z"/>
			<path class="st5" d="M206.4,79.9H64.9c-7.1,0-11.5-1.2-9.9-2.6l31.8-28.7c1.6-1.4,8.6-2.6,15.7-2.6h141.4c7.1,0,11.5,1.2,9.9,2.6
				L222,77.3C220.5,78.7,213.4,79.9,206.4,79.9z"/>
		</g>
		<g id="purple">
			<path class="st6" d="M208.3,255H59.9c-7.4,0-13.4-6-13.4-13.4V93.1c0-7.4,6-13.4,13.4-13.4h148.4c7.4,0,13.4,6,13.4,13.4v148.4
				C221.8,249,215.7,255,208.3,255z"/>
			<path class="st6" d="M224.4,246.3l29.4-32.2c1.5-1.6,2.7-8.6,2.7-15.6V58.9c0-7-1.2-11.4-2.7-9.7l-29.4,32.2
				c-1.5,1.6-2.7,8.6-2.7,15.6v139.7C221.8,243.5,223,247.9,224.4,246.3z"/>
			<path class="st6" d="M206.4,79.9H64.9c-7.1,0-11.5-1.2-9.9-2.6l31.8-28.7c1.6-1.4,8.6-2.6,15.7-2.6h141.4c7.1,0,11.5,1.2,9.9,2.6
				L222,77.3C220.5,78.7,213.4,79.9,206.4,79.9z"/>
		</g>
		<g>
			<path class="st7" d="M208.3,255H59.9c-7.4,0-13.4-6-13.4-13.4V93.1c0-7.4,6-13.4,13.4-13.4h148.4c7.4,0,13.4,6,13.4,13.4v148.4
				C221.8,249,215.7,255,208.3,255z"/>
			<path class="st7" d="M224.4,246.3l29.4-32.2c1.5-1.6,2.7-8.6,2.7-15.6V58.9c0-7-1.2-11.4-2.7-9.7l-29.4,32.2
				c-1.5,1.6-2.7,8.6-2.7,15.6v139.7C221.8,243.5,223,247.9,224.4,246.3z"/>
			<path class="st7" d="M206.4,79.9H64.9c-7.1,0-11.5-1.2-9.9-2.6l31.8-28.7c1.6-1.4,8.6-2.6,15.7-2.6h141.4c7.1,0,11.5,1.2,9.9,2.6
				L222,77.3C220.5,78.7,213.4,79.9,206.4,79.9z"/>
		</g>
	</g>
</g>
<g id="face_6" class="st8">
	<g class="st9">
		<path d="M141.7,140.3c-1.5-1.7-3.8-2.5-6.6-2.5c-4.4,0-7.5,2-9.3,6.1c-1.9,4-2.7,10.3-2.5,18.6c1.3-3.1,3.5-5.5,6.6-7.3
			s6.8-2.7,10.9-2.7c7.6,0,13.5,2.3,17.9,6.9c4.4,4.6,6.6,11.1,6.6,19.7c0,5.4-1.1,10.1-3.3,14.3s-5.4,7.4-9.7,9.7
			s-9.4,3.5-15.4,3.5c-11.7,0-19.8-3.6-24.3-10.9c-4.5-7.3-6.7-17.3-6.7-30.1c0-14.8,2.4-25.7,7.1-32.7c4.8-7,12.5-10.5,23.2-10.5
			c8.5,0,14.9,2.4,19.3,7.2c4.4,4.8,6.8,10.9,7.4,18.2h-18.1C144.3,144.4,143.3,142,141.7,140.3z M127.6,186.6
			c2,2.2,4.8,3.2,8.6,3.2c3.4,0,6.1-0.9,8-2.8c1.9-1.9,2.9-4.6,2.9-8.3c0-3.6-1-6.4-2.9-8.3c-2-1.9-4.6-2.9-8-2.9
			c-3.2,0-6,0.9-8.2,2.8c-2.2,1.9-3.3,4.5-3.3,7.9C124.7,181.6,125.6,184.4,127.6,186.6z"/>
	</g>
	<g class="st9">
		<path d="M183.4,57.9h-29.8l-3,3c1.6-0.3,3.7-0.6,6.3-0.8c2.5-0.2,5.2-0.3,7.9-0.3c4.4,0,7.9,0.2,10.5,0.7c2.6,0.4,4.2,1,4.9,1.8
			c0.7,0.7,0.6,1.5-0.3,2.4c-1.6,1.6-4.9,2.9-9.9,3.8s-11.2,1.4-18.5,1.4c-5,0-9.1-0.2-12.4-0.6c-3.3-0.4-5.6-0.9-6.9-1.6
			c-1.3-0.7-1.5-1.5-0.7-2.4h15.6c-0.2,0.5,0.3,0.9,1.4,1.2c1.1,0.3,2.9,0.5,5.3,0.5c2.8,0,5.1-0.2,6.9-0.6c1.8-0.4,3-0.9,3.7-1.6
			c0.6-0.6,0.4-1.1-0.8-1.5c-1.2-0.3-3.1-0.5-5.8-0.5c-2.1,0-3.9,0.1-5.5,0.3s-2.8,0.5-3.6,0.8h-15.5l8.9-8.9h44.3L183.4,57.9z"/>
	</g>
	<g class="st9">
		<path d="M230.1,174.8v-12.2l9.9-44.7l5.6-3.9v37.3l2.6-1.8v12.7l-2.6,1.8v11l-5.3,3.7v-11.1L230.1,174.8z M240.7,134.2l-5.3,24.1
			l5.3-3.7V134.2z"/>
	</g>
</g>
<g id="face_5" class="st8">
	<g class="st9">
		<path d="M163.4,140.6h-36v16.2c1.6-1.8,3.8-3.2,6.6-4.2s5.9-1.5,9.2-1.5c5.4,0,9.9,1.2,13.5,3.6c3.6,2.4,6.3,5.6,8,9.6
			s2.6,8.4,2.6,13.3c0,8.8-2.5,15.7-7.4,20.8s-11.8,7.6-20.7,7.6c-6,0-11.3-1.1-15.8-3.2c-4.5-2.2-7.9-5.2-10.3-9
			c-2.4-3.9-3.7-8.3-3.9-13.4h18.9c0.4,2.6,1.4,4.7,3.1,6.3c1.7,1.7,4,2.5,7,2.5c3.4,0,5.9-1.1,7.6-3.3c1.7-2.2,2.6-5.1,2.6-8.7
			c0-3.5-0.9-6.2-2.7-8c-1.8-1.9-4.3-2.8-7.6-2.8c-2.5,0-4.6,0.5-6.2,1.6c-1.7,1.1-2.8,2.5-3.4,4.2h-18.8v-48.5h53.6L163.4,140.6
			L163.4,140.6z"/>
	</g>
	<g class="st9">
		<path d="M139.1,58.5l3.3-3.3h26.8l-14.7,14.7h-16.9L149,58.5H139.1z"/>
	</g>
	<g class="st9">
		<path d="M230.1,174.8v-12.2l9.9-44.7l5.6-3.9v37.3l2.6-1.8v12.7l-2.6,1.8v11l-5.3,3.7v-11.1L230.1,174.8z M240.7,134.2l-5.3,24.1
			l5.3-3.7V134.2z"/>
	</g>
</g>
<g id="face_4" class="st8">
	<g class="st9">
		<path d="M97.5,191v-16.2l36.6-50.2H155v49.5h9.6V191H155v14.7h-19.6V191H97.5z M136.9,147l-19.7,27.1h19.7V147z"/>
	</g>
	<g class="st9">
		<path d="M139.1,58.5l3.3-3.3h26.8l-14.7,14.7h-16.9L149,58.5H139.1z"/>
	</g>
	<g class="st9">
		<path d="M242,136.9c0-4.7-0.8-6.5-2.3-5.5c-0.9,0.6-1.5,1.8-1.9,3.6c-0.4,1.9-0.6,4.5-0.7,7.9l-5.4,3.6c0.1-7.4,1-13.5,2.5-18.2
			s3.5-7.9,5.9-9.4c2.5-1.6,4.3-1.2,5.6,1.2c1.3,2.5,1.9,6.3,1.9,11.6c0,5.9-0.8,12.1-2.5,18.9c-1.7,6.7-3.7,12.8-6.1,18.3l9-6v11.8
			l-16.2,10.8v-10.9C238.6,157.1,242,144.5,242,136.9z"/>
	</g>
</g>
<g id="face_3" class="st8">
	<g class="st9">
		<path d="M148.1,125c4,1.9,7,4.6,9.1,7.9c2.1,3.4,3.1,7.2,3.1,11.4c0,5.2-1.3,9.4-4,12.6c-2.7,3.2-6,5.2-10,6v0.6
			c10.4,3.3,15.5,9.8,15.5,19.4c0,4.6-1.1,8.7-3.2,12.3c-2.1,3.6-5.2,6.4-9.2,8.4s-8.9,3-14.6,3c-9.2,0-16.5-2.3-21.9-6.8
			s-8.3-11.4-8.8-20.7H123c0.2,3.6,1.1,6.3,2.9,8.4s4.5,3.1,7.9,3.1c2.8,0,5-0.8,6.6-2.5s2.4-3.8,2.4-6.5c0-6.6-4.8-9.9-14.3-9.9
			h-3.6v-15.8h3.5c8.5,0.2,12.8-2.9,12.8-9.2c0-2.7-0.7-4.8-2.2-6.3s-3.5-2.2-5.9-2.2c-2.7,0-4.9,0.9-6.5,2.8
			c-1.6,1.9-2.5,4.3-2.7,7.4H105c0.4-8.5,3-15,7.9-19.5s11.8-6.8,20.6-6.8C139.3,122.1,144.1,123,148.1,125z"/>
	</g>
	<g class="st9">
		<path d="M165.6,57.8c-1-0.3-2.6-0.5-5-0.5c-3.6,0-6.6,0.4-8.8,1.1s-4.1,1.9-5.5,3.4c1.6-0.6,3.9-1,6.8-1.3
			c2.9-0.3,6.1-0.5,9.5-0.5c6.2,0,10.8,0.4,13.5,1.3c2.8,0.8,3.4,2,1.8,3.6c-1,1-2.8,1.9-5.3,2.6c-2.6,0.8-5.8,1.4-9.8,1.8
			c-3.9,0.4-8.4,0.6-13.3,0.6c-9.7,0-15.7-0.7-18-2c-2.4-1.3-2.4-3.2,0-5.5c2.7-2.7,6.7-4.7,11.9-6s12.3-1.9,21.1-1.9
			c7,0,11.9,0.4,14.6,1.3c2.7,0.9,3.7,2,2.8,3.3h-15C167,58.6,166.6,58.1,165.6,57.8z M145.4,66.3c1.2,0.4,3.4,0.6,6.5,0.6
			c2.8,0,5.2-0.2,7.1-0.5c1.9-0.3,3.2-0.9,3.9-1.5c0.7-0.7,0.4-1.2-0.9-1.5c-1.3-0.4-3.3-0.5-6.1-0.5c-2.7,0-5.1,0.2-7.3,0.5
			c-2.1,0.3-3.5,0.8-4.2,1.4C143.9,65.4,144.2,65.9,145.4,66.3z"/>
	</g>
	<g class="st9">
		<path d="M242,136.9c0-4.7-0.8-6.5-2.3-5.5c-0.9,0.6-1.5,1.8-1.9,3.6c-0.4,1.9-0.6,4.5-0.7,7.9l-5.4,3.6c0.1-7.4,1-13.5,2.5-18.2
			s3.5-7.9,5.9-9.4c2.5-1.6,4.3-1.2,5.6,1.2c1.3,2.5,1.9,6.3,1.9,11.6c0,5.9-0.8,12.1-2.5,18.9c-1.7,6.7-3.7,12.8-6.1,18.3l9-6v11.8
			l-16.2,10.8v-10.9C238.6,157.1,242,144.5,242,136.9z"/>
	</g>
</g>
<g id="face_2" class="st8">
	<g class="st9">
		<path d="M139.4,149.4c0-6.2-2.7-9.3-8-9.3c-3,0-5.2,1.1-6.6,3.2c-1.4,2.1-2.2,5.4-2.3,9.9h-18.9c0.5-9.7,3.4-17.1,8.8-22
			c5.4-4.9,12.3-7.4,20.6-7.4c8.7,0,15.2,2.2,19.7,6.6c4.4,4.4,6.6,10.1,6.6,17.1c0,7.8-3,15.4-9,22.8c-6,7.4-13.1,13.7-21.4,18.9
			h31.6v15.6h-57.1v-14.5C127.4,173.1,139.4,159.5,139.4,149.4z"/>
	</g>
	<g class="st9">
		<path d="M165.6,57.8c-1-0.3-2.6-0.5-5-0.5c-3.6,0-6.6,0.4-8.8,1.1s-4.1,1.9-5.5,3.4c1.6-0.6,3.9-1,6.8-1.3
			c2.9-0.3,6.1-0.5,9.5-0.5c6.2,0,10.8,0.4,13.5,1.3c2.8,0.8,3.4,2,1.8,3.6c-1,1-2.8,1.9-5.3,2.6c-2.6,0.8-5.8,1.4-9.8,1.8
			c-3.9,0.4-8.4,0.6-13.3,0.6c-9.7,0-15.7-0.7-18-2c-2.4-1.3-2.4-3.2,0-5.5c2.7-2.7,6.7-4.7,11.9-6s12.3-1.9,21.1-1.9
			c7,0,11.9,0.4,14.6,1.3c2.7,0.9,3.7,2,2.8,3.3h-15C167,58.6,166.6,58.1,165.6,57.8z M145.4,66.3c1.2,0.4,3.4,0.6,6.5,0.6
			c2.8,0,5.2-0.2,7.1-0.5c1.9-0.3,3.2-0.9,3.9-1.5c0.7-0.7,0.4-1.2-0.9-1.5c-1.3-0.4-3.3-0.5-6.1-0.5c-2.7,0-5.1,0.2-7.3,0.5
			c-2.1,0.3-3.5,0.8-4.2,1.4C143.9,65.4,144.2,65.9,145.4,66.3z"/>
	</g>
	<g class="st9">
		<path d="M230.1,174.8v-12.2l10-44.7l5.7-3.9v37.3l2.6-1.8v12.7l-2.6,1.8v11l-5.4,3.7v-11.1L230.1,174.8z M240.9,134.2l-5.4,24.1
			l5.4-3.7V134.2z"/>
	</g>
</g>
<g id="Artwork_1_1_">
	<g>
		<defs>
			<rect id="SVGID_1_" x="104.4" y="125.2" width="59.4" height="84.2"/>
		</defs>
		<clipPath id="SVGID_2_">
			<use xlink:href="#SVGID_1_"  style="overflow:visible;"/>
		</clipPath>
		<g class="st10">
			<defs>
				<rect id="SVGID_3_" x="104.4" y="125.2" width="59.4" height="84.2"/>
			</defs>
			<clipPath id="SVGID_4_">
				<use xlink:href="#SVGID_3_"  style="overflow:visible;"/>
			</clipPath>
			<path class="st11" d="M140.2,143.1c-1.5-1.7-3.8-2.5-6.6-2.5c-4.4,0-7.5,2-9.3,6.1c-1.9,4-2.7,10.3-2.5,18.6
				c1.3-3.1,3.5-5.5,6.6-7.3c3.1-1.8,6.8-2.7,10.9-2.7c7.6,0,13.5,2.3,17.9,6.9c4.4,4.6,6.6,11.1,6.6,19.7c0,5.4-1.1,10.1-3.3,14.3
				c-2.2,4.2-5.4,7.4-9.7,9.7c-4.3,2.3-9.4,3.5-15.4,3.5c-11.7,0-19.8-3.6-24.3-10.9c-4.5-7.3-6.7-17.3-6.7-30.1
				c0-14.8,2.4-25.7,7.1-32.7c4.8-7,12.5-10.5,23.2-10.5c8.5,0,14.9,2.4,19.3,7.2c4.4,4.8,6.8,10.9,7.4,18.2h-18.1
				C142.8,147.2,141.8,144.8,140.2,143.1 M126.1,189.4c2,2.2,4.8,3.2,8.6,3.2c3.4,0,6.1-0.9,8-2.8c1.9-1.9,2.9-4.6,2.9-8.3
				c0-3.6-1-6.4-2.9-8.3c-2-1.9-4.6-2.9-8-2.9c-3.2,0-6,0.9-8.2,2.8c-2.2,1.9-3.3,4.5-3.3,7.9C123.2,184.4,124.1,187.3,126.1,189.4"
				/>
		</g>
	</g>
</g>
<g id="Artwork_3_1_">
	<g>
		<defs>
			<rect id="SVGID_5_" x="230.1" y="110" width="18.1" height="64.7"/>
		</defs>
		<clipPath id="SVGID_6_">
			<use xlink:href="#SVGID_5_"  style="overflow:visible;"/>
		</clipPath>
		<path class="st12" d="M240.6,130.2v20.4l-5.3,3.7L240.6,130.2z M245.5,109.9l-5.6,3.9l-9.9,44.7v12.2l10.2-7.2v11.1l5.3-3.7v-11
			l2.6-1.8v-12.7l-2.6,1.8V109.9z"/>
	</g>
</g>
<g id="Artwork_4_1_">
	<g>
		<defs>
			<rect id="SVGID_7_" x="122.3" y="55.5" width="55.4" height="14.9"/>
		</defs>
		<clipPath id="SVGID_8_">
			<use xlink:href="#SVGID_7_"  style="overflow:visible;"/>
		</clipPath>
		<g class="st13">
			<defs>
				<rect id="SVGID_9_" x="122.3" y="55.5" width="55.4" height="14.9"/>
			</defs>
			<clipPath id="SVGID_10_">
				<use xlink:href="#SVGID_9_"  style="overflow:visible;"/>
			</clipPath>
			<path class="st14" d="M174.7,58.4h-29.8l-3,3c1.6-0.3,3.7-0.6,6.3-0.8c2.5-0.2,5.2-0.3,7.9-0.3c4.4,0,7.9,0.2,10.5,0.7
				c2.6,0.4,4.2,1,4.9,1.8c0.7,0.7,0.6,1.5-0.3,2.4c-1.6,1.6-4.9,2.9-9.9,3.8s-11.2,1.4-18.5,1.4c-5,0-9.1-0.2-12.4-0.6
				c-3.3-0.4-5.6-0.9-6.9-1.6c-1.3-0.7-1.5-1.5-0.7-2.4h15.6c-0.2,0.5,0.3,0.9,1.4,1.2c1.1,0.3,2.9,0.5,5.3,0.5
				c2.8,0,5.1-0.2,6.9-0.6c1.8-0.4,3-0.9,3.7-1.6c0.6-0.6,0.4-1.1-0.8-1.5c-1.2-0.3-3.1-0.5-5.8-0.5c-2.1,0-3.9,0.1-5.5,0.3
				c-1.6,0.2-2.8,0.5-3.6,0.8h-15.5l8.9-8.9h44.3L174.7,58.4z"/>
		</g>
	</g>
</g>
</svg>
