<?xml version="1.0" encoding="utf-8"?>
<!-- Generator: Adobe Illustrator 17.1.0, SVG Export Plug-In . SVG Version: 6.00 Build 0)  -->
<!DOCTYPE svg PUBLIC "-//W3C//DTD SVG 1.1//EN" "http://www.w3.org/Graphics/SVG/1.1/DTD/svg11.dtd">
<svg version="1.1" xmlns="http://www.w3.org/2000/svg" xmlns:xlink="http://www.w3.org/1999/xlink" x="0px" y="0px"
	 viewBox="0 0 300 300" enable-background="new 0 0 300 300" xml:space="preserve">
<g id="Layer_1">
	<g>
		<g id="red">
			<path fill="#FF0000" d="M208.3,255H59.9c-7.4,0-13.4-6-13.4-13.4V93.1c0-7.4,6-13.4,13.4-13.4h148.4c7.4,0,13.4,6,13.4,13.4
				v148.4C221.8,249,215.7,255,208.3,255z"/>
			<path fill="#FF0000" d="M224.4,246.3l29.4-32.2c1.5-1.6,2.7-8.6,2.7-15.6V58.9c0-7-1.2-11.4-2.7-9.7l-29.4,32.2
				c-1.5,1.6-2.7,8.6-2.7,15.6v139.7C221.8,243.5,223,247.9,224.4,246.3z"/>
			<path fill="#FF0000" d="M206.4,79.9H64.9c-7.1,0-11.5-1.2-9.9-2.6l31.8-28.7c1.6-1.4,8.6-2.6,15.7-2.6h141.4
				c7.1,0,11.5,1.2,9.9,2.6l-31.8,28.7C220.5,78.7,213.4,79.9,206.4,79.9z"/>
		</g>
		<g id="orange">
			<path fill="#FFA500" d="M208.3,255H59.9c-7.4,0-13.4-6-13.4-13.4V93.1c0-7.4,6-13.4,13.4-13.4h148.4c7.4,0,13.4,6,13.4,13.4
				v148.4C221.8,249,215.7,255,208.3,255z"/>
			<path fill="#FFA500" d="M224.4,246.3l29.4-32.2c1.5-1.6,2.7-8.6,2.7-15.6V58.9c0-7-1.2-11.4-2.7-9.7l-29.4,32.2
				c-1.5,1.6-2.7,8.6-2.7,15.6v139.7C221.8,243.5,223,247.9,224.4,246.3z"/>
			<path fill="#FFA500" d="M206.4,79.9H64.9c-7.1,0-11.5-1.2-9.9-2.6l31.8-28.7c1.6-1.4,8.6-2.6,15.7-2.6h141.4
				c7.1,0,11.5,1.2,9.9,2.6l-31.8,28.7C220.5,78.7,213.4,79.9,206.4,79.9z"/>
		</g>
		<g id="yellow" display="none">
			<path display="inline" fill="#FFFF00" d="M208.3,255H59.9c-7.4,0-13.4-6-13.4-13.4V93.1c0-7.4,6-13.4,13.4-13.4h148.4
				c7.4,0,13.4,6,13.4,13.4v148.4C221.8,249,215.7,255,208.3,255z"/>
			<path display="inline" fill="#FFFF00" d="M224.4,246.3l29.4-32.2c1.5-1.6,2.7-8.6,2.7-15.6V58.9c0-7-1.2-11.4-2.7-9.7l-29.4,32.2
				c-1.5,1.6-2.7,8.6-2.7,15.6v139.7C221.8,243.5,223,247.9,224.4,246.3z"/>
			<path display="inline" fill="#FFFF00" d="M206.4,79.9H64.9c-7.1,0-11.5-1.2-9.9-2.6l31.8-28.7c1.6-1.4,8.6-2.6,15.7-2.6h141.4
				c7.1,0,11.5,1.2,9.9,2.6l-31.8,28.7C220.5,78.7,213.4,79.9,206.4,79.9z"/>
		</g>
		<g id="green" display="none">
			<path display="inline" fill="#00FF00" d="M208.3,255H59.9c-7.4,0-13.4-6-13.4-13.4V93.1c0-7.4,6-13.4,13.4-13.4h148.4
				c7.4,0,13.4,6,13.4,13.4v148.4C221.8,249,215.7,255,208.3,255z"/>
			<path display="inline" fill="#00FF00" d="M224.4,246.3l29.4-32.2c1.5-1.6,2.7-8.6,2.7-15.6V58.9c0-7-1.2-11.4-2.7-9.7l-29.4,32.2
				c-1.5,1.6-2.7,8.6-2.7,15.6v139.7C221.8,243.5,223,247.9,224.4,246.3z"/>
			<path display="inline" fill="#00FF00" d="M206.4,79.9H64.9c-7.1,0-11.5-1.2-9.9-2.6l31.8-28.7c1.6-1.4,8.6-2.6,15.7-2.6h141.4
				c7.1,0,11.5,1.2,9.9,2.6l-31.8,28.7C220.5,78.7,213.4,79.9,206.4,79.9z"/>
		</g>
		<g id="blue" display="none">
			<path display="inline" fill="#0000FF" d="M208.3,255H59.9c-7.4,0-13.4-6-13.4-13.4V93.1c0-7.4,6-13.4,13.4-13.4h148.4
				c7.4,0,13.4,6,13.4,13.4v148.4C221.8,249,215.7,255,208.3,255z"/>
			<path display="inline" fill="#0000FF" d="M224.4,246.3l29.4-32.2c1.5-1.6,2.7-8.6,2.7-15.6V58.9c0-7-1.2-11.4-2.7-9.7l-29.4,32.2
				c-1.5,1.6-2.7,8.6-2.7,15.6v139.7C221.8,243.5,223,247.9,224.4,246.3z"/>
			<path display="inline" fill="#0000FF" d="M206.4,79.9H64.9c-7.1,0-11.5-1.2-9.9-2.6l31.8-28.7c1.6-1.4,8.6-2.6,15.7-2.6h141.4
				c7.1,0,11.5,1.2,9.9,2.6l-31.8,28.7C220.5,78.7,213.4,79.9,206.4,79.9z"/>
		</g>
		<g id="indigo" display="none">
			<path display="inline" fill="#4B0082" d="M208.3,255H59.9c-7.4,0-13.4-6-13.4-13.4V93.1c0-7.4,6-13.4,13.4-13.4h148.4
				c7.4,0,13.4,6,13.4,13.4v148.4C221.8,249,215.7,255,208.3,255z"/>
			<path display="inline" fill="#4B0082" d="M224.4,246.3l29.4-32.2c1.5-1.6,2.7-8.6,2.7-15.6V58.9c0-7-1.2-11.4-2.7-9.7l-29.4,32.2
				c-1.5,1.6-2.7,8.6-2.7,15.6v139.7C221.8,243.5,223,247.9,224.4,246.3z"/>
			<path display="inline" fill="#4B0082" d="M206.4,79.9H64.9c-7.1,0-11.5-1.2-9.9-2.6l31.8-28.7c1.6-1.4,8.6-2.6,15.7-2.6h141.4
				c7.1,0,11.5,1.2,9.9,2.6l-31.8,28.7C220.5,78.7,213.4,79.9,206.4,79.9z"/>
		</g>
		<g id="purple" display="none">
			<path display="inline" fill="#800080" d="M208.3,255H59.9c-7.4,0-13.4-6-13.4-13.4V93.1c0-7.4,6-13.4,13.4-13.4h148.4
				c7.4,0,13.4,6,13.4,13.4v148.4C221.8,249,215.7,255,208.3,255z"/>
			<path display="inline" fill="#800080" d="M224.4,246.3l29.4-32.2c1.5-1.6,2.7-8.6,2.7-15.6V58.9c0-7-1.2-11.4-2.7-9.7l-29.4,32.2
				c-1.5,1.6-2.7,8.6-2.7,15.6v139.7C221.8,243.5,223,247.9,224.4,246.3z"/>
			<path display="inline" fill="#800080" d="M206.4,79.9H64.9c-7.1,0-11.5-1.2-9.9-2.6l31.8-28.7c1.6-1.4,8.6-2.6,15.7-2.6h141.4
				c7.1,0,11.5,1.2,9.9,2.6l-31.8,28.7C220.5,78.7,213.4,79.9,206.4,79.9z"/>
		</g>
		<g>
			<path fill="none" stroke="#FFFFFF" stroke-width="12" stroke-miterlimit="10" d="M208.3,255H59.9c-7.4,0-13.4-6-13.4-13.4V93.1
				c0-7.4,6-13.4,13.4-13.4h148.4c7.4,0,13.4,6,13.4,13.4v148.4C221.8,249,215.7,255,208.3,255z"/>
			<path fill="none" stroke="#FFFFFF" stroke-width="12" stroke-miterlimit="10" d="M224.4,246.3l29.4-32.2
				c1.5-1.6,2.7-8.6,2.7-15.6V58.9c0-7-1.2-11.4-2.7-9.7l-29.4,32.2c-1.5,1.6-2.7,8.6-2.7,15.6v139.7
				C221.8,243.5,223,247.9,224.4,246.3z"/>
			<path fill="none" stroke="#FFFFFF" stroke-width="12" stroke-miterlimit="10" d="M206.4,79.9H64.9c-7.1,0-11.5-1.2-9.9-2.6
				l31.8-28.7c1.6-1.4,8.6-2.6,15.7-2.6h141.4c7.1,0,11.5,1.2,9.9,2.6l-31.8,28.7C220.5,78.7,213.4,79.9,206.4,79.9z"/>
		</g>
	</g>
</g>
<g id="face_6" display="none">
	<g display="inline">
		<path fill="#FFFFFF" d="M141.7,140.3c-1.5-1.7-3.8-2.5-6.6-2.5c-4.4,0-7.5,2-9.3,6.1c-1.9,4-2.7,10.3-2.5,18.6
			c1.3-3.1,3.5-5.5,6.6-7.3c3.1-1.8,6.8-2.7,10.9-2.7c7.6,0,13.5,2.3,17.9,6.9c4.4,4.6,6.6,11.1,6.6,19.7c0,5.4-1.1,10.1-3.3,14.3
			c-2.2,4.2-5.4,7.4-9.7,9.7c-4.3,2.3-9.4,3.5-15.4,3.5c-11.7,0-19.8-3.6-24.3-10.9c-4.5-7.3-6.7-17.3-6.7-30.1
			c0-14.8,2.4-25.7,7.1-32.7c4.8-7,12.5-10.5,23.2-10.5c8.5,0,14.9,2.4,19.3,7.2c4.4,4.8,6.8,10.9,7.4,18.2h-18.1
			C144.3,144.4,143.3,142,141.7,140.3z M127.6,186.6c2,2.2,4.8,3.2,8.6,3.2c3.4,0,6.1-0.9,8-2.8c1.9-1.9,2.9-4.6,2.9-8.3
			c0-3.6-1-6.4-2.9-8.3c-2-1.9-4.6-2.9-8-2.9c-3.2,0-6,0.9-8.2,2.8c-2.2,1.9-3.3,4.5-3.3,7.9C124.7,181.6,125.6,184.4,127.6,186.6z"
			/>
	</g>
	<g display="inline">
		<path fill="#FFFFFF" d="M183.4,57.9h-29.8l-3,3c1.6-0.3,3.7-0.6,6.3-0.8c2.5-0.2,5.2-0.3,7.9-0.3c4.4,0,7.9,0.2,10.5,0.7
			c2.6,0.4,4.2,1,4.9,1.8c0.7,0.7,0.6,1.5-0.3,2.4c-1.6,1.6-4.9,2.9-9.9,3.8c-5,0.9-11.2,1.4-18.5,1.4c-5,0-9.1-0.2-12.4-0.6
			c-3.3-0.4-5.6-0.9-6.9-1.6c-1.3-0.7-1.5-1.5-0.7-2.4h15.6c-0.2,0.5,0.3,0.9,1.4,1.2c1.1,0.3,2.9,0.5,5.3,0.5
			c2.8,0,5.1-0.2,6.9-0.6c1.8-0.4,3-0.9,3.7-1.6c0.6-0.6,0.4-1.1-0.8-1.5c-1.2-0.3-3.1-0.5-5.8-0.5c-2.1,0-3.9,0.1-5.5,0.3
			c-1.6,0.2-2.8,0.5-3.6,0.8h-15.5l8.9-8.9h44.3L183.4,57.9z"/>
	</g>
	<g display="inline">
		<path fill="#FFFFFF" d="M230.1,174.8v-12.2l9.9-44.7l5.6-3.9v37.3l2.6-1.8v12.7l-2.6,1.8V175l-5.3,3.7v-11.1L230.1,174.8z
			 M240.7,134.2l-5.3,24.1l5.3-3.7V134.2z"/>
	</g>
</g>
<g id="face_5" display="none">
	<g display="inline">
		<path fill="#FFFFFF" d="M163.4,140.6h-36v16.2c1.6-1.8,3.8-3.2,6.6-4.2c2.8-1,5.9-1.5,9.2-1.5c5.4,0,9.9,1.2,13.5,3.6
			c3.6,2.4,6.3,5.6,8,9.6c1.7,4,2.6,8.4,2.6,13.3c0,8.8-2.5,15.7-7.4,20.8c-4.9,5.1-11.8,7.6-20.7,7.6c-6,0-11.3-1.1-15.8-3.2
			c-4.5-2.2-7.9-5.2-10.3-9c-2.4-3.9-3.7-8.3-3.9-13.4h18.9c0.4,2.6,1.4,4.7,3.1,6.3c1.7,1.7,4,2.5,7,2.5c3.4,0,5.9-1.1,7.6-3.3
			c1.7-2.2,2.6-5.1,2.6-8.7c0-3.5-0.9-6.2-2.7-8c-1.8-1.9-4.3-2.8-7.6-2.8c-2.5,0-4.6,0.5-6.2,1.6c-1.7,1.1-2.8,2.5-3.4,4.2h-18.8
			v-48.5h53.6V140.6z"/>
	</g>
	<g display="inline">
		<path fill="#FFFFFF" d="M139.1,58.5l3.3-3.3h26.8l-14.7,14.7h-16.9L149,58.5H139.1z"/>
	</g>
	<g display="inline">
		<path fill="#FFFFFF" d="M230.1,174.8v-12.2l9.9-44.7l5.6-3.9v37.3l2.6-1.8v12.7l-2.6,1.8V175l-5.3,3.7v-11.1L230.1,174.8z
			 M240.7,134.2l-5.3,24.1l5.3-3.7V134.2z"/>
	</g>
</g>
<g id="face_4" display="none">
	<g display="inline">
		<path fill="#FFFFFF" d="M104.5,191v-16.2l36.6-50.2h20.9v49.5h9.6V191h-9.6v14.7h-19.6V191H104.5z M143.9,147l-19.7,27.1h19.7V147
			z"/>
	</g>
	<g display="inline">
		<path fill="#FFFFFF" d="M139.1,58.5l3.3-3.3h26.8l-14.7,14.7h-16.9L149,58.5H139.1z"/>
	</g>
	<g display="inline">
		<path fill="#FFFFFF" d="M242,136.9c0-4.7-0.8-6.5-2.3-5.5c-0.9,0.6-1.5,1.8-1.9,3.6c-0.4,1.9-0.6,4.5-0.7,7.9l-5.4,3.6
			c0.1-7.4,1-13.5,2.5-18.2c1.5-4.7,3.5-7.9,5.9-9.4c2.5-1.6,4.3-1.2,5.6,1.2c1.3,2.5,1.9,6.3,1.9,11.6c0,5.9-0.8,12.1-2.5,18.9
			c-1.7,6.7-3.7,12.8-6.1,18.3l9-6v11.8l-16.2,10.8v-10.9C238.6,157.1,242,144.5,242,136.9z"/>
	</g>
</g>
<g id="face_3" display="none">
	<g display="inline">
		<path fill="#FFFFFF" d="M148.1,125c4,1.9,7,4.6,9.1,7.9c2.1,3.4,3.1,7.2,3.1,11.4c0,5.2-1.3,9.4-4,12.6c-2.7,3.2-6,5.2-10,6v0.6
			c10.4,3.3,15.5,9.8,15.5,19.4c0,4.6-1.1,8.7-3.2,12.3c-2.1,3.6-5.2,6.4-9.2,8.4c-4,2-8.9,3-14.6,3c-9.2,0-16.5-2.3-21.9-6.8
			c-5.4-4.5-8.3-11.4-8.8-20.7h18.9c0.2,3.6,1.1,6.3,2.9,8.4s4.5,3.1,7.9,3.1c2.8,0,5-0.8,6.6-2.5c1.6-1.7,2.4-3.8,2.4-6.5
			c0-6.6-4.8-9.9-14.3-9.9h-3.6v-15.8h3.5c8.5,0.2,12.8-2.9,12.8-9.2c0-2.7-0.7-4.8-2.2-6.3c-1.5-1.5-3.5-2.2-5.9-2.2
			c-2.7,0-4.9,0.9-6.5,2.8c-1.6,1.9-2.5,4.3-2.7,7.4h-18.9c0.4-8.5,3-15,7.9-19.5c4.9-4.5,11.8-6.8,20.6-6.8
			C139.3,122.1,144.1,123,148.1,125z"/>
	</g>
	<g display="inline">
		<path fill="#FFFFFF" d="M165.6,57.8c-1-0.3-2.6-0.5-5-0.5c-3.6,0-6.6,0.4-8.8,1.1s-4.1,1.9-5.5,3.4c1.6-0.6,3.9-1,6.8-1.3
			c2.9-0.3,6.1-0.5,9.5-0.5c6.2,0,10.8,0.4,13.5,1.3c2.8,0.8,3.4,2,1.8,3.6c-1,1-2.8,1.9-5.3,2.6c-2.6,0.8-5.8,1.4-9.8,1.8
			c-3.9,0.4-8.4,0.6-13.3,0.6c-9.7,0-15.7-0.7-18-2c-2.4-1.3-2.4-3.2,0-5.5c2.7-2.7,6.7-4.7,11.9-6c5.2-1.3,12.3-1.9,21.1-1.9
			c7,0,11.9,0.4,14.6,1.3c2.7,0.9,3.7,2,2.8,3.3h-15C167,58.6,166.6,58.1,165.6,57.8z M145.4,66.3c1.2,0.4,3.4,0.6,6.5,0.6
			c2.8,0,5.2-0.2,7.1-0.5c1.9-0.3,3.2-0.9,3.9-1.5c0.7-0.7,0.4-1.2-0.9-1.5c-1.3-0.4-3.3-0.5-6.1-0.5c-2.7,0-5.1,0.2-7.3,0.5
			c-2.1,0.3-3.5,0.8-4.2,1.4C143.9,65.4,144.2,65.9,145.4,66.3z"/>
	</g>
	<g display="inline">
		<path fill="#FFFFFF" d="M242,136.9c0-4.7-0.8-6.5-2.3-5.5c-0.9,0.6-1.5,1.8-1.9,3.6c-0.4,1.9-0.6,4.5-0.7,7.9l-5.4,3.6
			c0.1-7.4,1-13.5,2.5-18.2c1.5-4.7,3.5-7.9,5.9-9.4c2.5-1.6,4.3-1.2,5.6,1.2c1.3,2.5,1.9,6.3,1.9,11.6c0,5.9-0.8,12.1-2.5,18.9
			c-1.7,6.7-3.7,12.8-6.1,18.3l9-6v11.8l-16.2,10.8v-10.9C238.6,157.1,242,144.5,242,136.9z"/>
	</g>
</g>
<g id="face_2">
	<g>
		<path fill="#FFFFFF" d="M139.4,149.4c0-6.2-2.7-9.3-8-9.3c-3,0-5.2,1.1-6.6,3.2c-1.4,2.1-2.2,5.4-2.3,9.9h-18.9
			c0.5-9.7,3.4-17.1,8.8-22c5.4-4.9,12.3-7.4,20.6-7.4c8.7,0,15.2,2.2,19.7,6.6c4.4,4.4,6.6,10.1,6.6,17.1c0,7.8-3,15.4-9,22.8
			c-6,7.4-13.1,13.7-21.4,18.9h31.6v15.6h-57.1v-14.5C127.4,173.1,139.4,159.5,139.4,149.4z"/>
	</g>
	<g>
		<path fill="#FFFFFF" d="M165.6,57.8c-1-0.3-2.6-0.5-5-0.5c-3.6,0-6.6,0.4-8.8,1.1s-4.1,1.9-5.5,3.4c1.6-0.6,3.9-1,6.8-1.3
			c2.9-0.3,6.1-0.5,9.5-0.5c6.2,0,10.8,0.4,13.5,1.3c2.8,0.8,3.4,2,1.8,3.6c-1,1-2.8,1.9-5.3,2.6c-2.6,0.8-5.8,1.4-9.8,1.8
			c-3.9,0.4-8.4,0.6-13.3,0.6c-9.7,0-15.7-0.7-18-2c-2.4-1.3-2.4-3.2,0-5.5c2.7-2.7,6.7-4.7,11.9-6c5.2-1.3,12.3-1.9,21.1-1.9
			c7,0,11.9,0.4,14.6,1.3c2.7,0.9,3.7,2,2.8,3.3h-15C167,58.6,166.6,58.1,165.6,57.8z M145.4,66.3c1.2,0.4,3.4,0.6,6.5,0.6
			c2.8,0,5.2-0.2,7.1-0.5c1.9-0.3,3.2-0.9,3.9-1.5c0.7-0.7,0.4-1.2-0.9-1.5c-1.3-0.4-3.3-0.5-6.1-0.5c-2.7,0-5.1,0.2-7.3,0.5
			c-2.1,0.3-3.5,0.8-4.2,1.4C143.9,65.4,144.2,65.9,145.4,66.3z"/>
	</g>
	<g>
		<path fill="#FFFFFF" d="M230.1,174.8v-12.2l10-44.7l5.7-3.9v37.3l2.6-1.8v12.7l-2.6,1.8V175l-5.4,3.7v-11.1L230.1,174.8z
			 M240.9,134.2l-5.4,24.1l5.4-3.7V134.2z"/>
	</g>
</g>
<g id="face_1" display="none">
	<g display="inline">
		<path fill="#FFFFFF" d="M100.7,143.7v-18.1h32.4v80.1h-20.4v-62H100.7z"/>
	</g>
	<g display="inline">
		<path fill="#FFFFFF" d="M173.7,55c3,0.4,5,0.8,6.1,1.5c1.1,0.6,1.3,1.3,0.5,2.1c-1,1-2.8,1.7-5.6,2.3c-2.8,0.6-5.9,0.9-9.4,1.1
			l-0.1,0.1c7.9,0.6,11,1.8,9.3,3.5c-0.8,0.8-2.5,1.6-4.9,2.3c-2.4,0.7-5.5,1.2-9.2,1.5c-3.7,0.4-7.9,0.5-12.6,0.5
			c-7.6,0-13.2-0.4-16.9-1.2s-4.8-2.1-3.5-3.8h15.6c-0.5,0.7-0.2,1.2,0.9,1.5s3.1,0.6,6,0.6c2.3,0,4.3-0.2,5.9-0.5
			c1.6-0.3,2.7-0.7,3.2-1.2c1.2-1.2-2.1-1.8-10-1.8h-3l2.9-2.9h2.9c7,0,11.1-0.5,12.3-1.7c0.5-0.5,0.3-0.9-0.7-1.2
			c-0.9-0.3-2.5-0.4-4.5-0.4c-2.2,0-4.2,0.2-5.8,0.5c-1.7,0.3-2.9,0.8-3.6,1.4h-15.6c1.9-1.5,5.2-2.7,10.1-3.6
			c4.9-0.8,11-1.2,18.3-1.2C166.9,54.5,170.7,54.7,173.7,55z"/>
	</g>
	<g display="inline">
		<path fill="#FFFFFF" d="M242,136.9c0-4.7-0.8-6.5-2.3-5.5c-0.9,0.6-1.5,1.8-1.9,3.6c-0.4,1.9-0.6,4.5-0.7,7.9l-5.4,3.6
			c0.1-7.4,1-13.5,2.5-18.2c1.5-4.7,3.5-7.9,5.9-9.4c2.5-1.6,4.3-1.2,5.6,1.2c1.3,2.5,1.9,6.3,1.9,11.6c0,5.9-0.8,12.1-2.5,18.9
			c-1.7,6.7-3.7,12.8-6.1,18.3l9-6v11.8l-16.2,10.8v-10.9C238.6,157.1,242,144.5,242,136.9z"/>
	</g>
</g>
</svg>
