<?xml version="1.0" encoding="utf-8"?>
<!-- Generator: Adobe Illustrator 17.1.0, SVG Export Plug-In . SVG Version: 6.00 Build 0)  -->
<!DOCTYPE svg PUBLIC "-//W3C//DTD SVG 1.1//EN" "http://www.w3.org/Graphics/SVG/1.1/DTD/svg11.dtd">
<svg version="1.1" xmlns="http://www.w3.org/2000/svg" xmlns:xlink="http://www.w3.org/1999/xlink" x="0px" y="0px"
	 viewBox="0 0 600 600" enable-background="new 0 0 600 600" xml:space="preserve">
<g id="Layer_1">
	<g>
		<path fill="#FF0000" d="M157.6,402.9L295.9,553c2,2.1,6.8,2.1,8.8,0L443,402.9c2-2.1-0.5-4.8-4.4-4.8H162
			C158.1,398.1,155.7,400.8,157.6,402.9z"/>
		<path fill="#FF0000" d="M159,381.7l135.1-228c2.5-4.2-1-9.4-5.8-8.8L86.2,171.6c-3.6,0.5-5.9,4.2-4.8,7.6l67,201.3
			C150.1,385.3,156.5,386,159,381.7z"/>
		<path fill="#FF0000" d="M300.3,47.5v94.1c0,1-0.8,1.9-1.8,2L89.4,171.2c-2.2,0.3-3.2-2.7-1.3-3.8L297.2,45.7
			C298.6,44.9,300.3,45.9,300.3,47.5z"/>
		<path fill="#FF0000" d="M300.3,47.5v94.1c0,1,0.8,1.9,1.8,2l209.1,27.6c2.2,0.3,3.2-2.7,1.3-3.8L303.4,45.7
			C302,44.9,300.3,45.9,300.3,47.5z"/>
		<path fill="#FF0000" d="M151.2,398.6l-68.4,28.1c-0.9,0.4-2-0.3-2-1.3l-1.6-243.6c0-1.6,2.3-2,2.8-0.4L152,396.9
			C152.2,397.6,151.9,398.3,151.2,398.6z"/>
		<path fill="#FF0000" d="M151.2,398.6l-67,27.5c-1.4,0.6-1.5,2.5-0.2,3.2l205.5,123.1c1.8,1.1,3.7-1.2,2.3-2.8L153.3,399.1
			C152.8,398.5,151.9,398.3,151.2,398.6z"/>
		<path fill="#FF0000" d="M448.5,398.6l67,27.5c1.4,0.6,1.5,2.5,0.2,3.2L310.3,552.5c-1.8,1.1-3.7-1.2-2.3-2.8l138.5-150.6
			C447,398.5,447.8,398.3,448.5,398.6z"/>
		<path fill="#FF0000" d="M448.8,398.6l68.4,28.1c0.9,0.4,2-0.3,2-1.3l1.6-243.6c0-1.6-2.3-2-2.8-0.4L448,396.9
			C447.8,397.6,448.1,398.3,448.8,398.6z"/>
		<path fill="#FF0000" d="M442.3,388.3l-137-236.1c-2.1-3.6,0.9-8.1,5-7.5l204.8,27c3.1,0.4,5.1,3.6,4.1,6.6l-67.8,209
			C450.2,391.5,444.5,392.1,442.3,388.3z"/>
		<path fill="#FF0000" d="M157.6,390.5L295.9,151c2-3.4,6.8-3.4,8.8,0L443,390.5c2,3.4-0.5,7.6-4.4,7.6H162
			C158.1,398.1,155.7,393.9,157.6,390.5z"/>
	</g>
	<g>
		<path fill="#FFA500" d="M157.6,402.9L295.9,553c2,2.1,6.8,2.1,8.8,0L443,402.9c2-2.1-0.5-4.8-4.4-4.8H162
			C158.1,398.1,155.7,400.8,157.6,402.9z"/>
		<path fill="#FFA500" d="M159,381.7l135.1-228c2.5-4.2-1-9.4-5.8-8.8L86.2,171.6c-3.6,0.5-5.9,4.2-4.8,7.6l67,201.3
			C150.1,385.3,156.5,386,159,381.7z"/>
		<path fill="#FFA500" d="M300.3,47.5v94.1c0,1-0.8,1.9-1.8,2L89.4,171.2c-2.2,0.3-3.2-2.7-1.3-3.8L297.2,45.7
			C298.6,44.9,300.3,45.9,300.3,47.5z"/>
		<path fill="#FFA500" d="M300.3,47.5v94.1c0,1,0.8,1.9,1.8,2l209.1,27.6c2.2,0.3,3.2-2.7,1.3-3.8L303.4,45.7
			C302,44.9,300.3,45.9,300.3,47.5z"/>
		<path fill="#FFA500" d="M151.2,398.6l-68.4,28.1c-0.9,0.4-2-0.3-2-1.3l-1.6-243.6c0-1.6,2.3-2,2.8-0.4L152,396.9
			C152.2,397.6,151.9,398.3,151.2,398.6z"/>
		<path fill="#FFA500" d="M151.2,398.6l-67,27.5c-1.4,0.6-1.5,2.5-0.2,3.2l205.5,123.1c1.8,1.1,3.7-1.2,2.3-2.8L153.3,399.1
			C152.8,398.5,151.9,398.3,151.2,398.6z"/>
		<path fill="#FFA500" d="M448.5,398.6l67,27.5c1.4,0.6,1.5,2.5,0.2,3.2L310.3,552.5c-1.8,1.1-3.7-1.2-2.3-2.8l138.5-150.6
			C447,398.5,447.8,398.3,448.5,398.6z"/>
		<path fill="#FFA500" d="M448.8,398.6l68.4,28.1c0.9,0.4,2-0.3,2-1.3l1.6-243.6c0-1.6-2.3-2-2.8-0.4L448,396.9
			C447.8,397.6,448.1,398.3,448.8,398.6z"/>
		<path fill="#FFA500" d="M442.3,388.3l-137-236.1c-2.1-3.6,0.9-8.1,5-7.5l204.8,27c3.1,0.4,5.1,3.6,4.1,6.6l-67.8,209
			C450.2,391.5,444.5,392.1,442.3,388.3z"/>
		<path fill="#FFA500" d="M157.6,390.5L295.9,151c2-3.4,6.8-3.4,8.8,0L443,390.5c2,3.4-0.5,7.6-4.4,7.6H162
			C158.1,398.1,155.7,393.9,157.6,390.5z"/>
	</g>
	<g>
		<path fill="#FFFF00" d="M157.6,402.9L295.9,553c2,2.1,6.8,2.1,8.8,0L443,402.9c2-2.1-0.5-4.8-4.4-4.8H162
			C158.1,398.1,155.7,400.8,157.6,402.9z"/>
		<path fill="#FFFF00" d="M159,381.7l135.1-228c2.5-4.2-1-9.4-5.8-8.8L86.2,171.6c-3.6,0.5-5.9,4.2-4.8,7.6l67,201.3
			C150.1,385.3,156.5,386,159,381.7z"/>
		<path fill="#FFFF00" d="M300.3,47.5v94.1c0,1-0.8,1.9-1.8,2L89.4,171.2c-2.2,0.3-3.2-2.7-1.3-3.8L297.2,45.7
			C298.6,44.9,300.3,45.9,300.3,47.5z"/>
		<path fill="#FFFF00" d="M300.3,47.5v94.1c0,1,0.8,1.9,1.8,2l209.1,27.6c2.2,0.3,3.2-2.7,1.3-3.8L303.4,45.7
			C302,44.9,300.3,45.9,300.3,47.5z"/>
		<path fill="#FFFF00" d="M151.2,398.6l-68.4,28.1c-0.9,0.4-2-0.3-2-1.3l-1.6-243.6c0-1.6,2.3-2,2.8-0.4L152,396.9
			C152.2,397.6,151.9,398.3,151.2,398.6z"/>
		<path fill="#FFFF00" d="M151.2,398.6l-67,27.5c-1.4,0.6-1.5,2.5-0.2,3.2l205.5,123.1c1.8,1.1,3.7-1.2,2.3-2.8L153.3,399.1
			C152.8,398.5,151.9,398.3,151.2,398.6z"/>
		<path fill="#FFFF00" d="M448.5,398.6l67,27.5c1.4,0.6,1.5,2.5,0.2,3.2L310.3,552.5c-1.8,1.1-3.7-1.2-2.3-2.8l138.5-150.6
			C447,398.5,447.8,398.3,448.5,398.6z"/>
		<path fill="#FFFF00" d="M448.8,398.6l68.4,28.1c0.9,0.4,2-0.3,2-1.3l1.6-243.6c0-1.6-2.3-2-2.8-0.4L448,396.9
			C447.8,397.6,448.1,398.3,448.8,398.6z"/>
		<path fill="#FFFF00" d="M442.3,388.3l-137-236.1c-2.1-3.6,0.9-8.1,5-7.5l204.8,27c3.1,0.4,5.1,3.6,4.1,6.6l-67.8,209
			C450.2,391.5,444.5,392.1,442.3,388.3z"/>
		<path fill="#FFFF00" d="M157.6,390.5L295.9,151c2-3.4,6.8-3.4,8.8,0L443,390.5c2,3.4-0.5,7.6-4.4,7.6H162
			C158.1,398.1,155.7,393.9,157.6,390.5z"/>
	</g>
	<g>
		<path fill="#00FF00" d="M157.6,402.9L295.9,553c2,2.1,6.8,2.1,8.8,0L443,402.9c2-2.1-0.5-4.8-4.4-4.8H162
			C158.1,398.1,155.7,400.8,157.6,402.9z"/>
		<path fill="#00FF00" d="M159,381.7l135.1-228c2.5-4.2-1-9.4-5.8-8.8L86.2,171.6c-3.6,0.5-5.9,4.2-4.8,7.6l67,201.3
			C150.1,385.3,156.5,386,159,381.7z"/>
		<path fill="#00FF00" d="M300.3,47.5v94.1c0,1-0.8,1.9-1.8,2L89.4,171.2c-2.2,0.3-3.2-2.7-1.3-3.8L297.2,45.7
			C298.6,44.9,300.3,45.9,300.3,47.5z"/>
		<path fill="#00FF00" d="M300.3,47.5v94.1c0,1,0.8,1.9,1.8,2l209.1,27.6c2.2,0.3,3.2-2.7,1.3-3.8L303.4,45.7
			C302,44.9,300.3,45.9,300.3,47.5z"/>
		<path fill="#00FF00" d="M151.2,398.6l-68.4,28.1c-0.9,0.4-2-0.3-2-1.3l-1.6-243.6c0-1.6,2.3-2,2.8-0.4L152,396.9
			C152.2,397.6,151.9,398.3,151.2,398.6z"/>
		<path fill="#00FF00" d="M151.2,398.6l-67,27.5c-1.4,0.6-1.5,2.5-0.2,3.2l205.5,123.1c1.8,1.1,3.7-1.2,2.3-2.8L153.3,399.1
			C152.8,398.5,151.9,398.3,151.2,398.6z"/>
		<path fill="#00FF00" d="M448.5,398.6l67,27.5c1.4,0.6,1.5,2.5,0.2,3.2L310.3,552.5c-1.8,1.1-3.7-1.2-2.3-2.8l138.5-150.6
			C447,398.5,447.8,398.3,448.5,398.6z"/>
		<path fill="#00FF00" d="M448.8,398.6l68.4,28.1c0.9,0.4,2-0.3,2-1.3l1.6-243.6c0-1.6-2.3-2-2.8-0.4L448,396.9
			C447.8,397.6,448.1,398.3,448.8,398.6z"/>
		<path fill="#00FF00" d="M442.3,388.3l-137-236.1c-2.1-3.6,0.9-8.1,5-7.5l204.8,27c3.1,0.4,5.1,3.6,4.1,6.6l-67.8,209
			C450.2,391.5,444.5,392.1,442.3,388.3z"/>
		<path fill="#00FF00" d="M157.6,390.5L295.9,151c2-3.4,6.8-3.4,8.8,0L443,390.5c2,3.4-0.5,7.6-4.4,7.6H162
			C158.1,398.1,155.7,393.9,157.6,390.5z"/>
	</g>
	<g display="none">
		<path display="inline" fill="#0000FF" d="M157.6,402.9L295.9,553c2,2.1,6.8,2.1,8.8,0L443,402.9c2-2.1-0.5-4.8-4.4-4.8H162
			C158.1,398.1,155.7,400.8,157.6,402.9z"/>
		<path display="inline" fill="#0000FF" d="M159,381.7l135.1-228c2.5-4.2-1-9.4-5.8-8.8L86.2,171.6c-3.6,0.5-5.9,4.2-4.8,7.6
			l67,201.3C150.1,385.3,156.5,386,159,381.7z"/>
		<path display="inline" fill="#0000FF" d="M300.3,47.5v94.1c0,1-0.8,1.9-1.8,2L89.4,171.2c-2.2,0.3-3.2-2.7-1.3-3.8L297.2,45.7
			C298.6,44.9,300.3,45.9,300.3,47.5z"/>
		<path display="inline" fill="#0000FF" d="M300.3,47.5v94.1c0,1,0.8,1.9,1.8,2l209.1,27.6c2.2,0.3,3.2-2.7,1.3-3.8L303.4,45.7
			C302,44.9,300.3,45.9,300.3,47.5z"/>
		<path display="inline" fill="#0000FF" d="M151.2,398.6l-68.4,28.1c-0.9,0.4-2-0.3-2-1.3l-1.6-243.6c0-1.6,2.3-2,2.8-0.4L152,396.9
			C152.2,397.6,151.9,398.3,151.2,398.6z"/>
		<path display="inline" fill="#0000FF" d="M151.2,398.6l-67,27.5c-1.4,0.6-1.5,2.5-0.2,3.2l205.5,123.1c1.8,1.1,3.7-1.2,2.3-2.8
			L153.3,399.1C152.8,398.5,151.9,398.3,151.2,398.6z"/>
		<path display="inline" fill="#0000FF" d="M448.5,398.6l67,27.5c1.4,0.6,1.5,2.5,0.2,3.2L310.3,552.5c-1.8,1.1-3.7-1.2-2.3-2.8
			l138.5-150.6C447,398.5,447.8,398.3,448.5,398.6z"/>
		<path display="inline" fill="#0000FF" d="M448.8,398.6l68.4,28.1c0.9,0.4,2-0.3,2-1.3l1.6-243.6c0-1.6-2.3-2-2.8-0.4L448,396.9
			C447.8,397.6,448.1,398.3,448.8,398.6z"/>
		<path display="inline" fill="#0000FF" d="M442.3,388.3l-137-236.1c-2.1-3.6,0.9-8.1,5-7.5l204.8,27c3.1,0.4,5.1,3.6,4.1,6.6
			l-67.8,209C450.2,391.5,444.5,392.1,442.3,388.3z"/>
		<path display="inline" fill="#0000FF" d="M157.6,390.5L295.9,151c2-3.4,6.8-3.4,8.8,0L443,390.5c2,3.4-0.5,7.6-4.4,7.6H162
			C158.1,398.1,155.7,393.9,157.6,390.5z"/>
	</g>
	<g display="none">
		<path display="inline" fill="#4B0082" d="M157.6,402.9L295.9,553c2,2.1,6.8,2.1,8.8,0L443,402.9c2-2.1-0.5-4.8-4.4-4.8H162
			C158.1,398.1,155.7,400.8,157.6,402.9z"/>
		<path display="inline" fill="#4B0082" d="M159,381.7l135.1-228c2.5-4.2-1-9.4-5.8-8.8L86.2,171.6c-3.6,0.5-5.9,4.2-4.8,7.6
			l67,201.3C150.1,385.3,156.5,386,159,381.7z"/>
		<path display="inline" fill="#4B0082" d="M300.3,47.5v94.1c0,1-0.8,1.9-1.8,2L89.4,171.2c-2.2,0.3-3.2-2.7-1.3-3.8L297.2,45.7
			C298.6,44.9,300.3,45.9,300.3,47.5z"/>
		<path display="inline" fill="#4B0082" d="M300.3,47.5v94.1c0,1,0.8,1.9,1.8,2l209.1,27.6c2.2,0.3,3.2-2.7,1.3-3.8L303.4,45.7
			C302,44.9,300.3,45.9,300.3,47.5z"/>
		<path display="inline" fill="#4B0082" d="M151.2,398.6l-68.4,28.1c-0.9,0.4-2-0.3-2-1.3l-1.6-243.6c0-1.6,2.3-2,2.8-0.4L152,396.9
			C152.2,397.6,151.9,398.3,151.2,398.6z"/>
		<path display="inline" fill="#4B0082" d="M151.2,398.6l-67,27.5c-1.4,0.6-1.5,2.5-0.2,3.2l205.5,123.1c1.8,1.1,3.7-1.2,2.3-2.8
			L153.3,399.1C152.8,398.5,151.9,398.3,151.2,398.6z"/>
		<path display="inline" fill="#4B0082" d="M448.5,398.6l67,27.5c1.4,0.6,1.5,2.5,0.2,3.2L310.3,552.5c-1.8,1.1-3.7-1.2-2.3-2.8
			l138.5-150.6C447,398.5,447.8,398.3,448.5,398.6z"/>
		<path display="inline" fill="#4B0082" d="M448.8,398.6l68.4,28.1c0.9,0.4,2-0.3,2-1.3l1.6-243.6c0-1.6-2.3-2-2.8-0.4L448,396.9
			C447.8,397.6,448.1,398.3,448.8,398.6z"/>
		<path display="inline" fill="#4B0082" d="M442.3,388.3l-137-236.1c-2.1-3.6,0.9-8.1,5-7.5l204.8,27c3.1,0.4,5.1,3.6,4.1,6.6
			l-67.8,209C450.2,391.5,444.5,392.1,442.3,388.3z"/>
		<path display="inline" fill="#4B0082" d="M157.6,390.5L295.9,151c2-3.4,6.8-3.4,8.8,0L443,390.5c2,3.4-0.5,7.6-4.4,7.6H162
			C158.1,398.1,155.7,393.9,157.6,390.5z"/>
	</g>
	<g display="none">
		<path display="inline" fill="#800080" d="M157.6,402.9L295.9,553c2,2.1,6.8,2.1,8.8,0L443,402.9c2-2.1-0.5-4.8-4.4-4.8H162
			C158.1,398.1,155.7,400.8,157.6,402.9z"/>
		<path display="inline" fill="#800080" d="M159,381.7l135.1-228c2.5-4.2-1-9.4-5.8-8.8L86.2,171.6c-3.6,0.5-5.9,4.2-4.8,7.6
			l67,201.3C150.1,385.3,156.5,386,159,381.7z"/>
		<path display="inline" fill="#800080" d="M300.3,47.5v94.1c0,1-0.8,1.9-1.8,2L89.4,171.2c-2.2,0.3-3.2-2.7-1.3-3.8L297.2,45.7
			C298.6,44.9,300.3,45.9,300.3,47.5z"/>
		<path display="inline" fill="#800080" d="M300.3,47.5v94.1c0,1,0.8,1.9,1.8,2l209.1,27.6c2.2,0.3,3.2-2.7,1.3-3.8L303.4,45.7
			C302,44.9,300.3,45.9,300.3,47.5z"/>
		<path display="inline" fill="#800080" d="M151.2,398.6l-68.4,28.1c-0.9,0.4-2-0.3-2-1.3l-1.6-243.6c0-1.6,2.3-2,2.8-0.4L152,396.9
			C152.2,397.6,151.9,398.3,151.2,398.6z"/>
		<path display="inline" fill="#800080" d="M151.2,398.6l-67,27.5c-1.4,0.6-1.5,2.5-0.2,3.2l205.5,123.1c1.8,1.1,3.7-1.2,2.3-2.8
			L153.3,399.1C152.8,398.5,151.9,398.3,151.2,398.6z"/>
		<path display="inline" fill="#800080" d="M448.5,398.6l67,27.5c1.4,0.6,1.5,2.5,0.2,3.2L310.3,552.5c-1.8,1.1-3.7-1.2-2.3-2.8
			l138.5-150.6C447,398.5,447.8,398.3,448.5,398.6z"/>
		<path display="inline" fill="#800080" d="M448.8,398.6l68.4,28.1c0.9,0.4,2-0.3,2-1.3l1.6-243.6c0-1.6-2.3-2-2.8-0.4L448,396.9
			C447.8,397.6,448.1,398.3,448.8,398.6z"/>
		<path display="inline" fill="#800080" d="M442.3,388.3l-137-236.1c-2.1-3.6,0.9-8.1,5-7.5l204.8,27c3.1,0.4,5.1,3.6,4.1,6.6
			l-67.8,209C450.2,391.5,444.5,392.1,442.3,388.3z"/>
		<path display="inline" fill="#800080" d="M157.6,390.5L295.9,151c2-3.4,6.8-3.4,8.8,0L443,390.5c2,3.4-0.5,7.6-4.4,7.6H162
			C158.1,398.1,155.7,393.9,157.6,390.5z"/>
	</g>
	<g>
		<path fill="none" stroke="#FFFFFF" stroke-width="12" stroke-miterlimit="10" d="M157.6,402.9L295.9,553c2,2.1,6.8,2.1,8.8,0
			L443,402.9c2-2.1-0.5-4.8-4.4-4.8H162C158.1,398.1,155.7,400.8,157.6,402.9z"/>
		<path fill="none" stroke="#FFFFFF" stroke-width="12" stroke-miterlimit="10" d="M159,381.7l135.1-228c2.5-4.2-1-9.4-5.8-8.8
			L86.2,171.6c-3.6,0.5-5.9,4.2-4.8,7.6l67,201.3C150.1,385.3,156.5,386,159,381.7z"/>
		<path fill="none" stroke="#FFFFFF" stroke-width="12" stroke-miterlimit="10" d="M300.3,47.5v94.1c0,1-0.8,1.9-1.8,2L89.4,171.2
			c-2.2,0.3-3.2-2.7-1.3-3.8L297.2,45.7C298.6,44.9,300.3,45.9,300.3,47.5z"/>
		<path fill="none" stroke="#FFFFFF" stroke-width="12" stroke-miterlimit="10" d="M300.3,47.5v94.1c0,1,0.8,1.9,1.8,2l209.1,27.6
			c2.2,0.3,3.2-2.7,1.3-3.8L303.4,45.7C302,44.9,300.3,45.9,300.3,47.5z"/>
		<path fill="none" stroke="#FFFFFF" stroke-width="12" stroke-miterlimit="10" d="M151.2,398.6l-68.4,28.1c-0.9,0.4-2-0.3-2-1.3
			l-1.6-243.6c0-1.6,2.3-2,2.8-0.4L152,396.9C152.2,397.6,151.9,398.3,151.2,398.6z"/>
		<path fill="none" stroke="#FFFFFF" stroke-width="12" stroke-miterlimit="10" d="M151.2,398.6l-67,27.5c-1.4,0.6-1.5,2.5-0.2,3.2
			l205.5,123.1c1.8,1.1,3.7-1.2,2.3-2.8L153.3,399.1C152.8,398.5,151.9,398.3,151.2,398.6z"/>
		<path fill="none" stroke="#FFFFFF" stroke-width="12" stroke-miterlimit="10" d="M448.5,398.6l67,27.5c1.4,0.6,1.5,2.5,0.2,3.2
			L310.3,552.5c-1.8,1.1-3.7-1.2-2.3-2.8l138.5-150.6C447,398.5,447.8,398.3,448.5,398.6z"/>
		<path fill="none" stroke="#FFFFFF" stroke-width="12" stroke-miterlimit="10" d="M448.8,398.6l68.4,28.1c0.9,0.4,2-0.3,2-1.3
			l1.6-243.6c0-1.6-2.3-2-2.8-0.4L448,396.9C447.8,397.6,448.1,398.3,448.8,398.6z"/>
		<path fill="none" stroke="#FFFFFF" stroke-width="12" stroke-miterlimit="10" d="M442.3,388.3l-137-236.1c-2.1-3.6,0.9-8.1,5-7.5
			l204.8,27c3.1,0.4,5.1,3.6,4.1,6.6l-67.8,209C450.2,391.5,444.5,392.1,442.3,388.3z"/>
		<path fill="none" stroke="#FFFFFF" stroke-width="12" stroke-miterlimit="10" d="M157.6,390.5L295.9,151c2-3.4,6.8-3.4,8.8,0
			L443,390.5c2,3.4-0.5,7.6-4.4,7.6H162C158.1,398.1,155.7,393.9,157.6,390.5z"/>
	</g>
</g>
<g id="face_20" display="none">
	
		<text transform="matrix(1 0 0 1 238.2996 349.793)" display="inline" fill="#FFFFFF" font-family="'Poppins-Bold'" font-size="107.0061">20</text>
	
		<text transform="matrix(0.8975 -0.1261 -0.2924 0.9563 207.3073 140.5882)" display="inline" fill="#FFFFFF" font-family="'Poppins-ExtraBold'" font-size="62.5761">10</text>
	
		<text transform="matrix(0.9586 0.1347 0.1137 0.9935 337.7439 131.3612)" display="inline" fill="#FFFFFF" font-family="'Poppins-ExtraBold'" font-size="58.587">12</text>
	
		<text transform="matrix(-0.7215 -0.8053 0.9796 -0.2008 196.3033 458.8298)" display="inline" fill="#FFFFFF" font-family="'Poppins-ExtraBold'" font-size="52.4547">6</text>
	
		<text transform="matrix(-0.347 -1.1018 0.8202 -0.5721 129.2346 356.9658)" display="inline" fill="#FFFFFF" font-family="'Poppins-ExtraBold'" font-size="49.0957">16</text>
	
		<text transform="matrix(-0.3367 1.0274 -0.6637 -0.748 489.2363 303.022)" display="inline" fill="#FFFFFF" font-family="'Poppins-ExtraBold'" font-size="52.4549">18</text>
	
		<text transform="matrix(-0.7807 0.8514 -0.9056 -0.4242 429.5732 430.1989)" display="inline" fill="#FFFFFF" font-family="'Poppins-ExtraBold'" font-size="49.096">4</text>
	
		<text transform="matrix(0.5227 -0.9053 0.866 0.5 186.8903 271.2412)" display="inline" fill="#FFFFFF" font-family="'Poppins-Bold'" font-size="93.8576">8</text>
	
		<text transform="matrix(0.5227 0.9053 -0.866 0.5 392.9979 219.7697)" display="inline" fill="#FFFFFF" font-family="'Poppins-Bold'" font-size="93.8576">2</text>
	
		<text transform="matrix(-1.1089 0 0 -1 343.4988 426.8389)" display="inline" fill="#FFFFFF" font-family="'Poppins-Bold'" font-size="75.8196">14</text>
</g>
<g id="face_19" display="none">
	
		<text transform="matrix(1 0 0 1 251.8362 349.793)" display="inline" fill="#FFFFFF" font-family="'Poppins-Bold'" font-size="107.0061">19</text>
	
		<text transform="matrix(0.8975 -0.1261 -0.2924 0.9563 207.9252 140.5014)" display="inline" fill="#FFFFFF" font-family="'Poppins-ExtraBold'" font-size="62.5761">16</text>
	
		<text transform="matrix(0.9586 0.1347 0.1137 0.9935 346.5049 132.5925)" display="inline" fill="#FFFFFF" font-family="'Poppins-ExtraBold'" font-size="58.587">6</text>
	
		<text transform="matrix(-0.7215 -0.8053 0.9796 -0.2008 194.033 456.2957)" display="inline" fill="#FFFFFF" font-family="'Poppins-ExtraBold'" font-size="52.4547">7</text>
	
		<text transform="matrix(-0.347 -1.1018 0.8202 -0.5721 128.2125 353.7206)" display="inline" fill="#FFFFFF" font-family="'Poppins-ExtraBold'" font-size="49.0957">17</text>
	
		<text transform="matrix(-0.3367 1.0274 -0.6637 -0.748 486.8171 310.405)" display="inline" fill="#FFFFFF" font-family="'Poppins-ExtraBold'" font-size="52.4549">11</text>
	
		<text transform="matrix(-0.7807 0.8514 -0.9056 -0.4242 435.3033 423.9497)" display="inline" fill="#FFFFFF" font-family="'Poppins-ExtraBold'" font-size="49.096">13</text>
	
		<text transform="matrix(0.5227 -0.9053 0.866 0.5 187.8713 269.5421)" display="inline" fill="#FFFFFF" font-family="'Poppins-Bold'" font-size="93.8576">3</text>
	
		<text transform="matrix(0.5227 0.9053 -0.866 0.5 392.1395 218.2829)" display="inline" fill="#FFFFFF" font-family="'Poppins-Bold'" font-size="93.8576">9</text>
	
		<text transform="matrix(-1.1089 0 0 -1 315.2488 426.8389)" display="inline" fill="#FFFFFF" font-family="'Poppins-Bold'" font-size="75.8196">1</text>
</g>
<g id="face_18" display="none">
	
		<text transform="matrix(1 0 0 1 249.4827 349.793)" display="inline" fill="#FFFFFF" font-family="'Poppins-Bold'" font-size="107.0061">18</text>
	
		<text transform="matrix(0.8975 -0.1261 -0.2924 0.9563 208.5152 140.4185)" display="inline" fill="#FFFFFF" font-family="'Poppins-ExtraBold'" font-size="62.5761">13</text>
	
		<text transform="matrix(0.9586 0.1347 0.1137 0.9935 343.0511 132.1071)" display="inline" fill="#FFFFFF" font-family="'Poppins-ExtraBold'" font-size="58.587">11</text>
	
		<text transform="matrix(-0.7215 -0.8053 0.9796 -0.2008 202.2072 465.4196)" display="inline" fill="#FFFFFF" font-family="'Poppins-ExtraBold'" font-size="52.4547">12</text>
	
		<text transform="matrix(-0.347 -1.1018 0.8202 -0.5721 129.4135 357.534)" display="inline" fill="#FFFFFF" font-family="'Poppins-ExtraBold'" font-size="49.0957">15</text>
	
		<text transform="matrix(-0.3367 1.0274 -0.6637 -0.748 489.563 302.0249)" display="inline" fill="#FFFFFF" font-family="'Poppins-ExtraBold'" font-size="52.4549">14</text>
	
		<text transform="matrix(-0.7807 0.8514 -0.9056 -0.4242 439.7496 419.1005)" display="inline" fill="#FFFFFF" font-family="'Poppins-ExtraBold'" font-size="49.096">20</text>
	
		<text transform="matrix(0.5227 -0.9053 0.866 0.5 186.9394 271.1562)" display="inline" fill="#FFFFFF" font-family="'Poppins-Bold'" font-size="93.8576">5</text>
	
		<text transform="matrix(0.5227 0.9053 -0.866 0.5 390.3978 215.2662)" display="inline" fill="#FFFFFF" font-family="'Poppins-Bold'" font-size="93.8576">4</text>
	
		<text transform="matrix(-1.1089 0 0 -1 324.0769 426.8389)" display="inline" fill="#FFFFFF" font-family="'Poppins-Bold'" font-size="75.8196">2</text>
</g>
<g id="face_17" display="none">
	
		<text transform="matrix(1 0 0 1 256.7054 349.793)" display="inline" fill="#FFFFFF" font-family="'Poppins-Bold'" font-size="107.0061">17</text>
	
		<text transform="matrix(0.8975 -0.1261 -0.2924 0.9563 217.9508 139.0924)" display="inline" fill="#FFFFFF" font-family="'Poppins-ExtraBold'" font-size="62.5761">8</text>
	
		<text transform="matrix(0.9586 0.1347 0.1137 0.9935 335.9185 131.1047)" display="inline" fill="#FFFFFF" font-family="'Poppins-ExtraBold'" font-size="58.587">16</text>
	
		<text transform="matrix(-0.7215 -0.8053 0.9796 -0.2008 203.8343 467.2358)" display="inline" fill="#FFFFFF" font-family="'Poppins-ExtraBold'" font-size="52.4547">15</text>
	
		<text transform="matrix(-0.347 -1.1018 0.8202 -0.5721 128.681 355.2081)" display="inline" fill="#FFFFFF" font-family="'Poppins-ExtraBold'" font-size="49.0957">12</text>
	
		<text transform="matrix(-0.3367 1.0274 -0.6637 -0.748 488.7773 304.4229)" display="inline" fill="#FFFFFF" font-family="'Poppins-ExtraBold'" font-size="52.4549">19</text>
	
		<text transform="matrix(-0.7807 0.8514 -0.9056 -0.4242 423.6132 436.6989)" display="inline" fill="#FFFFFF" font-family="'Poppins-ExtraBold'" font-size="49.096">1</text>
	
		<text transform="matrix(0.5227 -0.9053 0.866 0.5 178.1827 286.3234)" display="inline" fill="#FFFFFF" font-family="'Poppins-Bold'" font-size="93.8576">10</text>
	
		<text transform="matrix(0.5227 0.9053 -0.866 0.5 392.0413 218.1129)" display="inline" fill="#FFFFFF" font-family="'Poppins-Bold'" font-size="93.8576">3</text>
	
		<text transform="matrix(-1.1089 0 0 -1 321.7224 426.8389)" display="inline" fill="#FFFFFF" font-family="'Poppins-Bold'" font-size="75.8196">7</text>
</g>
<g id="face_16" display="none">
	
		<text transform="matrix(1 0 0 1 250.3919 349.793)" display="inline" fill="#FFFFFF" font-family="'Poppins-Bold'" font-size="107.0061">16</text>
	
		<text transform="matrix(0.8975 -0.1261 -0.2924 0.9563 219.411 138.8872)" display="inline" fill="#FFFFFF" font-family="'Poppins-ExtraBold'" font-size="62.5761">9</text>
	
		<text transform="matrix(0.9586 0.1347 0.1137 0.9935 336.8169 131.2309)" display="inline" fill="#FFFFFF" font-family="'Poppins-ExtraBold'" font-size="58.587">19</text>
	
		<text transform="matrix(-0.7215 -0.8053 0.9796 -0.2008 207.4294 471.2486)" display="inline" fill="#FFFFFF" font-family="'Poppins-ExtraBold'" font-size="52.4547">20</text>
	
		<text transform="matrix(-0.347 -1.1018 0.8202 -0.5721 129.7201 358.5074)" display="inline" fill="#FFFFFF" font-family="'Poppins-ExtraBold'" font-size="49.0957">14</text>
	
		<text transform="matrix(-0.3367 1.0274 -0.6637 -0.748 488.0002 306.7945)" display="inline" fill="#FFFFFF" font-family="'Poppins-ExtraBold'" font-size="52.4549">17</text>
	
		<text transform="matrix(-0.7807 0.8514 -0.9056 -0.4242 436.1276 423.0507)" display="inline" fill="#FFFFFF" font-family="'Poppins-ExtraBold'" font-size="49.096">10</text>
	
		<text transform="matrix(0.5227 -0.9053 0.866 0.5 187.3073 270.519)" display="inline" fill="#FFFFFF" font-family="'Poppins-Bold'" font-size="93.8576">6</text>
	
		<text transform="matrix(0.5227 0.9053 -0.866 0.5 392.0413 218.1129)" display="inline" fill="#FFFFFF" font-family="'Poppins-Bold'" font-size="93.8576">3</text>
	
		<text transform="matrix(-1.1089 0 0 -1 327.3982 426.8389)" display="inline" fill="#FFFFFF" font-family="'Poppins-Bold'" font-size="75.8196">8</text>
</g>
<g id="face_15" display="none">
	
		<text transform="matrix(1 0 0 1 249.5897 349.793)" display="inline" fill="#FFFFFF" font-family="'Poppins-Bold'" font-size="107.0061">15</text>
	
		<text transform="matrix(0.8975 -0.1261 -0.2924 0.9563 207.3643 140.5802)" display="inline" fill="#FFFFFF" font-family="'Poppins-ExtraBold'" font-size="62.5761">18</text>
	
		<text transform="matrix(0.9586 0.1347 0.1137 0.9935 348.3303 132.849)" display="inline" fill="#FFFFFF" font-family="'Poppins-ExtraBold'" font-size="58.587">2</text>
	
		<text transform="matrix(-0.7215 -0.8053 0.9796 -0.2008 191.4975 453.4656)" display="inline" fill="#FFFFFF" font-family="'Poppins-ExtraBold'" font-size="52.4547">1</text>
	
		<text transform="matrix(-0.347 -1.1018 0.8202 -0.5721 129.0556 356.3976)" display="inline" fill="#FFFFFF" font-family="'Poppins-ExtraBold'" font-size="49.0957">13</text>
	
		<text transform="matrix(-0.3367 1.0274 -0.6637 -0.748 489.2541 302.9677)" display="inline" fill="#FFFFFF" font-family="'Poppins-ExtraBold'" font-size="52.4549">10</text>
	
		<text transform="matrix(-0.7807 0.8514 -0.9056 -0.4242 433.4061 426.0187)" display="inline" fill="#FFFFFF" font-family="'Poppins-ExtraBold'" font-size="49.096">17</text>
	
		<text transform="matrix(0.5227 -0.9053 0.866 0.5 186.9394 271.1562)" display="inline" fill="#FFFFFF" font-family="'Poppins-Bold'" font-size="93.8576">5</text>
	
		<text transform="matrix(0.5227 0.9053 -0.866 0.5 384.2659 204.6454)" display="inline" fill="#FFFFFF" font-family="'Poppins-Bold'" font-size="93.8576">12</text>
	
		<text transform="matrix(-1.1089 0 0 -1 321.7224 426.8389)" display="inline" fill="#FFFFFF" font-family="'Poppins-Bold'" font-size="75.8196">7</text>
</g>
<g id="face_14" display="none">
	
		<text transform="matrix(1 0 0 1 248.0374 349.793)" display="inline" fill="#FFFFFF" font-family="'Poppins-Bold'" font-size="107.0061">14</text>
	
		<text transform="matrix(0.8975 -0.1261 -0.2924 0.9563 215.0583 139.4989)" display="inline" fill="#FFFFFF" font-family="'Poppins-ExtraBold'" font-size="62.5761">11</text>
	
		<text transform="matrix(0.9586 0.1347 0.1137 0.9935 347.4034 132.7187)" display="inline" fill="#FFFFFF" font-family="'Poppins-ExtraBold'" font-size="58.587">9</text>
	
		<text transform="matrix(-0.7215 -0.8053 0.9796 -0.2008 195.0737 457.4573)" display="inline" fill="#FFFFFF" font-family="'Poppins-ExtraBold'" font-size="52.4547">2</text>
	
		<text transform="matrix(-0.347 -1.1018 0.8202 -0.5721 129.405 357.507)" display="inline" fill="#FFFFFF" font-family="'Poppins-ExtraBold'" font-size="49.0957">18</text>
	
		<text transform="matrix(-0.3367 1.0274 -0.6637 -0.748 489.0598 303.5606)" display="inline" fill="#FFFFFF" font-family="'Poppins-ExtraBold'" font-size="52.4549">16</text>
	
		<text transform="matrix(-0.7807 0.8514 -0.9056 -0.4242 428.8641 430.9723)" display="inline" fill="#FFFFFF" font-family="'Poppins-ExtraBold'" font-size="49.096">8</text>
	
		<text transform="matrix(0.5227 -0.9053 0.866 0.5 186.2278 272.3886)" display="inline" fill="#FFFFFF" font-family="'Poppins-Bold'" font-size="93.8576">4</text>
	
		<text transform="matrix(0.5227 0.9053 -0.866 0.5 391.4774 217.1361)" display="inline" fill="#FFFFFF" font-family="'Poppins-Bold'" font-size="93.8576">6</text>
	
		<text transform="matrix(-1.1089 0 0 -1 351.1502 426.8389)" display="inline" fill="#FFFFFF" font-family="'Poppins-Bold'" font-size="75.8196">20</text>
</g>
<g id="face_13" display="none">
	
		<text transform="matrix(1 0 0 1 251.6224 349.793)" display="inline" fill="#FFFFFF" font-family="'Poppins-Bold'" font-size="107.0061">13</text>
	
		<text transform="matrix(0.8975 -0.1261 -0.2924 0.9563 216.9112 139.2385)" display="inline" fill="#FFFFFF" font-family="'Poppins-ExtraBold'" font-size="62.5761">4</text>
	
		<text transform="matrix(0.9586 0.1347 0.1137 0.9935 335.3571 131.0258)" display="inline" fill="#FFFFFF" font-family="'Poppins-ExtraBold'" font-size="58.587">18</text>
	
		<text transform="matrix(-0.7215 -0.8053 0.9796 -0.2008 202.8315 466.1164)" display="inline" fill="#FFFFFF" font-family="'Poppins-ExtraBold'" font-size="52.4547">19</text>
	
		<text transform="matrix(-0.347 -1.1018 0.8202 -0.5721 125.7506 345.9038)" display="inline" fill="#FFFFFF" font-family="'Poppins-ExtraBold'" font-size="49.0957">9</text>
	
		<text transform="matrix(-0.3367 1.0274 -0.6637 -0.748 489.2452 302.9948)" display="inline" fill="#FFFFFF" font-family="'Poppins-ExtraBold'" font-size="52.4549">15</text>
	
		<text transform="matrix(-0.7807 0.8514 -0.9056 -0.4242 426.1809 433.8986)" display="inline" fill="#FFFFFF" font-family="'Poppins-ExtraBold'" font-size="49.096">7</text>
	
		<text transform="matrix(0.5227 -0.9053 0.866 0.5 185.2472 274.0871)" display="inline" fill="#FFFFFF" font-family="'Poppins-Bold'" font-size="93.8576">11</text>
	
		<text transform="matrix(0.5227 0.9053 -0.866 0.5 391.1092 216.4984)" display="inline" fill="#FFFFFF" font-family="'Poppins-Bold'" font-size="93.8576">5</text>
	
		<text transform="matrix(-1.1089 0 0 -1 315.2488 426.8389)" display="inline" fill="#FFFFFF" font-family="'Poppins-Bold'" font-size="75.8196">1</text>
</g>
<g id="face_12" display="none">
	
		<text transform="matrix(1 0 0 1 253.7093 349.793)" display="inline" fill="#FFFFFF" font-family="'Poppins-Bold'" font-size="107.0061">12</text>
	
		<text transform="matrix(0.8975 -0.1261 -0.2924 0.9563 211.2955 140.0277)" display="inline" fill="#FFFFFF" font-family="'Poppins-ExtraBold'" font-size="62.5761">17</text>
	
		<text transform="matrix(0.9586 0.1347 0.1137 0.9935 349.8747 133.066)" display="inline" fill="#FFFFFF" font-family="'Poppins-ExtraBold'" font-size="58.587">7</text>
	
		<text transform="matrix(-0.7215 -0.8053 0.9796 -0.2008 207.4294 471.2486)" display="inline" fill="#FFFFFF" font-family="'Poppins-ExtraBold'" font-size="52.4547">20</text>
	
		<text transform="matrix(-0.347 -1.1018 0.8202 -0.5721 126.1936 347.3103)" display="inline" fill="#FFFFFF" font-family="'Poppins-ExtraBold'" font-size="49.0957">8</text>
	
		<text transform="matrix(-0.3367 1.0274 -0.6637 -0.748 485.9164 313.1537)" display="inline" fill="#FFFFFF" font-family="'Poppins-ExtraBold'" font-size="52.4549">5</text>
	
		<text transform="matrix(-0.7807 0.8514 -0.9056 -0.4242 436.089 423.0928)" display="inline" fill="#FFFFFF" font-family="'Poppins-ExtraBold'" font-size="49.096">18</text>
	
		<text transform="matrix(0.5227 -0.9053 0.866 0.5 178.1827 286.3234)" display="inline" fill="#FFFFFF" font-family="'Poppins-Bold'" font-size="93.8576">10</text>
	
		<text transform="matrix(0.5227 0.9053 -0.866 0.5 382.3773 201.3742)" display="inline" fill="#FFFFFF" font-family="'Poppins-Bold'" font-size="93.8576">15</text>
	
		<text transform="matrix(-1.1089 0 0 -1 324.0769 426.8389)" display="inline" fill="#FFFFFF" font-family="'Poppins-Bold'" font-size="75.8196">2</text>
</g>
<g id="face_11" display="none">
	
		<text transform="matrix(1 0 0 1 264.9451 349.793)" display="inline" fill="#FFFFFF" font-family="'Poppins-Bold'" font-size="107.0061">11</text>
	
		<text transform="matrix(0.8975 -0.1261 -0.2924 0.9563 218.5117 139.0136)" display="inline" fill="#FFFFFF" font-family="'Poppins-ExtraBold'" font-size="62.5761">6</text>
	
		<text transform="matrix(0.9586 0.1347 0.1137 0.9935 334.3181 130.8797)" display="inline" fill="#FFFFFF" font-family="'Poppins-ExtraBold'" font-size="58.587">14</text>
	
		<text transform="matrix(-0.7215 -0.8053 0.9796 -0.2008 191.4975 453.4656)" display="inline" fill="#FFFFFF" font-family="'Poppins-ExtraBold'" font-size="52.4547">1</text>
	
		<text transform="matrix(-0.347 -1.1018 0.8202 -0.5721 128.9621 356.1005)" display="inline" fill="#FFFFFF" font-family="'Poppins-ExtraBold'" font-size="49.0957">19</text>
	
		<text transform="matrix(-0.3367 1.0274 -0.6637 -0.748 489.2363 303.022)" display="inline" fill="#FFFFFF" font-family="'Poppins-ExtraBold'" font-size="52.4549">18</text>
	
		<text transform="matrix(-0.7807 0.8514 -0.9056 -0.4242 428.8832 430.9514)" display="inline" fill="#FFFFFF" font-family="'Poppins-ExtraBold'" font-size="49.096">5</text>
	
		<text transform="matrix(0.5227 -0.9053 0.866 0.5 187.9694 269.3721)" display="inline" fill="#FFFFFF" font-family="'Poppins-Bold'" font-size="93.8576">9</text>
	
		<text transform="matrix(0.5227 0.9053 -0.866 0.5 390.3978 215.2662)" display="inline" fill="#FFFFFF" font-family="'Poppins-Bold'" font-size="93.8576">4</text>
	
		<text transform="matrix(-1.1089 0 0 -1 340.6824 426.8389)" display="inline" fill="#FFFFFF" font-family="'Poppins-Bold'" font-size="75.8196">13</text>
</g>
<g id="face_10">
	<text transform="matrix(1 0 0 1 249.5355 349.793)" fill="#FFFFFF" font-family="'Poppins-Bold'" font-size="107.0061">10</text>
	
		<text transform="matrix(0.8975 -0.1261 -0.2924 0.9563 221.8819 138.5399)" fill="#FFFFFF" font-family="'Poppins-ExtraBold'" font-size="62.5761">7</text>
	
		<text transform="matrix(0.9586 0.1347 0.1137 0.9935 335.3286 131.0218)" fill="#FFFFFF" font-family="'Poppins-ExtraBold'" font-size="58.587">15</text>
	
		<text transform="matrix(-0.7215 -0.8053 0.9796 -0.2008 203.4368 466.7921)" fill="#FFFFFF" font-family="'Poppins-ExtraBold'" font-size="52.4547">16</text>
	
		<text transform="matrix(-0.347 -1.1018 0.8202 -0.5721 125.8442 346.201)" fill="#FFFFFF" font-family="'Poppins-ExtraBold'" font-size="49.0957">3</text>
	
		<text transform="matrix(-0.3367 1.0274 -0.6637 -0.748 485.1571 315.4711)" fill="#FFFFFF" font-family="'Poppins-ExtraBold'" font-size="52.4549">2</text>
	
		<text transform="matrix(-0.7807 0.8514 -0.9056 -0.4242 439.7496 419.1005)" fill="#FFFFFF" font-family="'Poppins-ExtraBold'" font-size="49.096">20</text>
	
		<text transform="matrix(0.5227 -0.9053 0.866 0.5 181.4695 280.6303)" fill="#FFFFFF" font-family="'Poppins-Bold'" font-size="93.8576">17</text>
	
		<text transform="matrix(0.5227 0.9053 -0.866 0.5 384.2659 204.6454)" fill="#FFFFFF" font-family="'Poppins-Bold'" font-size="93.8576">12</text>
	<text transform="matrix(-1.1089 0 0 -1 327.3982 426.8389)" fill="#FFFFFF" font-family="'Poppins-Bold'" font-size="75.8196">8</text>
</g>
<g id="face_9" display="none">
	
		<text transform="matrix(1 0 0 1 270.8826 349.793)" display="inline" fill="#FFFFFF" font-family="'Poppins-Bold'" font-size="107.0061">9</text>
	
		<text transform="matrix(0.8975 -0.1261 -0.2924 0.9563 206.3248 140.7263)" display="inline" fill="#FFFFFF" font-family="'Poppins-ExtraBold'" font-size="62.5761">14</text>
	
		<text transform="matrix(0.9586 0.1347 0.1137 0.9935 344.9044 132.3675)" display="inline" fill="#FFFFFF" font-family="'Poppins-ExtraBold'" font-size="58.587">4</text>
	
		<text transform="matrix(-0.7215 -0.8053 0.9796 -0.2008 195.9058 458.3861)" display="inline" fill="#FFFFFF" font-family="'Poppins-ExtraBold'" font-size="52.4547">3</text>
	
		<text transform="matrix(-0.347 -1.1018 0.8202 -0.5721 129.2346 356.9658)" display="inline" fill="#FFFFFF" font-family="'Poppins-ExtraBold'" font-size="49.0957">16</text>
	
		<text transform="matrix(-0.3367 1.0274 -0.6637 -0.748 488.8743 304.1268)" display="inline" fill="#FFFFFF" font-family="'Poppins-ExtraBold'" font-size="52.4549">13</text>
	
		<text transform="matrix(-0.7807 0.8514 -0.9056 -0.4242 423.6132 436.6989)" display="inline" fill="#FFFFFF" font-family="'Poppins-ExtraBold'" font-size="49.096">1</text>
	
		<text transform="matrix(0.5227 -0.9053 0.866 0.5 187.3073 270.519)" display="inline" fill="#FFFFFF" font-family="'Poppins-Bold'" font-size="93.8576">6</text>
	
		<text transform="matrix(0.5227 0.9053 -0.866 0.5 389.4173 213.5679)" display="inline" fill="#FFFFFF" font-family="'Poppins-Bold'" font-size="93.8576">11</text>
	
		<text transform="matrix(-1.1089 0 0 -1 340.5144 426.8389)" display="inline" fill="#FFFFFF" font-family="'Poppins-Bold'" font-size="75.8196">19</text>
</g>
<g id="face_8" display="none">
	
		<text transform="matrix(1 0 0 1 268.5291 349.793)" display="inline" fill="#FFFFFF" font-family="'Poppins-Bold'" font-size="107.0061">8</text>
	
		<text transform="matrix(0.8975 -0.1261 -0.2924 0.9563 219.1025 138.9305)" display="inline" fill="#FFFFFF" font-family="'Poppins-ExtraBold'" font-size="62.5761">3</text>
	
		<text transform="matrix(0.9586 0.1347 0.1137 0.9935 339.2882 131.5782)" display="inline" fill="#FFFFFF" font-family="'Poppins-ExtraBold'" font-size="58.587">17</text>
	
		<text transform="matrix(-0.7215 -0.8053 0.9796 -0.2008 204.5153 467.9959)" display="inline" fill="#FFFFFF" font-family="'Poppins-ExtraBold'" font-size="52.4547">14</text>
	
		<text transform="matrix(-0.347 -1.1018 0.8202 -0.5721 126.0232 346.7692)" display="inline" fill="#FFFFFF" font-family="'Poppins-ExtraBold'" font-size="49.0957">6</text>
	
		<text transform="matrix(-0.3367 1.0274 -0.6637 -0.748 488.4859 305.3123)" display="inline" fill="#FFFFFF" font-family="'Poppins-ExtraBold'" font-size="52.4549">12</text>
	
		<text transform="matrix(-0.7807 0.8514 -0.9056 -0.4242 427.2352 432.7487)" display="inline" fill="#FFFFFF" font-family="'Poppins-ExtraBold'" font-size="49.096">2</text>
	
		<text transform="matrix(0.5227 -0.9053 0.866 0.5 178.5752 285.6434)" display="inline" fill="#FFFFFF" font-family="'Poppins-Bold'" font-size="93.8576">16</text>
	
		<text transform="matrix(0.5227 0.9053 -0.866 0.5 382.3524 201.331)" display="inline" fill="#FFFFFF" font-family="'Poppins-Bold'" font-size="93.8576">10</text>
	
		<text transform="matrix(-1.1089 0 0 -1 351.1502 426.8389)" display="inline" fill="#FFFFFF" font-family="'Poppins-Bold'" font-size="75.8196">20</text>
</g>
<g id="face_7" display="none">
	
		<text transform="matrix(1 0 0 1 275.7518 349.793)" display="inline" fill="#FFFFFF" font-family="'Poppins-Bold'" font-size="107.0061">7</text>
	
		<text transform="matrix(0.8975 -0.1261 -0.2924 0.9563 209.7511 140.2448)" display="inline" fill="#FFFFFF" font-family="'Poppins-ExtraBold'" font-size="62.5761">12</text>
	
		<text transform="matrix(0.9586 0.1347 0.1137 0.9935 335.3006 131.0178)" display="inline" fill="#FFFFFF" font-family="'Poppins-ExtraBold'" font-size="58.587">10</text>
	
		<text transform="matrix(-0.7215 -0.8053 0.9796 -0.2008 203.0393 466.3484)" display="inline" fill="#FFFFFF" font-family="'Poppins-ExtraBold'" font-size="52.4547">13</text>
	
		<text transform="matrix(-0.347 -1.1018 0.8202 -0.5721 126.2021 347.3373)" display="inline" fill="#FFFFFF" font-family="'Poppins-ExtraBold'" font-size="49.0957">5</text>
	
		<text transform="matrix(-0.3367 1.0274 -0.6637 -0.748 485.5455 314.2857)" display="inline" fill="#FFFFFF" font-family="'Poppins-ExtraBold'" font-size="52.4549">3</text>
	
		<text transform="matrix(-0.7807 0.8514 -0.9056 -0.4242 435.0927 424.1793)" display="inline" fill="#FFFFFF" font-family="'Poppins-ExtraBold'" font-size="49.096">19</text>
	
		<text transform="matrix(0.5227 -0.9053 0.866 0.5 178.2073 286.2807)" display="inline" fill="#FFFFFF" font-family="'Poppins-Bold'" font-size="93.8576">15</text>
	
		<text transform="matrix(0.5227 0.9053 -0.866 0.5 385.6395 207.0245)" display="inline" fill="#FFFFFF" font-family="'Poppins-Bold'" font-size="93.8576">17</text>
	
		<text transform="matrix(-1.1089 0 0 -1 315.2488 426.8389)" display="inline" fill="#FFFFFF" font-family="'Poppins-Bold'" font-size="75.8196">1</text>
</g>
<g id="face_6" display="none">
	
		<text transform="matrix(1 0 0 1 269.4383 349.793)" display="inline" fill="#FFFFFF" font-family="'Poppins-Bold'" font-size="107.0061">6</text>
	
		<text transform="matrix(0.8975 -0.1261 -0.2924 0.9563 208.8236 140.3751)" display="inline" fill="#FFFFFF" font-family="'Poppins-ExtraBold'" font-size="62.5761">19</text>
	
		<text transform="matrix(0.9586 0.1347 0.1137 0.9935 347.0948 132.6754)" display="inline" fill="#FFFFFF" font-family="'Poppins-ExtraBold'" font-size="58.587">3</text>
	
		<text transform="matrix(-0.7215 -0.8053 0.9796 -0.2008 197.3818 460.0336)" display="inline" fill="#FFFFFF" font-family="'Poppins-ExtraBold'" font-size="52.4547">4</text>
	
		<text transform="matrix(-0.347 -1.1018 0.8202 -0.5721 127.0711 350.0963)" display="inline" fill="#FFFFFF" font-family="'Poppins-ExtraBold'" font-size="49.0957">11</text>
	
		<text transform="matrix(-0.3367 1.0274 -0.6637 -0.748 485.9075 313.1809)" display="inline" fill="#FFFFFF" font-family="'Poppins-ExtraBold'" font-size="52.4549">8</text>
	
		<text transform="matrix(-0.7807 0.8514 -0.9056 -0.4242 439.7496 419.1005)" display="inline" fill="#FFFFFF" font-family="'Poppins-ExtraBold'" font-size="49.096">20</text>
	
		<text transform="matrix(0.5227 -0.9053 0.866 0.5 187.9694 269.3721)" display="inline" fill="#FFFFFF" font-family="'Poppins-Bold'" font-size="93.8576">9</text>
	
		<text transform="matrix(0.5227 0.9053 -0.866 0.5 382.7454 202.0118)" display="inline" fill="#FFFFFF" font-family="'Poppins-Bold'" font-size="93.8576">16</text>
	
		<text transform="matrix(-1.1089 0 0 -1 343.4988 426.8389)" display="inline" fill="#FFFFFF" font-family="'Poppins-Bold'" font-size="75.8196">14</text>
</g>
<g id="face_5" display="none">
	
		<text transform="matrix(1 0 0 1 268.636 349.793)" display="inline" fill="#FFFFFF" font-family="'Poppins-Bold'" font-size="107.0061">5</text>
	
		<text transform="matrix(0.8975 -0.1261 -0.2924 0.9563 220.3375 138.757)" display="inline" fill="#FFFFFF" font-family="'Poppins-ExtraBold'" font-size="62.5761">2</text>
	
		<text transform="matrix(0.9586 0.1347 0.1137 0.9935 337.7439 131.3612)" display="inline" fill="#FFFFFF" font-family="'Poppins-ExtraBold'" font-size="58.587">12</text>
	
		<text transform="matrix(-0.7215 -0.8053 0.9796 -0.2008 198.631 461.4279)" display="inline" fill="#FFFFFF" font-family="'Poppins-ExtraBold'" font-size="52.4547">11</text>
	
		<text transform="matrix(-0.347 -1.1018 0.8202 -0.5721 126.5087 348.3107)" display="inline" fill="#FFFFFF" font-family="'Poppins-ExtraBold'" font-size="49.0957">4</text>
	
		<text transform="matrix(-0.3367 1.0274 -0.6637 -0.748 484.6714 316.9534)" display="inline" fill="#FFFFFF" font-family="'Poppins-ExtraBold'" font-size="52.4549">7</text>
	
		<text transform="matrix(-0.7807 0.8514 -0.9056 -0.4242 423.6132 436.6989)" display="inline" fill="#FFFFFF" font-family="'Poppins-ExtraBold'" font-size="49.096">1</text>
	
		<text transform="matrix(0.5227 -0.9053 0.866 0.5 178.1582 286.3657)" display="inline" fill="#FFFFFF" font-family="'Poppins-Bold'" font-size="93.8576">18</text>
	
		<text transform="matrix(0.5227 0.9053 -0.866 0.5 382.3773 201.3742)" display="inline" fill="#FFFFFF" font-family="'Poppins-Bold'" font-size="93.8576">15</text>
	
		<text transform="matrix(-1.1089 0 0 -1 340.6824 426.8389)" display="inline" fill="#FFFFFF" font-family="'Poppins-Bold'" font-size="75.8196">13</text>
</g>
<g id="face_4" display="none">
	
		<text transform="matrix(1 0 0 1 267.0838 349.793)" display="inline" fill="#FFFFFF" font-family="'Poppins-Bold'" font-size="107.0061">4</text>
	
		<text transform="matrix(0.8975 -0.1261 -0.2924 0.9563 217.9227 139.0963)" display="inline" fill="#FFFFFF" font-family="'Poppins-ExtraBold'" font-size="62.5761">5</text>
	
		<text transform="matrix(0.9586 0.1347 0.1137 0.9935 336.5084 131.1876)" display="inline" fill="#FFFFFF" font-family="'Poppins-ExtraBold'" font-size="58.587">13</text>
	
		<text transform="matrix(-0.7215 -0.8053 0.9796 -0.2008 207.4294 471.2486)" display="inline" fill="#FFFFFF" font-family="'Poppins-ExtraBold'" font-size="52.4547">20</text>
	
		<text transform="matrix(-0.347 -1.1018 0.8202 -0.5721 125.4696 345.0115)" display="inline" fill="#FFFFFF" font-family="'Poppins-ExtraBold'" font-size="49.0957">2</text>
	
		<text transform="matrix(-0.3367 1.0274 -0.6637 -0.748 485.4485 314.5817)" display="inline" fill="#FFFFFF" font-family="'Poppins-ExtraBold'" font-size="52.4549">9</text>
	
		<text transform="matrix(-0.7807 0.8514 -0.9056 -0.4242 428.481 431.3901)" display="inline" fill="#FFFFFF" font-family="'Poppins-ExtraBold'" font-size="49.096">6</text>
	
		<text transform="matrix(0.5227 -0.9053 0.866 0.5 178.1582 286.3657)" display="inline" fill="#FFFFFF" font-family="'Poppins-Bold'" font-size="93.8576">18</text>
	
		<text transform="matrix(0.5227 0.9053 -0.866 0.5 389.4173 213.5679)" display="inline" fill="#FFFFFF" font-family="'Poppins-Bold'" font-size="93.8576">11</text>
	
		<text transform="matrix(-1.1089 0 0 -1 343.4988 426.8389)" display="inline" fill="#FFFFFF" font-family="'Poppins-Bold'" font-size="75.8196">14</text>
</g>
<g id="face_3" display="none">
	
		<text transform="matrix(1 0 0 1 270.6688 349.793)" display="inline" fill="#FFFFFF" font-family="'Poppins-Bold'" font-size="107.0061">3</text>
	
		<text transform="matrix(0.8975 -0.1261 -0.2924 0.9563 207.3073 140.5882)" display="inline" fill="#FFFFFF" font-family="'Poppins-ExtraBold'" font-size="62.5761">10</text>
	
		<text transform="matrix(0.9586 0.1347 0.1137 0.9935 345.9436 132.5136)" display="inline" fill="#FFFFFF" font-family="'Poppins-ExtraBold'" font-size="58.587">8</text>
	
		<text transform="matrix(-0.7215 -0.8053 0.9796 -0.2008 191.4975 453.4656)" display="inline" fill="#FFFFFF" font-family="'Poppins-ExtraBold'" font-size="52.4547">1</text>
	
		<text transform="matrix(-0.347 -1.1018 0.8202 -0.5721 125.0011 343.524)" display="inline" fill="#FFFFFF" font-family="'Poppins-ExtraBold'" font-size="49.0957">7</text>
	
		<text transform="matrix(-0.3367 1.0274 -0.6637 -0.748 485.731 313.7195)" display="inline" fill="#FFFFFF" font-family="'Poppins-ExtraBold'" font-size="52.4549">6</text>
	
		<text transform="matrix(-0.7807 0.8514 -0.9056 -0.4242 427.8678 432.0588)" display="inline" fill="#FFFFFF" font-family="'Poppins-ExtraBold'" font-size="49.096">9</text>
	
		<text transform="matrix(0.5227 -0.9053 0.866 0.5 181.4695 280.6303)" display="inline" fill="#FFFFFF" font-family="'Poppins-Bold'" font-size="93.8576">17</text>
	
		<text transform="matrix(0.5227 0.9053 -0.866 0.5 382.7454 202.0118)" display="inline" fill="#FFFFFF" font-family="'Poppins-Bold'" font-size="93.8576">16</text>
	
		<text transform="matrix(-1.1089 0 0 -1 340.5144 426.8389)" display="inline" fill="#FFFFFF" font-family="'Poppins-Bold'" font-size="75.8196">19</text>
</g>
<g id="face_2" display="none">
	
		<text transform="matrix(1 0 0 1 272.7557 349.793)" display="inline" fill="#FFFFFF" font-family="'Poppins-Bold'" font-size="107.0061">2</text>
	
		<text transform="matrix(0.8975 -0.1261 -0.2924 0.9563 207.3363 140.5841)" display="inline" fill="#FFFFFF" font-family="'Poppins-ExtraBold'" font-size="62.5761">15</text>
	
		<text transform="matrix(0.9586 0.1347 0.1137 0.9935 345.915 132.5096)" display="inline" fill="#FFFFFF" font-family="'Poppins-ExtraBold'" font-size="58.587">5</text>
	
		<text transform="matrix(-0.7215 -0.8053 0.9796 -0.2008 196.6819 459.2524)" display="inline" fill="#FFFFFF" font-family="'Poppins-ExtraBold'" font-size="52.4547">8</text>
	
		<text transform="matrix(-0.347 -1.1018 0.8202 -0.5721 129.422 357.561)" display="inline" fill="#FFFFFF" font-family="'Poppins-ExtraBold'" font-size="49.0957">10</text>
	
		<text transform="matrix(-0.3367 1.0274 -0.6637 -0.748 489.2363 303.022)" display="inline" fill="#FFFFFF" font-family="'Poppins-ExtraBold'" font-size="52.4549">18</text>
	
		<text transform="matrix(-0.7807 0.8514 -0.9056 -0.4242 436.7981 422.3194)" display="inline" fill="#FFFFFF" font-family="'Poppins-ExtraBold'" font-size="49.096">14</text>
	
		<text transform="matrix(0.5227 -0.9053 0.866 0.5 180.096 283.0094)" display="inline" fill="#FFFFFF" font-family="'Poppins-Bold'" font-size="93.8576">12</text>
	
		<text transform="matrix(0.5227 0.9053 -0.866 0.5 382.3284 201.2896)" display="inline" fill="#FFFFFF" font-family="'Poppins-Bold'" font-size="93.8576">18</text>
	
		<text transform="matrix(-1.1089 0 0 -1 351.1502 426.8389)" display="inline" fill="#FFFFFF" font-family="'Poppins-Bold'" font-size="75.8196">20</text>
</g>
<g id="face_1" display="none">
	
		<text transform="matrix(1 0 0 1 283.9915 349.793)" display="inline" fill="#FFFFFF" font-family="'Poppins-Bold'" font-size="107.0061">1</text>
	
		<text transform="matrix(0.8975 -0.1261 -0.2924 0.9563 211.2955 140.0277)" display="inline" fill="#FFFFFF" font-family="'Poppins-ExtraBold'" font-size="62.5761">17</text>
	
		<text transform="matrix(0.9586 0.1347 0.1137 0.9935 347.0948 132.6754)" display="inline" fill="#FFFFFF" font-family="'Poppins-ExtraBold'" font-size="58.587">3</text>
	
		<text transform="matrix(-0.7215 -0.8053 0.9796 -0.2008 196.7008 459.2735)" display="inline" fill="#FFFFFF" font-family="'Poppins-ExtraBold'" font-size="52.4547">5</text>
	
		<text transform="matrix(-0.347 -1.1018 0.8202 -0.5721 129.4135 357.534)" display="inline" fill="#FFFFFF" font-family="'Poppins-ExtraBold'" font-size="49.0957">15</text>
	
		<text transform="matrix(-0.3367 1.0274 -0.6637 -0.748 485.4485 314.5817)" display="inline" fill="#FFFFFF" font-family="'Poppins-ExtraBold'" font-size="52.4549">9</text>
	
		<text transform="matrix(-0.7807 0.8514 -0.9056 -0.4242 430.8381 428.8194)" display="inline" fill="#FFFFFF" font-family="'Poppins-ExtraBold'" font-size="49.096">11</text>
	
		<text transform="matrix(0.5227 -0.9053 0.866 0.5 190.2016 265.5059)" display="inline" fill="#FFFFFF" font-family="'Poppins-Bold'" font-size="93.8576">7</text>
	
		<text transform="matrix(0.5227 0.9053 -0.866 0.5 383.4075 203.1587)" display="inline" fill="#FFFFFF" font-family="'Poppins-Bold'" font-size="93.8576">19</text>
	
		<text transform="matrix(-1.1089 0 0 -1 340.6824 426.8389)" display="inline" fill="#FFFFFF" font-family="'Poppins-Bold'" font-size="75.8196">13</text>
</g>
</svg>
